<?xml version="1.0" encoding="UTF-8"?>
<!DOCTYPE svg PUBLIC "-//W3C//DTD SVG 1.1//EN" "http://www.w3.org/Graphics/SVG/1.1/DTD/svg11.dtd">
<svg version="1.1" xmlns="http://www.w3.org/2000/svg" xmlns:xlink="http://www.w3.org/1999/xlink" x="0" y="0" width="1000" height="1000" viewBox="0, 0, 1000, 1000">
  <g id="MyLayer" transform="translate(0, 0)">
    <path d="M402.5,327.5 C402.5,330.261 400.261,332.5 397.5,332.5 C394.739,332.5 392.5,330.261 392.5,327.5 C392.5,324.739 394.739,322.5 397.5,322.5 C400.261,322.5 402.5,324.739 402.5,327.5 z" fill-opacity="0" stroke="#0000FF" stroke-width="1" id="anchor"/>
    <g>
      <path d="M624.859,199.361 C633.423,199.361 640.368,192.422 640.368,183.864 C640.368,175.294 633.422,168.354 624.859,168.354 C616.295,168.354 609.35,175.294 609.35,183.864 C609.35,192.422 616.295,199.361 624.859,199.361" fill="#FFFFFF"/>
      <path d="M624.859,200.715 C634.172,200.715 641.718,193.163 641.718,183.861 C641.718,174.544 634.171,167 624.859,167 C615.553,167 608,174.545 608,183.861 C608,193.163 615.553,200.715 624.859,200.715" fill="#000000"/>
      <path d="M630.487,177.747 L623.805,177.747 L623.729,181.452 C624.124,181.374 624.647,181.276 625.317,181.276 C627.755,181.276 630.909,182.416 630.909,186.916 C630.909,190.171 628.622,192.801 624.151,192.801 C622.812,192.801 621.245,192.576 620.105,192.301 L620.177,189.201 C621.022,189.546 622.215,190.073 623.729,190.073 C625.544,190.073 627.429,189.226 627.429,187.015 C627.429,184.779 625.443,184.012 623.455,184.012 C622.386,184.012 621.37,184.16 620.353,184.483 L620.524,175.166 L630.486,175.166 L630.486,177.747 z" fill="#FFFFFF"/>
    </g>
    <g>
      <path d="M267.854,173.359 C276.419,173.359 283.365,166.419 283.365,157.855 C283.365,149.29 276.418,142.344 267.854,142.344 C259.297,142.344 252.35,149.291 252.35,157.855 C252.35,166.418 259.297,173.359 267.854,173.359" fill="#FFFFFF"/>
      <path d="M267.854,174.721 C277.164,174.721 284.715,167.163 284.715,157.861 C284.715,148.544 277.163,141 267.854,141 C258.552,141 251,148.545 251,157.861 C251,167.163 258.552,174.721 267.854,174.721" fill="#0089CF"/>
      <path d="M260.46,149.657 L263.451,149.657 L263.451,166.497 L260.076,166.497 L260.076,153.495 L257.229,155.809 L255.541,153.615 z" fill="#FFFFFF"/>
      <path d="M278.019,152.701 C277.126,152.314 276.212,152.019 275.076,152.019 C272.155,152.019 271.17,154.726 271.072,157.229 L271.121,157.278 C271.916,156.125 272.953,155.591 274.377,155.591 C277.562,155.591 279.299,157.616 279.299,160.731 C279.299,164.373 277.513,166.785 273.702,166.785 C269.022,166.785 267.982,162.904 267.982,158.945 C267.982,154.389 269.455,149.368 274.908,149.368 C276.134,149.368 277.291,149.565 278.454,149.973 L278.019,152.701 z M271.361,161.287 C271.361,162.876 272.039,164.275 273.703,164.275 C275.27,164.275 275.921,162.756 275.921,161.258 C275.921,159.62 275.246,158.101 273.629,158.101 C271.986,158.101 271.361,159.598 271.361,161.287" fill="#FFFFFF"/>
    </g>
    <g>
      <path d="M465.953,337.219 C465.953,337.219 507.703,305.853 529.729,244.195 C551.756,182.538 562.014,110.115 562.052,94.073" fill="#FFFFFF"/>
      <g>
        <path d="M465.953,337.219 C465.953,337.219 507.703,305.853 529.729,244.195 C549.514,188.815 559.803,124.749 561.721,100.655" fill-opacity="0" stroke="#000000" stroke-width="1.5" stroke-dasharray="4.5,3"/>
        <path d="M561.721,100.655 L564.906,103.018 L562.053,94.063 L558.315,102.686 z" fill="#000000" fill-opacity="1" stroke="#000000" stroke-width="1.5" stroke-opacity="1"/>
      </g>
    </g>
    <text transform="matrix(0.223, -0.975, 0.975, 0.223, 535.985, 174)">
      <tspan x="-46.985" y="3.5" font-family="HelveticaNeue-Light" font-size="10" fill="#000000">Population Movement</tspan>
    </text>
    <g>
      <path d="M261.648,110.73 L264.099,96.854 L253.715,87.027 L268.065,85.002 L274.483,72.377 L280.901,85.002 L295.252,87.027 L284.867,96.854 L287.319,110.73 L274.483,104.179 z" fill="#FF0000" fill-opacity="0.126"/>
      <path d="M261.648,110.73 L264.099,96.854 L253.715,87.027 L268.065,85.002 L274.483,72.377 L280.901,85.002 L295.252,87.027 L284.867,96.854 L287.319,110.73 L274.483,104.179 z" fill-opacity="0" stroke="#000000" stroke-width="1" stroke-opacity="0.351"/>
    </g>
  </g>
</svg>
