<?xml version="1.0" encoding="UTF-8" standalone="no"?>
<svg width="17px" height="15px" viewBox="0 0 17 15" version="1.1" xmlns="http://www.w3.org/2000/svg" xmlns:xlink="http://www.w3.org/1999/xlink" xmlns:sketch="http://www.bohemiancoding.com/sketch/ns">
    <!-- Generator: Sketch 3.2.2 (9983) - http://www.bohemiancoding.com/sketch -->
    <title>DispersedPopulation</title>
    <desc>Created with Sketch.</desc>
    <defs></defs>
    <g id="Page-1" stroke="none" stroke-width="1" fill="none" fill-rule="evenodd" sketch:type="MSPage">
        <g id="DispersedPopulation" sketch:type="MSLayerGroup" fill="#1A1918">
            <path d="M6.7742,11.438658 C6.7742,13.2257979 5.3252,14.6749275 3.5342,14.6749275 C1.745,14.6749275 0.2942,13.2257979 0.2942,11.438658 C0.2942,9.65151813 1.745,8.2023886 3.5342,8.2023886 C5.3252,8.2023886 6.7742,9.65151813 6.7742,11.438658 M13.2542,8.2023886 C11.465,8.2023886 10.0142,9.65151813 10.0142,11.438658 C10.0142,13.2257979 11.465,14.6749275 13.2542,14.6749275 C15.0452,14.6749275 16.4942,13.2257979 16.4942,11.438658 C16.4942,9.65151813 15.0452,8.2023886 13.2542,8.2023886 M8.3942,0.652891192 C6.605,0.652891192 5.1542,2.10202073 5.1542,3.88916062 C5.1542,5.67630052 6.605,7.12543005 8.3942,7.12543005 C10.1852,7.12543005 11.6342,5.67630052 11.6342,3.88916062 C11.6342,2.10202073 10.1852,0.652891192 8.3942,0.652891192" id="Fill-1" sketch:type="MSShapeGroup"></path>
        </g>
    </g>
</svg>