<?xml version="1.0" encoding="UTF-8" standalone="no"?>
<svg width="22px" height="23px" viewBox="0 0 22 23" version="1.1" xmlns="http://www.w3.org/2000/svg" xmlns:xlink="http://www.w3.org/1999/xlink" xmlns:sketch="http://www.bohemiancoding.com/sketch/ns">
    <!-- Generator: Sketch 3.2.2 (9983) - http://www.bohemiancoding.com/sketch -->
    <title>Office1</title>
    <desc>Created with Sketch.</desc>
    <defs></defs>
    <g id="Page-1" stroke="none" stroke-width="1" fill="none" fill-rule="evenodd" sketch:type="MSPage">
        <g id="Office1" sketch:type="MSLayerGroup">
            <path d="M21.517,11.4897201 C21.517,17.3149556 16.7981667,22.0392082 10.9753333,22.0392082 C5.1525,22.0392082 0.433666667,17.3149556 0.433666667,11.4897201 C0.433666667,5.66256655 5.1525,0.940232082 10.9753333,0.940232082 C16.7981667,0.940232082 21.517,5.66256655 21.517,11.4897201" id="Fill-9" fill="#FFFFFF" sketch:type="MSShapeGroup"></path>
            <path d="M10.0706667,17.0809488 L10.0706667,15.3949488 L10.0304167,15.3949488 L10.0304167,15.3585051 L9.98825,15.3585051 L9.98825,15.3239795 L9.67966667,15.3239795 L9.67966667,15.2894539 L9.53208333,15.2894539 L9.53208333,15.2510922 L9.44966667,15.2510922 L9.44966667,15.2146485 L9.37108333,15.2146485 L9.37108333,15.1782048 L9.33275,15.1782048 L9.33275,15.1436792 L9.29058333,15.1436792 L9.29058333,15.0842184 L9.24841667,15.0842184 L9.24841667,10.3925734 L9.29058333,10.3925734 L9.29058333,10.2487167 L9.33275,10.2487167 L9.33275,10.1393857 L9.37108333,10.1393857 L9.37108333,10.1048601 L9.41133333,10.1048601 L9.41133333,10.0434812 L9.44966667,10.0434812 L9.44966667,9.93606826 L9.53208333,9.93606826 L9.53208333,9.86701706 L9.55891667,9.86701706 L9.55891667,9.82865529 L9.63941667,9.82865529 L9.63941667,9.80563823 L9.67966667,9.80563823 L9.67966667,9.76919454 L9.72183333,9.76919454 L9.72183333,9.70014334 L9.88283333,9.70014334 L9.88283333,9.66178157 L9.948,9.66178157 L9.948,9.62725597 L9.98825,9.62725597 L9.98825,9.59081229 L10.0706667,9.59081229 L10.0706667,9.5543686 L10.1511667,9.5543686 L10.1511667,9.51792491 L10.1895,9.51792491 L10.1895,9.49490785 L10.21825,9.49490785 L10.21825,9.45846416 L10.3006667,9.45846416 L10.3006667,9.42202048 L10.3370833,9.42202048 L10.3370833,9.38749488 L10.37925,9.38749488 L10.37925,9.34913311 L10.4195,9.34913311 L10.4195,9.28008191 L10.4616667,9.28008191 L10.4616667,8.90989078 L10.4195,8.90989078 L10.4195,8.80055973 L10.37925,8.80055973 L10.37925,8.76603413 L10.3370833,8.76603413 L10.3370833,8.73150853 L10.3006667,8.73150853 L10.3006667,8.65670307 L10.2585,8.65670307 L10.2585,8.59916041 L10.21825,8.59916041 L10.21825,8.52627304 L10.1895,8.52627304 L10.1895,8.45146758 L10.1511667,8.45146758 L10.1511667,8.41886007 L10.1109167,8.41886007 L10.1109167,8.38241638 L10.0706667,8.38241638 L10.0706667,8.28651195 L10.0304167,8.28651195 L10.0304167,8.21362457 L9.98825,8.21362457 L9.98825,8.06976792 L9.948,8.06976792 L9.948,7.79739932 L9.98825,7.79739932 L9.98825,7.69957679 L10.0304167,7.69957679 L10.0304167,7.59216382 L10.0706667,7.59216382 L10.0706667,7.51735836 L10.1109167,7.51735836 L10.1109167,7.44830717 L10.1895,7.44830717 L10.1895,7.38884642 L10.21825,7.38884642 L10.21825,7.31595904 L10.2585,7.31595904 L10.2585,7.27951536 L10.3006667,7.27951536 L10.3006667,7.24498976 L10.4195,7.24498976 L10.4195,7.21046416 L10.4616667,7.21046416 L10.4616667,7.17210239 L10.54025,7.17210239 L10.54025,7.14716724 L10.6073333,7.14716724 L10.6073333,7.11264164 L10.7280833,7.11264164 L10.7280833,7.07811604 L10.9159167,7.07811604 L10.9159167,7.03975427 L10.9983333,7.03975427 L10.9983333,7.07811604 L11.1995833,7.07811604 L11.1995833,7.11264164 L11.305,7.11264164 L11.305,7.14716724 L11.3874167,7.14716724 L11.3874167,7.17210239 L11.4276667,7.17210239 L11.4276667,7.21046416 L11.5081667,7.21046416 L11.5081667,7.24498976 L11.6135833,7.24498976 L11.6135833,7.27951536 L11.65575,7.27951536 L11.65575,7.31595904 L11.696,7.31595904 L11.696,7.38884642 L11.7381667,7.38884642 L11.7381667,7.4252901 L11.7765,7.4252901 L11.7765,7.44830717 L11.81675,7.44830717 L11.81675,7.48283276 L11.857,7.48283276 L11.857,7.55572014 L11.8838333,7.55572014 L11.8838333,7.66121502 L11.9240833,7.66121502 L11.9240833,7.7321843 L11.96625,7.7321843 L11.96625,8.1407372 L11.9240833,8.1407372 L11.9240833,8.25006826 L11.8838333,8.25006826 L11.8838333,8.32295563 L11.857,8.32295563 L11.857,8.38241638 L11.81675,8.38241638 L11.81675,8.41886007 L11.7765,8.41886007 L11.7765,8.48982935 L11.7381667,8.48982935 L11.7381667,8.56079863 L11.696,8.56079863 L11.696,8.63176792 L11.65575,8.63176792 L11.65575,8.69314676 L11.6135833,8.69314676 L11.6135833,8.73150853 L11.57525,8.73150853 L11.57525,8.76603413 L11.5484167,8.76603413 L11.5484167,8.83700341 L11.5081667,8.83700341 L11.5081667,8.90989078 L11.466,8.90989078 L11.466,9.00195904 L11.4276667,9.00195904 L11.4276667,9.21870307 L11.466,9.21870307 L11.466,9.28008191 L11.5081667,9.28008191 L11.5081667,9.34913311 L11.5484167,9.34913311 L11.5484167,9.38749488 L11.57525,9.38749488 L11.57525,9.42202048 L11.6135833,9.42202048 L11.6135833,9.45846416 L11.696,9.45846416 L11.696,9.49490785 L11.7381667,9.49490785 L11.7381667,9.51792491 L11.81675,9.51792491 L11.81675,9.5543686 L11.8838333,9.5543686 L11.8838333,9.59081229 L11.96625,9.59081229 L11.96625,9.62725597 L12.0026667,9.62725597 L12.0026667,9.66178157 L12.0448333,9.66178157 L12.0448333,9.70014334 L12.1675,9.70014334 L12.1675,9.73275085 L12.2058333,9.73275085 L12.2058333,9.76919454 L12.2326667,9.76919454 L12.2326667,9.80563823 L12.3131667,9.80563823 L12.3131667,9.82865529 L12.3553333,9.82865529 L12.3553333,9.86701706 L12.3936667,9.86701706 L12.3936667,9.93606826 L12.4358333,9.93606826 L12.4358333,9.97251195 L12.4760833,9.97251195 L12.4760833,10.0108737 L12.5163333,10.0108737 L12.5163333,10.081843 L12.5431667,10.081843 L12.5431667,10.1393857 L12.5815,10.1393857 L12.5815,10.2103549 L12.6236667,10.2103549 L12.6236667,10.3561297 L12.6639167,10.3561297 L12.6639167,15.118744 L12.6236667,15.118744 L12.6236667,15.1782048 L12.5815,15.1782048 L12.5815,15.2146485 L12.4760833,15.2146485 L12.4760833,15.2510922 L12.3936667,15.2510922 L12.3936667,15.2894539 L12.2748333,15.2894539 L12.2748333,15.3239795 L11.96625,15.3239795 L11.96625,15.3585051 L11.9240833,15.3585051 L11.9240833,15.3949488 L11.8838333,15.3949488 L11.8838333,15.4563276 L11.857,15.4563276 L11.857,17.0464232 L11.81675,17.0464232 L11.81675,17.0809488 L10.0706667,17.0809488 L10.0706667,17.0809488 Z M6.55741667,17.1173925 L6.55741667,17.0809488 L6.78358333,17.0809488 L6.78358333,17.0445051 L6.82383333,17.0445051 L6.82383333,17.0099795 L6.90625,17.0099795 L6.90625,16.9735358 L7.01358333,16.9735358 L7.01358333,16.9025666 L7.05383333,16.9025666 L7.05383333,16.7356928 L7.09408333,16.7356928 L7.09408333,15.5599044 L7.05383333,15.5599044 L7.05383333,14.4972833 L7.09408333,14.4972833 L7.09408333,14.0753038 L7.13241667,14.0753038 L7.13241667,13.90843 L7.17458333,13.90843 L7.17458333,13.7300478 L7.21291667,13.7300478 L7.21291667,13.6571604 L7.25508333,13.6571604 L7.25508333,13.5267304 L7.28191667,13.5267304 L7.28191667,13.4193174 L7.32025,13.4193174 L7.32025,13.3828737 L7.36241667,13.3828737 L7.36241667,13.3253311 L7.40266667,13.3253311 L7.40266667,13.2524437 L7.44291667,13.2524437 L7.44291667,13.216 L7.48316667,13.216 L7.48316667,13.1450307 L7.5215,13.1450307 L7.5215,13.0107645 L7.56175,13.0107645 L7.56175,12.9397952 L7.5905,12.9397952 L7.5905,12.8343003 L7.63075,12.8343003 L7.63075,12.761413 L7.671,12.761413 L7.671,12.7019522 L7.70933333,12.7019522 L7.70933333,12.5945392 L7.7515,12.5945392 L7.7515,12.5197338 L7.79175,12.5197338 L7.79175,12.3183345 L7.83391667,12.3183345 L7.83391667,12.2090034 L7.87225,12.2090034 L7.87225,12.1169352 L7.9125,12.1169352 L7.9125,12.005686 L7.93933333,12.005686 L7.93933333,11.898273 L7.97958333,11.898273 L7.97958333,11.767843 L8.01983333,11.767843 L8.01983333,11.66043 L8.06008333,11.66043 L8.06008333,11.3861433 L8.09841667,11.3861433 L8.09841667,11.2518771 L8.14058333,11.2518771 L8.14058333,11.1463823 L8.18083333,11.1463823 L8.18083333,11.0025256 L8.223,11.0025256 L8.223,10.8701775 L8.24791667,10.8701775 L8.24791667,10.6304164 L8.28625,10.6304164 L8.28625,10.5230034 L8.32841667,10.5230034 L8.32841667,10.3925734 L8.36866667,10.3925734 L8.36866667,10.319686 L8.40891667,10.319686 L8.40891667,10.2103549 L8.45108333,10.2103549 L8.45108333,10.1393857 L8.4875,10.1393857 L8.4875,9.93606826 L8.52775,9.93606826 L8.52775,9.86509898 L8.56991667,9.86509898 L8.56991667,9.76919454 L8.59675,9.76919454 L8.59675,9.69822526 L8.63891667,9.69822526 L8.63891667,9.62533788 L8.67725,9.62533788 L8.67725,9.51792491 L8.71941667,9.51792491 L8.71941667,9.45846416 L8.75775,9.45846416 L8.75775,9.28008191 L8.798,9.28008191 L8.798,9.21870307 L8.83825,9.21870307 L8.83825,9.1112901 L8.8785,9.1112901 L8.8785,9.00195904 L8.90533333,9.00195904 L8.90533333,8.9079727 L8.9475,8.9079727 L8.9475,8.80055973 L8.98583333,8.80055973 L8.98583333,8.56079863 L9.02608333,8.56079863 L9.02608333,8.41886007 L9.06633333,8.41886007 L9.06633333,7.9028942 L9.02608333,7.9028942 L9.02608333,7.75903754 L8.98583333,7.75903754 L8.98583333,7.66121502 L8.9475,7.66121502 L8.9475,7.62860751 L8.90533333,7.62860751 L8.90533333,7.59216382 L8.8785,7.59216382 L8.8785,7.55572014 L8.67725,7.55572014 L8.67725,7.59216382 L8.59675,7.59216382 L8.59675,7.62860751 L8.52775,7.62860751 L8.52775,7.66121502 L8.4875,7.66121502 L8.4875,7.69957679 L8.45108333,7.69957679 L8.45108333,7.7321843 L8.40891667,7.7321843 L8.40891667,7.75903754 L8.36866667,7.75903754 L8.36866667,7.79548123 L8.28625,7.79548123 L8.28625,7.86645051 L8.24791667,7.86645051 L8.24791667,7.93933788 L8.223,7.93933788 L8.223,7.97386348 L8.18083333,7.97386348 L8.18083333,8.04291468 L8.14058333,8.04291468 L8.14058333,8.1062116 L8.09841667,8.1062116 L8.09841667,8.1407372 L8.06008333,8.1407372 L8.06008333,8.32103754 L8.01983333,8.32103754 L8.01983333,8.38241638 L7.97958333,8.38241638 L7.97958333,8.41886007 L7.93933333,8.41886007 L7.93933333,8.48982935 L7.9125,8.48982935 L7.9125,8.59916041 L7.87225,8.59916041 L7.87225,8.65670307 L7.83391667,8.65670307 L7.83391667,8.76603413 L7.79175,8.76603413 L7.79175,8.93098976 L7.7515,8.93098976 L7.7515,9.00195904 L7.70933333,9.00195904 L7.70933333,9.1112901 L7.671,9.1112901 L7.671,9.21870307 L7.63075,9.21870307 L7.63075,9.28008191 L7.5905,9.28008191 L7.5905,9.38749488 L7.56175,9.38749488 L7.56175,9.45846416 L7.5215,9.45846416 L7.5215,9.66178157 L7.48316667,9.66178157 L7.48316667,9.69822526 L7.44291667,9.69822526 L7.44291667,9.76919454 L7.40266667,9.76919454 L7.40266667,9.86509898 L7.36241667,9.86509898 L7.36241667,9.90346075 L7.32025,9.90346075 L7.32025,9.97251195 L7.28191667,9.97251195 L7.28191667,10.081843 L7.25508333,10.081843 L7.25508333,10.1393857 L7.17458333,10.1393857 L7.17458333,10.1758294 L7.13241667,10.1758294 L7.13241667,10.2103549 L7.09408333,10.2103549 L7.09408333,10.2487167 L7.01358333,10.2487167 L7.01358333,10.2832423 L6.93308333,10.2832423 L6.93308333,10.319686 L6.82383333,10.319686 L6.82383333,10.2832423 L6.74525,10.2832423 L6.74525,10.2487167 L6.705,10.2487167 L6.705,10.1393857 L6.66475,10.1393857 L6.66475,10.081843 L6.6245,10.081843 L6.6245,9.93606826 L6.59575,9.93606826 L6.59575,9.42202048 L6.6245,9.42202048 L6.6245,9.24172014 L6.66475,9.24172014 L6.66475,9.1112901 L6.705,9.1112901 L6.705,9.00195904 L6.74525,9.00195904 L6.74525,8.93098976 L6.78358333,8.93098976 L6.78358333,8.87152901 L6.82383333,8.87152901 L6.82383333,8.72959044 L6.866,8.72959044 L6.866,8.65670307 L6.90625,8.65670307 L6.90625,8.59916041 L6.93308333,8.59916041 L6.93308333,8.56079863 L6.97141667,8.56079863 L6.97141667,8.52627304 L7.01358333,8.52627304 L7.01358333,8.38241638 L7.09408333,8.38241638 L7.09408333,8.32103754 L7.13241667,8.32103754 L7.13241667,8.28651195 L7.17458333,8.28651195 L7.17458333,8.21170648 L7.21291667,8.21170648 L7.21291667,8.17718089 L7.25508333,8.17718089 L7.25508333,8.1407372 L7.28191667,8.1407372 L7.28191667,8.06976792 L7.32025,8.06976792 L7.32025,8.04291468 L7.36241667,8.04291468 L7.36241667,8.01222526 L7.40266667,8.01222526 L7.40266667,7.93933788 L7.48316667,7.93933788 L7.48316667,7.9028942 L7.5215,7.9028942 L7.5215,7.86645051 L7.56175,7.86645051 L7.56175,7.83000683 L7.5905,7.83000683 L7.5905,7.79548123 L7.63075,7.79548123 L7.63075,7.75903754 L7.671,7.75903754 L7.671,7.7321843 L7.70933333,7.7321843 L7.70933333,7.69957679 L7.79175,7.69957679 L7.79175,7.66121502 L7.83391667,7.66121502 L7.83391667,7.62860751 L7.9125,7.62860751 L7.9125,7.59216382 L7.93933333,7.59216382 L7.93933333,7.55572014 L7.97958333,7.55572014 L7.97958333,7.51735836 L8.06008333,7.51735836 L8.06008333,7.44830717 L8.14058333,7.44830717 L8.14058333,7.4252901 L8.223,7.4252901 L8.223,7.38884642 L8.24791667,7.38884642 L8.24791667,7.31595904 L8.32841667,7.31595904 L8.32841667,7.27951536 L8.36866667,7.27951536 L8.36866667,7.24498976 L8.4875,7.24498976 L8.4875,7.17210239 L8.56991667,7.17210239 L8.56991667,7.14716724 L8.59675,7.14716724 L8.59675,7.11264164 L8.63891667,7.11264164 L8.63891667,7.07811604 L8.71941667,7.07811604 L8.71941667,7.03975427 L8.75775,7.03975427 L8.75775,7.00522867 L8.798,7.00522867 L8.798,6.96878498 L8.8785,6.96878498 L8.8785,6.9323413 L8.90533333,6.9323413 L8.90533333,6.89973379 L8.9475,6.89973379 L8.9475,6.86137201 L8.98583333,6.86137201 L8.98583333,6.83835495 L9.02608333,6.83835495 L9.02608333,6.80191126 L9.14683333,6.80191126 L9.14683333,6.76546758 L9.189,6.76546758 L9.189,6.72902389 L9.22541667,6.72902389 L9.22541667,6.69449829 L9.25608333,6.69449829 L9.25608333,6.62161092 L9.33658333,6.62161092 L9.33658333,6.58708532 L9.37491667,6.58708532 L9.37491667,6.56023208 L9.45733333,6.56023208 L9.45733333,6.49118089 L9.53783333,6.49118089 L9.53783333,6.45281911 L9.56275,6.45281911 L9.56275,6.4202116 L9.603,6.4202116 L9.603,6.38184983 L9.6835,6.38184983 L9.6835,6.34732423 L9.72566667,6.34732423 L9.72566667,6.27635495 L9.76208333,6.27635495 L9.76208333,6.2514198 L9.80425,6.2514198 L9.80425,6.21305802 L9.8445,6.21305802 L9.8445,6.17853242 L9.88666667,6.17853242 L9.88666667,6.14208874 L9.95183333,6.14208874 L9.95183333,6.07111945 L9.994,6.07111945 L9.994,6.03467577 L10.03425,6.03467577 L10.03425,5.99823208 L10.0745,5.99823208 L10.0745,5.97521502 L10.11475,5.97521502 L10.11475,5.94068942 L10.1933333,5.94068942 L10.1933333,5.90424573 L10.2220833,5.90424573 L10.2220833,5.79683276 L10.2623333,5.79683276 L10.2623333,5.76038908 L10.3025833,5.76038908 L10.3025833,5.72586348 L10.3409167,5.72586348 L10.3409167,5.6894198 L10.3830833,5.6894198 L10.3830833,5.66256655 L10.4233333,5.66256655 L10.4233333,5.59351536 L10.4635833,5.59351536 L10.4635833,5.48610239 L10.5019167,5.48610239 L10.5019167,5.44774061 L10.5421667,5.44774061 L10.5421667,5.39019795 L10.569,5.39019795 L10.569,5.31922867 L10.6111667,5.31922867 L10.6111667,5.24442321 L10.6514167,5.24442321 L10.6514167,5.17345392 L10.68975,5.17345392 L10.68975,5.07754949 L10.73,5.07754949 L10.73,4.62296246 L10.68975,4.62296246 L10.68975,4.55199317 L10.6514167,4.55199317 L10.6514167,4.51746758 L10.6111667,4.51746758 L10.6111667,4.49061433 L10.569,4.49061433 L10.569,4.45417065 L10.4635833,4.45417065 L10.4635833,4.49061433 L10.3409167,4.49061433 L10.3409167,4.51746758 L10.2623333,4.51746758 L10.2623333,4.55199317 L10.1933333,4.55199317 L10.1933333,4.62296246 L10.0745,4.62296246 L10.0745,4.65748805 L9.994,4.65748805 L9.994,4.69393174 L9.95183333,4.69393174 L9.95183333,4.7687372 L9.88666667,4.7687372 L9.88666667,4.79175427 L9.80425,4.79175427 L9.80425,4.82627986 L9.76208333,4.82627986 L9.76208333,4.86080546 L9.72566667,4.86080546 L9.72566667,4.89916724 L9.6835,4.89916724 L9.6835,4.93369283 L9.64516667,4.93369283 L9.64516667,4.97013652 L9.603,4.97013652 L9.603,5.00849829 L9.53783333,5.00849829 L9.53783333,5.03918771 L9.45733333,5.03918771 L9.45733333,5.10056655 L9.41516667,5.10056655 L9.41516667,5.13701024 L9.37491667,5.13701024 L9.37491667,5.17345392 L9.33658333,5.17345392 L9.33658333,5.2118157 L9.29441667,5.2118157 L9.29441667,5.24442321 L9.25608333,5.24442321 L9.25608333,5.28086689 L9.22541667,5.28086689 L9.22541667,5.31922867 L9.189,5.31922867 L9.189,5.35183618 L9.14683333,5.35183618 L9.14683333,5.39019795 L9.1085,5.39019795 L9.1085,5.41321502 L9.06633333,5.41321502 L9.06633333,5.44774061 L8.98583333,5.44774061 L8.98583333,5.52062799 L8.90533333,5.52062799 L8.90533333,5.59351536 L8.8785,5.59351536 L8.8785,5.62995904 L8.83825,5.62995904 L8.83825,5.66256655 L8.798,5.66256655 L8.798,5.6894198 L8.75775,5.6894198 L8.75775,5.72586348 L8.71941667,5.72586348 L8.71941667,5.76038908 L8.67725,5.76038908 L8.67725,5.79683276 L8.63891667,5.79683276 L8.63891667,5.83135836 L8.59675,5.83135836 L8.59675,5.86780205 L8.56991667,5.86780205 L8.56991667,5.90424573 L8.52775,5.90424573 L8.52775,5.94068942 L8.4875,5.94068942 L8.4875,5.97521502 L8.40891667,5.97521502 L8.40891667,5.99823208 L8.36866667,5.99823208 L8.36866667,6.03467577 L8.32841667,6.03467577 L8.32841667,6.07111945 L8.28625,6.07111945 L8.28625,6.10948123 L8.24791667,6.10948123 L8.24791667,6.14208874 L8.223,6.14208874 L8.223,6.17853242 L8.18083333,6.17853242 L8.18083333,6.21305802 L8.14058333,6.21305802 L8.14058333,6.2514198 L8.06008333,6.2514198 L8.06008333,6.31088055 L8.01983333,6.31088055 L8.01983333,6.34732423 L7.97958333,6.34732423 L7.97958333,6.38184983 L7.9125,6.38184983 L7.9125,6.4202116 L7.83391667,6.4202116 L7.83391667,6.45281911 L7.79175,6.45281911 L7.79175,6.52570648 L7.7515,6.52570648 L7.7515,6.56023208 L7.671,6.56023208 L7.671,6.58708532 L7.5905,6.58708532 L7.5905,6.62161092 L7.56175,6.62161092 L7.56175,6.65805461 L7.5215,6.65805461 L7.5215,6.72902389 L7.48316667,6.72902389 L7.48316667,6.76546758 L7.44291667,6.76546758 L7.44291667,6.80191126 L7.32025,6.80191126 L7.32025,6.83835495 L7.28191667,6.83835495 L7.28191667,6.89973379 L7.25508333,6.89973379 L7.25508333,6.9323413 L7.21291667,6.9323413 L7.21291667,6.96878498 L7.17458333,6.96878498 L7.17458333,7.00522867 L7.05383333,7.00522867 L7.05383333,7.03975427 L7.01358333,7.03975427 L7.01358333,7.11264164 L6.97141667,7.11264164 L6.97141667,7.14716724 L6.93308333,7.14716724 L6.93308333,7.17210239 L6.90625,7.17210239 L6.90625,7.21046416 L6.866,7.21046416 L6.866,7.24498976 L6.78358333,7.24498976 L6.78358333,7.27951536 L6.74525,7.27951536 L6.74525,7.31595904 L6.705,7.31595904 L6.705,7.35048464 L6.66475,7.35048464 L6.66475,7.38884642 L6.6245,7.38884642 L6.6245,7.4252901 L6.59575,7.4252901 L6.59575,7.44830717 L6.55741667,7.44830717 L6.55741667,7.48283276 L6.51716667,7.48283276 L6.51716667,7.51735836 L6.43475,7.51735836 L6.43475,7.55572014 L6.39641667,7.55572014 L6.39641667,7.59216382 L6.35616667,7.59216382 L6.35616667,7.62860751 L6.31591667,7.62860751 L6.31591667,7.69957679 L6.245,7.69957679 L6.245,7.7321843 L6.20858333,7.7321843 L6.20858333,7.75903754 L6.16641667,7.75903754 L6.16641667,7.79548123 L6.12808333,7.79548123 L6.12808333,7.83000683 L6.08591667,7.83000683 L6.08591667,7.86645051 L6.04566667,7.86645051 L6.04566667,7.93933788 L5.96708333,7.93933788 L5.96708333,7.97386348 L5.94025,7.97386348 L5.94025,8.01222526 L5.89808333,8.01222526 L5.89808333,8.04291468 L5.85783333,8.04291468 L5.85783333,8.06976792 L5.8195,8.06976792 L5.8195,8.1407372 L5.739,8.1407372 L5.739,8.17718089 L5.69683333,8.17718089 L5.69683333,8.21170648 L5.65658333,8.21170648 L5.65658333,8.24815017 L5.61633333,8.24815017 L5.61633333,8.32103754 L5.54733333,8.32103754 L5.54733333,8.38241638 L5.46683333,8.38241638 L5.46683333,8.41886007 L5.43041667,8.41886007 L5.43041667,8.45146758 L5.38825,8.45146758 L5.38825,8.48982935 L5.34991667,8.48982935 L5.34991667,8.59916041 L5.28091667,8.59916041 L5.28091667,8.63176792 L5.24258333,8.63176792 L5.24258333,8.65670307 L5.20233333,8.65670307 L5.20233333,8.69122867 L5.16016667,8.69122867 L5.16016667,8.76603413 L5.07775,8.76603413 L5.07775,8.83508532 L5.04133333,8.83508532 L5.04133333,8.9079727 L4.99916667,8.9079727 L4.99916667,8.93098976 L4.96083333,8.93098976 L4.96083333,9.00195904 L4.89183333,9.00195904 L4.89183333,9.03840273 L4.8535,9.03840273 L4.8535,9.18225939 L4.81133333,9.18225939 L4.81133333,9.24172014 L4.72891667,9.24172014 L4.72891667,9.38749488 L4.69058333,9.38749488 L4.69058333,9.59081229 L4.65033333,9.59081229 L4.65033333,11.6949556 L4.69058333,11.6949556 L4.69058333,12.3893038 L4.72891667,12.3893038 L4.72891667,12.9762389 L4.77108333,12.9762389 L4.77108333,13.4576792 L4.81133333,13.4576792 L4.81133333,13.90843 L4.8535,13.90843 L4.8535,14.5931877 L4.89183333,14.5931877 L4.89183333,14.8329488 L4.93208333,14.8329488 L4.93208333,15.118744 L4.96083333,15.118744 L4.96083333,15.3930307 L4.99916667,15.3930307 L4.99916667,15.6711536 L5.04133333,15.6711536 L5.04133333,16.004901 L5.07775,16.004901 L5.07775,16.9735358 L5.34991667,16.9735358 L5.34991667,17.0099795 L5.54733333,17.0099795 L5.54733333,17.0445051 L5.77733333,17.0445051 L5.77733333,17.0809488 L6.04566667,17.0809488 L6.04566667,17.1173925 L6.55741667,17.1173925 L6.55741667,17.1173925 Z M15.8666667,17.1173925 L15.8666667,17.0809488 L16.1465,17.0809488 L16.1465,17.0445051 L16.3343333,17.0445051 L16.3343333,17.0099795 L16.5643333,17.0099795 L16.5643333,16.9735358 L16.8058333,16.9735358 L16.8058333,16.6973311 L16.8326667,16.6973311 L16.8326667,16.1487577 L16.8729167,16.1487577 L16.8729167,15.7632218 L16.9131667,15.7632218 L16.9131667,15.4563276 L16.9534167,15.4563276 L16.9534167,15.2146485 L16.9936667,15.2146485 L16.9936667,14.9384437 L17.0339167,14.9384437 L17.0339167,14.6277133 L17.0741667,14.6277133 L17.0741667,14.0407782 L17.1125,14.0407782 L17.1125,13.6360614 L17.14125,13.6360614 L17.14125,13.1066689 L17.1834167,13.1066689 L17.1834167,12.5945392 L17.22175,12.5945392 L17.22175,11.9366348 L17.262,11.9366348 L17.262,11.0370512 L17.3003333,11.0370512 L17.3003333,9.90346075 L17.262,9.90346075 L17.262,9.49490785 L17.22175,9.49490785 L17.22175,9.34913311 L17.1834167,9.34913311 L17.1834167,9.24172014 L17.14125,9.24172014 L17.14125,9.21870307 L17.1125,9.21870307 L17.1125,9.14773379 L17.0741667,9.14773379 L17.0741667,9.03840273 L17.0339167,9.03840273 L17.0339167,9.00195904 L16.9936667,9.00195904 L16.9936667,8.96935154 L16.9534167,8.96935154 L16.9534167,8.93098976 L16.9131667,8.93098976 L16.9131667,8.87152901 L16.8729167,8.87152901 L16.8729167,8.83508532 L16.8326667,8.83508532 L16.8326667,8.80055973 L16.8058333,8.80055973 L16.8058333,8.72959044 L16.7655833,8.72959044 L16.7655833,8.69122867 L16.7234167,8.69122867 L16.7234167,8.65670307 L16.687,8.65670307 L16.687,8.59916041 L16.6065,8.59916041 L16.6065,8.56079863 L16.5643333,8.56079863 L16.5643333,8.48982935 L16.5240833,8.48982935 L16.5240833,8.45146758 L16.4838333,8.45146758 L16.4838333,8.41886007 L16.4589167,8.41886007 L16.4589167,8.38241638 L16.3765,8.38241638 L16.3765,8.3459727 L16.3343333,8.3459727 L16.3343333,8.32103754 L16.2979167,8.32103754 L16.2979167,8.24815017 L16.25575,8.24815017 L16.25575,8.17718089 L16.2155,8.17718089 L16.2155,8.1407372 L16.1465,8.1407372 L16.1465,8.1062116 L16.10625,8.1062116 L16.10625,8.04291468 L16.0679167,8.04291468 L16.0679167,8.01222526 L16.0276667,8.01222526 L16.0276667,7.97386348 L15.9855,7.97386348 L15.9855,7.93933788 L15.9069167,7.93933788 L15.9069167,7.9028942 L15.8666667,7.9028942 L15.8666667,7.83000683 L15.8264167,7.83000683 L15.8264167,7.79548123 L15.7574167,7.79548123 L15.7574167,7.75903754 L15.7190833,7.75903754 L15.7190833,7.7321843 L15.6788333,7.7321843 L15.6788333,7.69957679 L15.5964167,7.69957679 L15.5964167,7.62860751 L15.5561667,7.62860751 L15.5561667,7.59216382 L15.5178333,7.59216382 L15.5178333,7.55572014 L15.491,7.55572014 L15.491,7.51735836 L15.4488333,7.51735836 L15.4488333,7.48283276 L15.4085833,7.48283276 L15.4085833,7.44830717 L15.33,7.44830717 L15.33,7.4252901 L15.28975,7.4252901 L15.28975,7.38884642 L15.2475833,7.38884642 L15.2475833,7.35048464 L15.2073333,7.35048464 L15.2073333,7.31595904 L15.169,7.31595904 L15.169,7.27951536 L15.1421667,7.27951536 L15.1421667,7.24498976 L15.1019167,7.24498976 L15.1019167,7.21046416 L15.05975,7.21046416 L15.05975,7.17210239 L15.0214167,7.17210239 L15.0214167,7.14716724 L14.9409167,7.14716724 L14.9409167,7.11264164 L14.9006667,7.11264164 L14.9006667,7.03975427 L14.8316667,7.03975427 L14.8316667,7.00522867 L14.7933333,7.00522867 L14.7933333,6.96878498 L14.7530833,6.96878498 L14.7530833,6.9323413 L14.6706667,6.9323413 L14.6706667,6.89973379 L14.6304167,6.89973379 L14.6304167,6.83835495 L14.5920833,6.83835495 L14.5920833,6.80191126 L14.5115833,6.80191126 L14.5115833,6.76546758 L14.4828333,6.76546758 L14.4828333,6.72902389 L14.4023333,6.72902389 L14.4023333,6.65805461 L14.364,6.65805461 L14.364,6.62161092 L14.3218333,6.62161092 L14.3218333,6.58708532 L14.2815833,6.58708532 L14.2815833,6.56023208 L14.17425,6.56023208 L14.17425,6.52570648 L14.134,6.52570648 L14.134,6.45281911 L14.09375,6.45281911 L14.09375,6.4202116 L14.0554167,6.4202116 L14.0554167,6.38184983 L13.93275,6.38184983 L13.93275,6.34732423 L13.8925,6.34732423 L13.8925,6.31088055 L13.8541667,6.31088055 L13.8541667,6.2514198 L13.8273333,6.2514198 L13.8273333,6.21305802 L13.7851667,6.21305802 L13.7851667,6.17853242 L13.7046667,6.17853242 L13.7046667,6.14208874 L13.6241667,6.14208874 L13.6241667,6.07111945 L13.5858333,6.07111945 L13.5858333,6.03467577 L13.54175,6.03467577 L13.54175,5.99823208 L13.5149167,5.99823208 L13.5149167,5.97521502 L13.4785,5.97521502 L13.4785,5.94068942 L13.4363333,5.94068942 L13.4363333,5.90424573 L13.3539167,5.90424573 L13.3539167,5.83135836 L13.3155833,5.83135836 L13.3155833,5.79683276 L13.2753333,5.79683276 L13.2753333,5.76038908 L13.237,5.76038908 L13.237,5.72586348 L13.1948333,5.72586348 L13.1948333,5.6894198 L13.168,5.6894198 L13.168,5.66256655 L13.12775,5.66256655 L13.12775,5.62995904 L13.0894167,5.62995904 L13.0894167,5.59351536 L13.04725,5.59351536 L13.04725,5.55898976 L13.007,5.55898976 L13.007,5.52062799 L12.9648333,5.52062799 L12.9648333,5.48610239 L12.9284167,5.48610239 L12.9284167,5.44774061 L12.88625,5.44774061 L12.88625,5.41321502 L12.8594167,5.41321502 L12.8594167,5.39019795 L12.8191667,5.39019795 L12.8191667,5.35183618 L12.7789167,5.35183618 L12.7789167,5.31922867 L12.7386667,5.31922867 L12.7386667,5.28086689 L12.7003333,5.28086689 L12.7003333,5.24442321 L12.6179167,5.24442321 L12.6179167,5.2118157 L12.57575,5.2118157 L12.57575,5.17345392 L12.5393333,5.17345392 L12.5393333,5.13701024 L12.5125,5.13701024 L12.5125,5.10056655 L12.4703333,5.10056655 L12.4703333,5.07754949 L12.4281667,5.07754949 L12.4281667,5.03918771 L12.3898333,5.03918771 L12.3898333,5.00849829 L12.31125,5.00849829 L12.31125,4.97013652 L12.2690833,4.97013652 L12.2690833,4.93369283 L12.2288333,4.93369283 L12.2288333,4.89916724 L12.202,4.89916724 L12.202,4.86080546 L12.16175,4.86080546 L12.16175,4.79175427 L12.041,4.79175427 L12.041,4.7687372 L11.9988333,4.7687372 L11.9988333,4.73229352 L11.9624167,4.73229352 L11.9624167,4.69393174 L11.92025,4.69393174 L11.92025,4.65748805 L11.8780833,4.65748805 L11.8780833,4.62296246 L11.7324167,4.62296246 L11.7324167,4.55199317 L11.65,4.55199317 L11.65,4.51746758 L11.5714167,4.51746758 L11.5714167,4.49061433 L11.4621667,4.49061433 L11.4621667,4.45417065 L11.3433333,4.45417065 L11.3433333,4.49061433 L11.3011667,4.49061433 L11.3011667,4.51746758 L11.2628333,4.51746758 L11.2628333,4.55199317 L11.2225833,4.55199317 L11.2225833,4.62296246 L11.1938333,4.62296246 L11.1938333,5.03918771 L11.2225833,5.03918771 L11.2225833,5.13701024 L11.2628333,5.13701024 L11.2628333,5.24442321 L11.3011667,5.24442321 L11.3011667,5.31922867 L11.3433333,5.31922867 L11.3433333,5.39019795 L11.3835833,5.39019795 L11.3835833,5.44774061 L11.42575,5.44774061 L11.42575,5.52062799 L11.4621667,5.52062799 L11.4621667,5.59351536 L11.5043333,5.59351536 L11.5043333,5.62995904 L11.5445833,5.62995904 L11.5445833,5.6894198 L11.6116667,5.6894198 L11.6116667,5.72586348 L11.65,5.72586348 L11.65,5.79683276 L11.69025,5.79683276 L11.69025,5.86780205 L11.7324167,5.86780205 L11.7324167,5.90424573 L11.7726667,5.90424573 L11.7726667,5.94068942 L11.8129167,5.94068942 L11.8129167,5.97521502 L11.85125,5.97521502 L11.85125,5.99823208 L11.8780833,5.99823208 L11.8780833,6.03467577 L11.92025,6.03467577 L11.92025,6.07111945 L11.9624167,6.07111945 L11.9624167,6.14208874 L12.041,6.14208874 L12.041,6.17853242 L12.0793333,6.17853242 L12.0793333,6.21305802 L12.1234167,6.21305802 L12.1234167,6.2514198 L12.16175,6.2514198 L12.16175,6.31088055 L12.202,6.31088055 L12.202,6.34732423 L12.2288333,6.34732423 L12.2288333,6.38184983 L12.3495833,6.38184983 L12.3495833,6.4202116 L12.3898333,6.4202116 L12.3898333,6.49118089 L12.4281667,6.49118089 L12.4281667,6.52570648 L12.4703333,6.52570648 L12.4703333,6.56023208 L12.57575,6.56023208 L12.57575,6.58708532 L12.6179167,6.58708532 L12.6179167,6.62161092 L12.6581667,6.62161092 L12.6581667,6.69449829 L12.7003333,6.69449829 L12.7003333,6.72902389 L12.7789167,6.72902389 L12.7789167,6.76546758 L12.8191667,6.76546758 L12.8191667,6.80191126 L12.88625,6.80191126 L12.88625,6.83835495 L12.9284167,6.83835495 L12.9284167,6.86137201 L12.9648333,6.86137201 L12.9648333,6.89973379 L13.007,6.89973379 L13.007,6.9323413 L13.0894167,6.9323413 L13.0894167,6.96878498 L13.12775,6.96878498 L13.12775,7.00522867 L13.168,7.00522867 L13.168,7.03975427 L13.237,7.03975427 L13.237,7.07811604 L13.2753333,7.07811604 L13.2753333,7.11264164 L13.3155833,7.11264164 L13.3155833,7.14716724 L13.3539167,7.14716724 L13.3539167,7.17210239 L13.4363333,7.17210239 L13.4363333,7.24498976 L13.54175,7.24498976 L13.54175,7.27951536 L13.5858333,7.27951536 L13.5858333,7.31595904 L13.6241667,7.31595904 L13.6241667,7.35048464 L13.6663333,7.35048464 L13.6663333,7.38884642 L13.7449167,7.38884642 L13.7449167,7.4252901 L13.7851667,7.4252901 L13.7851667,7.44830717 L13.8541667,7.44830717 L13.8541667,7.48283276 L13.8925,7.48283276 L13.8925,7.51735836 L13.93275,7.51735836 L13.93275,7.55572014 L13.9749167,7.55572014 L13.9749167,7.59216382 L14.0554167,7.59216382 L14.0554167,7.62860751 L14.09375,7.62860751 L14.09375,7.66121502 L14.134,7.66121502 L14.134,7.69957679 L14.203,7.69957679 L14.203,7.7321843 L14.2413333,7.7321843 L14.2413333,7.75903754 L14.2815833,7.75903754 L14.2815833,7.79548123 L14.3218333,7.79548123 L14.3218333,7.83000683 L14.4023333,7.83000683 L14.4023333,7.9028942 L14.4445,7.9028942 L14.4445,7.93933788 L14.5115833,7.93933788 L14.5115833,7.97386348 L14.5518333,7.97386348 L14.5518333,8.01222526 L14.5920833,8.01222526 L14.5920833,8.06976792 L14.6304167,8.06976792 L14.6304167,8.1407372 L14.7109167,8.1407372 L14.7109167,8.21170648 L14.7530833,8.21170648 L14.7530833,8.24815017 L14.7933333,8.24815017 L14.7933333,8.32103754 L14.8316667,8.32103754 L14.8316667,8.38241638 L14.9006667,8.38241638 L14.9006667,8.48982935 L14.9409167,8.48982935 L14.9409167,8.56079863 L14.9811667,8.56079863 L14.9811667,8.59916041 L15.0214167,8.59916041 L15.0214167,8.63176792 L15.05975,8.63176792 L15.05975,8.72959044 L15.1019167,8.72959044 L15.1019167,8.83508532 L15.1421667,8.83508532 L15.1421667,8.9079727 L15.169,8.9079727 L15.169,9.00195904 L15.2073333,9.00195904 L15.2073333,9.07676451 L15.2475833,9.07676451 L15.2475833,9.21870307 L15.28975,9.21870307 L15.28975,9.34913311 L15.33,9.34913311 L15.33,9.97251195 L15.28975,9.97251195 L15.28975,10.1048601 L15.2475833,10.1048601 L15.2475833,10.1758294 L15.2073333,10.1758294 L15.2073333,10.2487167 L15.169,10.2487167 L15.169,10.2832423 L15.1019167,10.2832423 L15.1019167,10.319686 L14.9811667,10.319686 L14.9811667,10.2832423 L14.9006667,10.2832423 L14.9006667,10.2487167 L14.8316667,10.2487167 L14.8316667,10.2103549 L14.7933333,10.2103549 L14.7933333,10.1758294 L14.7530833,10.1758294 L14.7530833,10.1393857 L14.7109167,10.1393857 L14.7109167,10.1048601 L14.6706667,10.1048601 L14.6706667,10.081843 L14.6304167,10.081843 L14.6304167,9.97251195 L14.5920833,9.97251195 L14.5920833,9.90346075 L14.5518333,9.90346075 L14.5518333,9.82865529 L14.5115833,9.82865529 L14.5115833,9.76919454 L14.4828333,9.76919454 L14.4828333,9.69822526 L14.4445,9.69822526 L14.4445,9.62533788 L14.4023333,9.62533788 L14.4023333,9.45846416 L14.364,9.45846416 L14.364,9.34913311 L14.3218333,9.34913311 L14.3218333,9.24172014 L14.2815833,9.24172014 L14.2815833,9.18225939 L14.2413333,9.18225939 L14.2413333,9.07676451 L14.203,9.07676451 L14.203,9.00195904 L14.17425,9.00195904 L14.17425,8.9079727 L14.134,8.9079727 L14.134,8.72959044 L14.09375,8.72959044 L14.09375,8.63176792 L14.0554167,8.63176792 L14.0554167,8.56079863 L14.0151667,8.56079863 L14.0151667,8.48982935 L13.9749167,8.48982935 L13.9749167,8.38241638 L13.93275,8.38241638 L13.93275,8.3459727 L13.8925,8.3459727 L13.8925,8.28651195 L13.8541667,8.28651195 L13.8541667,8.1407372 L13.8273333,8.1407372 L13.8273333,8.06976792 L13.7851667,8.06976792 L13.7851667,8.01222526 L13.7449167,8.01222526 L13.7449167,7.97386348 L13.7046667,7.97386348 L13.7046667,7.93933788 L13.6663333,7.93933788 L13.6663333,7.9028942 L13.6241667,7.9028942 L13.6241667,7.79548123 L13.5858333,7.79548123 L13.5858333,7.75903754 L13.54175,7.75903754 L13.54175,7.7321843 L13.5149167,7.7321843 L13.5149167,7.69957679 L13.4363333,7.69957679 L13.4363333,7.66121502 L13.3539167,7.66121502 L13.3539167,7.62860751 L13.3155833,7.62860751 L13.3155833,7.59216382 L13.237,7.59216382 L13.237,7.55572014 L13.04725,7.55572014 L13.04725,7.59216382 L13.007,7.59216382 L13.007,7.62860751 L12.9648333,7.62860751 L12.9648333,7.69957679 L12.9284167,7.69957679 L12.9284167,7.7321843 L12.88625,7.7321843 L12.88625,7.93933788 L12.8594167,7.93933788 L12.8594167,8.32103754 L12.88625,8.32103754 L12.88625,8.63176792 L12.9284167,8.63176792 L12.9284167,8.76603413 L12.9648333,8.76603413 L12.9648333,8.87152901 L13.007,8.87152901 L13.007,9.00195904 L13.04725,9.00195904 L13.04725,9.07676451 L13.0894167,9.07676451 L13.0894167,9.18225939 L13.12775,9.18225939 L13.12775,9.24172014 L13.168,9.24172014 L13.168,9.45846416 L13.1948333,9.45846416 L13.1948333,9.51792491 L13.237,9.51792491 L13.237,9.59081229 L13.2753333,9.59081229 L13.2753333,9.69822526 L13.3155833,9.69822526 L13.3155833,9.76919454 L13.3539167,9.76919454 L13.3539167,9.90346075 L13.4363333,9.90346075 L13.4363333,10.1048601 L13.4785,10.1048601 L13.4785,10.1758294 L13.5149167,10.1758294 L13.5149167,10.2832423 L13.54175,10.2832423 L13.54175,10.3925734 L13.5858333,10.3925734 L13.5858333,10.4865597 L13.6241667,10.4865597 L13.6241667,10.7263208 L13.6663333,10.7263208 L13.6663333,10.8356519 L13.7046667,10.8356519 L13.7046667,10.9795085 L13.7449167,10.9795085 L13.7449167,11.075413 L13.7851667,11.075413 L13.7851667,11.2173515 L13.8273333,11.2173515 L13.8273333,11.3496997 L13.8541667,11.3496997 L13.8541667,11.5875427 L13.8925,11.5875427 L13.8925,11.7313993 L13.93275,11.7313993 L13.93275,11.8388123 L13.9749167,11.8388123 L13.9749167,11.9366348 L14.0151667,11.9366348 L14.0151667,12.0785734 L14.0554167,12.0785734 L14.0554167,12.1744778 L14.09375,12.1744778 L14.09375,12.285727 L14.134,12.285727 L14.134,12.4852082 L14.17425,12.4852082 L14.17425,12.5945392 L14.203,12.5945392 L14.203,12.6674266 L14.2413333,12.6674266 L14.2413333,12.761413 L14.2815833,12.761413 L14.2815833,12.8343003 L14.3218333,12.8343003 L14.3218333,12.9033515 L14.364,12.9033515 L14.364,13.0107645 L14.4023333,13.0107645 L14.4023333,13.1066689 L14.4445,13.1066689 L14.4445,13.1795563 L14.4828333,13.1795563 L14.4828333,13.216 L14.5115833,13.216 L14.5115833,13.2888874 L14.5518333,13.2888874 L14.5518333,13.34643 L14.5920833,13.34643 L14.5920833,13.4193174 L14.6304167,13.4193174 L14.6304167,13.5267304 L14.6706667,13.5267304 L14.6706667,13.6360614 L14.7109167,13.6360614 L14.7109167,13.6936041 L14.7530833,13.6936041 L14.7530833,13.8374608 L14.7933333,13.8374608 L14.7933333,14.0062526 L14.8316667,14.0062526 L14.8316667,16.9351741 L14.9006667,16.9351741 L14.9006667,16.9735358 L15.0214167,16.9735358 L15.0214167,17.0099795 L15.1019167,17.0099795 L15.1019167,17.0445051 L15.169,17.0445051 L15.169,17.0809488 L15.33,17.0809488 L15.33,17.1173925 L15.8666667,17.1173925 L15.8666667,17.1173925 Z" id="Fill-10" fill="#006DAB" sketch:type="MSShapeGroup"></path>
        </g>
    </g>
</svg>