<?xml version="1.0" encoding="UTF-8"?>
<!DOCTYPE svg PUBLIC "-//W3C//DTD SVG 1.1//EN" "http://www.w3.org/Graphics/SVG/1.1/DTD/svg11.dtd">
<svg version="1.1" xmlns="http://www.w3.org/2000/svg" xmlns:xlink="http://www.w3.org/1999/xlink" x="0" y="0" width="141.224" height="40.8" viewBox="0, 0, 141.224, 40.8">
  <g id="Layer_1" transform="translate(-330.776, -285.2)">
    <text transform="matrix(1, 0, -0, 1, 402.414, 302.2)">
      <tspan x="-16.685" id="totalPopFigure" y="10" font-family="arial" font-size="30" fill="#1C619F">26</tspan>
    </text>
    <text transform="matrix(1, 0, -0, 1, 445.55, 307.2)">
      <tspan x="-20.45" y="5" font-family="arial" font-size="17" fill="#1C619F">million</tspan>
    </text>
    <text transform="matrix(1, 0, -0, 1, 427.258, 320.5)">
      <tspan x="-41.528" y="2.5" font-family="arial" font-size="9" kerning="0" fill="#6D6E6D">Total population</tspan>
    </text>
    <g>
      <path d="M342.601,288.522 C342.601,290.249 341.201,291.65 339.47,291.65 C337.74,291.65 336.337,290.249 336.337,288.522 C336.337,286.793 337.74,285.392 339.47,285.392 C341.201,285.392 342.601,286.793 342.601,288.522" fill="#1C619F"/>
      <path d="M339.8,309.956 L340.474,321.5 C340.474,321.905 340.804,322.235 341.206,322.235 C341.613,322.235 341.941,321.905 341.941,321.5 L342.57,309.956 L344.611,309.956 L342.501,297.008 L346.749,305.474 C346.909,305.846 347.34,306.025 347.714,305.865 C348.086,305.706 348.264,305.277 348.105,304.899 C348.105,304.899 344.989,296.475 344.218,294.906 C343.45,293.337 342.692,292.383 339.769,292.383 L339.169,292.383 C336.254,292.383 335.489,293.337 334.72,294.906 C333.956,296.475 330.833,304.899 330.833,304.899 C330.677,305.277 330.852,305.706 331.223,305.865 C331.599,306.025 332.027,305.846 332.187,305.474 L336.44,297.008 L334.323,309.956 L336.364,309.956 L336.997,321.5 C336.997,321.905 337.328,322.235 337.732,322.235 C338.142,322.235 338.47,321.905 338.47,321.5 L339.098,309.956 z" fill="#1C619F"/>
      <path d="M364.76,285.385 C363.027,285.385 361.624,286.783 361.624,288.515 C361.624,290.242 363.027,291.644 364.76,291.644 C366.486,291.644 367.884,290.242 367.884,288.515 C367.884,286.783 366.486,285.385 364.76,285.385" fill="#1C619F"/>
      <path d="M368.002,303.808 L368.214,297.002 L372.036,305.467 C372.194,305.838 372.626,306.016 372.999,305.858 C373.373,305.698 373.55,305.27 373.391,304.891 C373.391,304.891 370.699,296.467 369.929,294.899 C369.163,293.329 367.976,292.375 365.054,292.375 L364.456,292.375 C361.537,292.375 360.345,293.329 359.578,294.899 C358.81,296.467 356.118,304.891 356.118,304.891 C355.96,305.27 356.135,305.698 356.509,305.858 C356.885,306.016 357.315,305.838 357.472,305.467 L361.296,297.002 L361.507,303.808 L360.905,320.919 C360.858,321.598 361.367,322.186 362.044,322.234 C362.076,322.236 362.106,322.236 362.132,322.236 C362.773,322.236 363.314,321.742 363.362,321.095 L364.751,307.863 L366.148,321.095 C366.191,321.742 366.731,322.236 367.374,322.236 C367.403,322.236 367.434,322.236 367.461,322.234 C368.14,322.186 368.648,321.598 368.603,320.919 L367.998,303.808 z" fill="#1C619F"/>
      <path d="M352.11,304.41 C351.047,304.41 350.188,305.269 350.188,306.331 C350.188,307.389 351.047,308.248 352.11,308.248 C353.173,308.248 354.034,307.389 354.034,306.331 C354.034,305.269 353.173,304.41 352.11,304.41" fill="#1C619F"/>
      <path d="M352.11,315.721 C352.11,315.721 352.975,321.726 352.977,321.732 C353.09,322.027 353.37,322.236 353.706,322.236 C354.051,322.236 354.339,322.006 354.442,321.693 C354.452,321.677 354.469,321.324 354.452,321.262 L354.098,313.881 L354.208,311.35 C354.307,310.485 354.325,310.743 355.305,310.158 C356.305,309.556 358.01,306.92 358.092,306.79 C358.173,306.659 358.33,306.427 358.362,306.279 C358.409,306.012 358.235,305.759 357.97,305.708 C357.773,305.673 357.603,305.781 357.475,305.917 C357.344,306.059 355.383,308.667 353.915,308.916 C353.587,308.871 353.231,308.698 352.296,308.698 L351.924,308.698 C350.992,308.698 350.636,308.871 350.305,308.916 C348.837,308.667 346.876,306.059 346.745,305.917 C346.617,305.781 346.451,305.673 346.249,305.708 C345.987,305.759 345.813,306.012 345.862,306.279 C345.889,306.427 346.049,306.659 346.131,306.79 C346.212,306.92 347.918,309.556 348.915,310.158 C349.897,310.743 349.916,310.485 350.014,311.35 L350.122,313.881 L349.772,321.262 C349.753,321.324 349.772,321.677 349.782,321.693 C349.884,322.006 350.169,322.236 350.518,322.236 C350.85,322.236 351.132,322.027 351.245,321.732 C351.247,321.726 352.11,315.721 352.11,315.721" fill="#1C619F"/>
    </g>
  </g>
</svg>
