<?xml version="1.0" encoding="UTF-8"?>
<!DOCTYPE svg PUBLIC "-//W3C//DTD SVG 1.1//EN" "http://www.w3.org/Graphics/SVG/1.1/DTD/svg11.dtd">
<svg version="1.1" xmlns="http://www.w3.org/2000/svg" xmlns:xlink="http://www.w3.org/1999/xlink" x="0" y="0" width="22" height="23" viewBox="0, 0, 22, 23">
  <g id="Background">
    <rect x="0" y="0" width="22" height="23" fill="#000000" fill-opacity="0"/>
  </g>
  <g id="Page-1">
    <path d="M21.517,11.49 C21.517,17.315 16.798,22.039 10.975,22.039 C5.153,22.039 0.434,17.315 0.434,11.49 C0.434,5.663 5.153,0.94 10.975,0.94 C16.798,0.94 21.517,5.663 21.517,11.49" fill="#5B92E5" id="Fill-9"/>
    <g>
      <g>
        <path d="M16.642,16.311 C16.124,16.45 15.571,16.494 15.068,16.666 C15.92,15.935 15.871,14.803 16.44,13.941 C16.621,13.697 16.771,13.441 16.982,13.21 C16.636,13.904 16.786,14.806 16.389,15.48 C16.236,15.747 16.017,16.007 15.775,16.218 C15.854,16.214 15.923,16.146 15.993,16.1 C16.638,15.455 17.482,15.275 18.18,14.751 C18.46,14.528 18.716,14.236 18.839,13.92 C18.707,14.99 17.643,15.992 16.642,16.311 L16.642,16.311 z" fill="#FFFFFF"/>
        <path d="M18.968,11.98 C18.652,12.43 18.27,12.848 17.978,13.305 C18.01,12.944 18.053,12.498 17.913,12.156 C17.668,11.417 17.454,10.667 17.385,9.857 L17.394,9.547 C17.578,10.375 18.39,10.944 18.339,11.872 C18.357,12.097 18.288,12.288 18.246,12.486 L18.26,12.501 L18.296,12.46 C18.417,12.004 18.478,11.525 18.665,11.101 C18.931,10.489 19.263,9.872 19.128,9.134 C19.533,10.004 19.41,11.167 18.968,11.98 L18.968,11.98 z" fill="#FFFFFF"/>
        <path d="M18.469,7.291 C19.002,8.013 19.118,9.165 18.731,9.993 C18.586,10.344 18.484,10.719 18.427,11.107 C18.4,11.04 18.394,10.95 18.369,10.876 C18.158,10.064 17.391,9.486 17.076,8.722 C16.976,8.472 16.891,8.213 16.844,7.942 C17.18,8.565 18.01,8.887 18.237,9.574 C18.329,9.748 18.324,9.965 18.382,10.152 C18.394,10.152 18.406,10.143 18.406,10.131 C18.306,9.423 18.337,8.682 18.433,7.983 C18.427,7.605 18.39,7.237 18.18,6.944 C18.315,7.023 18.375,7.174 18.469,7.291 L18.469,7.291 z" fill="#FFFFFF"/>
        <path d="M18.094,7.152 C18.234,7.785 18.029,8.402 18.158,9.041 L18.153,9.046 C17.809,8.369 17.078,8.05 16.576,7.508 C16.284,7.186 16.158,6.794 16.085,6.379 C16.373,7.074 17.15,7.227 17.596,7.813 C17.746,7.948 17.794,8.135 17.89,8.288 L17.906,8.273 C17.65,7.724 17.564,7.107 17.385,6.523 C17.295,6.269 17.117,6.02 16.878,5.861 C17.464,5.981 17.972,6.593 18.094,7.152 L18.094,7.152 z" fill="#FFFFFF"/>
        <path d="M16.528,5.701 C16.969,6.096 17.168,6.607 17.297,7.137 L17.37,7.306 C16.73,6.845 16.149,6.225 15.74,5.571 L15.241,5.066 C15.679,5.252 16.152,5.363 16.528,5.701 L16.528,5.701 z" fill="#FFFFFF"/>
        <path d="M6.418,5.149 C5.975,5.538 5.668,6.029 5.34,6.487 C5.046,6.851 4.669,7.092 4.336,7.405 C4.516,7.032 4.522,6.585 4.778,6.242 C5.141,5.607 5.815,5.384 6.418,5.149 L6.418,5.149 z" fill="#FFFFFF"/>
        <path d="M3.998,6.502 C4.213,6.234 4.486,6.048 4.793,5.969 C4.196,6.379 4.235,7.114 4.046,7.724 C3.986,7.95 3.881,8.158 3.829,8.39 L3.844,8.402 C3.944,8.14 4.118,7.893 4.336,7.679 C4.759,7.288 5.385,7.044 5.593,6.465 C5.583,7.27 4.913,7.902 4.272,8.354 C4.007,8.586 3.752,8.851 3.607,9.15 C3.592,8.947 3.637,8.743 3.622,8.526 C3.552,7.823 3.502,7.022 3.998,6.502 L3.998,6.502 z" fill="#FFFFFF"/>
        <path d="M2.791,8.902 C2.773,8.191 3.068,7.61 3.484,7.08 C3.496,7.074 3.505,7.062 3.52,7.065 C3.063,7.761 3.441,8.638 3.42,9.429 L3.36,10.239 C3.369,10.245 3.369,10.27 3.39,10.26 C3.417,10.17 3.423,10.074 3.441,9.981 C3.549,9.327 4.116,8.863 4.612,8.411 C4.717,8.293 4.811,8.173 4.865,8.035 C4.825,8.36 4.723,8.688 4.588,8.989 C4.202,9.742 3.49,10.36 3.36,11.221 C3.297,10.395 2.735,9.778 2.791,8.902 L2.791,8.902 z" fill="#FFFFFF"/>
        <path d="M2.445,9.914 C2.496,9.692 2.536,9.461 2.632,9.257 C2.449,10.198 3.081,10.875 3.288,11.691 C3.375,11.996 3.396,12.323 3.52,12.609 C3.532,12.616 3.542,12.604 3.549,12.594 C3.24,11.728 3.686,10.923 4.134,10.245 C4.243,10.062 4.306,9.857 4.36,9.646 C4.407,10.038 4.308,10.489 4.251,10.896 C4.142,11.414 3.98,11.905 3.838,12.408 C3.745,12.722 3.77,13.076 3.818,13.405 L3.773,13.369 C3.445,12.763 2.794,12.29 2.601,11.628 C2.443,11.101 2.337,10.489 2.445,9.914 L2.445,9.914 z" fill="#FFFFFF"/>
        <path d="M2.416,11.751 C2.488,12.748 3.559,13.275 4.055,14.1 C4.173,14.269 4.275,14.456 4.432,14.597 C4.407,14.491 4.308,14.402 4.272,14.293 C4.098,13.947 4.035,13.534 4.077,13.116 C4.125,12.607 4.338,12.134 4.257,11.599 C4.693,12.54 4.56,13.715 4.804,14.736 C4.868,14.959 4.997,15.158 5.082,15.371 C4.185,14.76 2.963,14.179 2.566,13.059 C2.398,12.673 2.379,12.195 2.416,11.751 L2.416,11.751 z" fill="#FFFFFF"/>
        <path d="M2.951,14.041 C3.451,15.172 4.702,15.266 5.542,15.955 C5.696,16.092 5.858,16.209 6.032,16.29 L6.041,16.281 C5.848,16.107 5.626,15.908 5.491,15.682 C4.999,14.998 5.172,14.041 4.804,13.306 C5.139,13.706 5.443,14.122 5.645,14.576 C5.945,15.318 6.06,16.155 6.754,16.716 C6.003,16.468 5.122,16.537 4.458,16.074 C3.733,15.628 3.087,14.872 2.951,14.041 L2.951,14.041 z" fill="#FFFFFF"/>
        <path d="M4.235,16.152 C5.037,17.064 6.346,16.76 7.413,16.998 C7.564,17.019 7.702,17.08 7.862,17.055 C7.735,16.974 7.558,16.983 7.419,16.91 C6.583,16.616 6.46,15.709 6.006,15.098 C6.586,15.483 7.074,16.003 7.609,16.508 C7.994,16.845 8.457,17.001 8.945,17.1 C8.828,17.143 8.674,17.131 8.548,17.164 C7.671,17.38 6.697,17.733 5.768,17.417 C5.163,17.226 4.54,16.748 4.235,16.152 L4.235,16.152 z" fill="#FFFFFF"/>
        <path d="M15.111,18.278 C14.208,18.615 13.266,18.263 12.561,17.728 C12.275,17.546 12.024,17.284 11.654,17.307 C11.52,17.305 11.391,17.311 11.277,17.344 C11.962,17.663 12.599,18.103 13.181,18.666 C13.083,18.778 12.956,18.883 12.836,18.98 C12.275,18.375 11.654,17.793 10.959,17.453 C10.823,17.47 10.693,17.552 10.57,17.618 C10.004,17.977 9.444,18.438 9.024,19.002 L8.662,18.703 C9.239,18.118 9.878,17.663 10.576,17.339 C9.89,17.121 9.442,17.696 8.921,17.989 C8.314,18.413 7.441,18.613 6.707,18.32 C6.313,18.17 5.93,17.949 5.645,17.591 C6.222,17.989 7.082,18.031 7.738,17.772 C8.619,17.39 9.535,16.905 10.597,17.137 C10.763,17.14 10.924,17.305 11.081,17.164 C11.87,16.959 12.764,17.1 13.443,17.461 L14.144,17.742 C14.795,17.983 15.637,17.917 16.195,17.52 C15.908,17.877 15.516,18.133 15.111,18.278 L15.111,18.278 z" fill="#FFFFFF"/>
        <path d="M16.079,17.344 C15.065,17.727 14.045,17.257 13.074,17.1 L12.887,17.076 L12.887,17.07 C13.351,16.965 13.802,16.826 14.172,16.492 C14.716,15.968 15.201,15.429 15.806,15.016 C15.357,15.592 15.31,16.411 14.569,16.781 C14.385,16.901 14.154,16.922 13.965,17.013 C14.235,17.019 14.482,16.922 14.749,16.895 C15.742,16.739 16.879,16.899 17.575,16.052 C17.317,16.642 16.669,17.137 16.079,17.344 L16.079,17.344 z" fill="#FFFFFF"/>
        <path d="M17.921,14.489 C17.521,14.751 17.115,14.995 16.73,15.293 L16.73,15.256 C17.319,14.276 17.031,12.929 17.394,11.85 L17.53,11.489 C17.454,12.161 17.746,12.73 17.725,13.405 C17.705,13.812 17.572,14.173 17.358,14.499 L17.394,14.499 C17.683,14.119 17.908,13.715 18.246,13.354 C18.77,12.848 19.302,12.33 19.371,11.628 C19.549,12.799 18.892,13.826 17.921,14.489 L17.921,14.489 z" fill="#FFFFFF"/>
      </g>
      <path d="M10.809,11.937 L10.991,11.937 L10.991,16.502 L10.809,16.502 z" fill="#FFFFFF"/>
      <path d="M9.823,11.488 L9.951,11.617 L6.724,14.843 L6.596,14.714 z" fill="#FFFFFF"/>
      <path d="M9.515,10.537 L9.514,10.719 L4.954,10.714 L4.954,10.532 z" fill="#FFFFFF"/>
      <path d="M9.948,9.657 L9.819,9.785 L6.595,6.557 L6.723,6.428 z" fill="#FFFFFF"/>
      <path d="M10.989,9.282 L10.807,9.282 L10.811,4.716 L10.993,4.717 z" fill="#FFFFFF"/>
      <path d="M11.902,9.717 L11.773,9.589 L15.002,6.365 L15.131,6.494 z" fill="#FFFFFF"/>
      <path d="M12.254,10.733 L12.254,10.552 L16.814,10.546 L16.815,10.728 z" fill="#FFFFFF"/>
      <path d="M11.727,11.663 L11.856,11.534 L15.083,14.759 L14.955,14.888 z" fill="#FFFFFF"/>
      <path d="M12.601,6.06 C10.089,5.12 7.289,6.398 6.35,8.912 C5.411,11.426 6.687,14.23 9.199,15.169 C11.711,16.109 14.511,14.831 15.45,12.317 C16.389,9.803 15.113,7 12.601,6.06 z M15.254,12.244 C14.355,14.649 11.676,15.872 9.273,14.972 C6.87,14.073 5.648,11.391 6.546,8.986 C7.445,6.58 10.124,5.358 12.527,6.257 C14.931,7.156 16.152,9.838 15.254,12.244 z" fill="#FFFFFF"/>
      <path d="M12.211,7.103 C10.275,6.379 8.116,7.364 7.392,9.302 C6.669,11.24 7.653,13.401 9.589,14.126 C11.525,14.85 13.684,13.865 14.408,11.927 C15.131,9.989 14.148,7.828 12.211,7.103 z M14.21,11.853 C13.527,13.682 11.49,14.611 9.663,13.928 C7.836,13.244 6.907,11.205 7.59,9.376 C8.273,7.547 10.31,6.618 12.137,7.302 C13.964,7.985 14.893,10.024 14.21,11.853 z" fill="#FFFFFF"/>
      <path d="M11.833,8.116 C10.455,7.6 8.919,8.301 8.403,9.681 C7.888,11.06 8.589,12.598 9.967,13.114 C11.345,13.629 12.881,12.928 13.397,11.549 C13.912,10.169 13.211,8.631 11.833,8.116 z M13.215,11.481 C12.738,12.76 11.313,13.41 10.035,12.932 C8.756,12.454 8.107,11.028 8.585,9.748 C9.062,8.469 10.487,7.819 11.765,8.297 C13.044,8.775 13.693,10.202 13.215,11.481 z" fill="#FFFFFF"/>
      <path d="M11.408,9.254 C10.658,8.974 9.821,9.355 9.541,10.106 C9.261,10.857 9.642,11.694 10.392,11.975 C11.142,12.256 11.979,11.874 12.259,11.123 C12.539,10.372 12.158,9.535 11.408,9.254 z M12.063,11.05 C11.823,11.692 11.107,12.019 10.465,11.779 C9.823,11.539 9.497,10.822 9.737,10.179 C9.977,9.537 10.693,9.21 11.335,9.451 C11.977,9.691 12.303,10.407 12.063,11.05 z" fill="#FFFFFF"/>
      <path d="M13.734,5.339 C10.796,3.72 7.142,4.77 5.578,7.683 C4.013,10.595 5.129,14.272 8.067,15.891 C11.004,17.509 14.659,16.459 16.223,13.546 C17.787,10.634 16.672,6.957 13.734,5.339 z M16.029,13.44 C14.522,16.247 11.001,17.259 8.169,15.699 C5.338,14.139 4.263,10.596 5.771,7.789 C7.278,4.983 10.799,3.971 13.631,5.53 C16.462,7.09 17.537,10.633 16.029,13.44 z" fill="#FFFFFF"/>
      <path d="M14.446,13.436 C14.45,13.467 14.439,13.544 14.454,13.562 C14.469,13.586 14.525,13.581 14.549,13.572 C14.616,13.547 14.682,13.459 14.713,13.393 C14.735,13.36 14.749,13.32 14.745,13.276 L14.698,13.135 C14.686,13.086 14.671,12.998 14.618,12.978 C14.623,12.965 14.64,12.944 14.638,12.926 C14.625,12.87 14.532,12.884 14.499,12.925 C14.482,12.946 14.487,12.99 14.483,13.015 C14.482,13.066 14.468,13.168 14.448,13.215 C14.428,13.261 14.371,13.323 14.37,13.373 C14.374,13.411 14.415,13.433 14.446,13.436 L14.446,13.436 z M11.345,13.044 L11.362,13.081 C11.362,13.087 11.37,13.099 11.376,13.098 C11.419,13.139 11.478,13.045 11.407,13.032 C11.401,13.033 11.388,13.028 11.382,13.035 C11.37,13.036 11.357,13.037 11.345,13.044 L11.345,13.044 z M11.392,12.952 C11.363,12.979 11.353,12.999 11.399,13.02 L11.392,12.952 L11.392,12.952 z M10.639,12.399 C10.593,12.441 10.596,12.416 10.573,12.431 C10.556,12.445 10.57,12.462 10.554,12.489 C10.549,12.502 10.531,12.51 10.532,12.523 C10.528,12.542 10.548,12.553 10.568,12.557 C10.593,12.561 10.668,12.555 10.692,12.54 C10.715,12.519 10.706,12.495 10.716,12.475 C10.722,12.468 10.733,12.454 10.739,12.447 C10.742,12.415 10.674,12.377 10.639,12.399 L10.639,12.399 z M12.447,12.205 L12.454,12.268 L12.447,12.319 C12.515,12.307 12.557,12.284 12.617,12.259 C12.635,12.252 12.671,12.236 12.685,12.247 C12.705,12.258 12.695,12.278 12.69,12.291 C12.68,12.317 12.641,12.365 12.624,12.385 C12.573,12.441 12.499,12.447 12.435,12.504 C12.401,12.538 12.392,12.571 12.358,12.605 C12.324,12.64 12.299,12.648 12.282,12.663 C12.265,12.683 12.279,12.695 12.244,12.717 L12.264,12.671 C12.245,12.666 12.219,12.668 12.205,12.651 C12.197,12.633 12.195,12.614 12.199,12.594 C12.207,12.556 12.215,12.454 12.238,12.426 C12.243,12.42 12.292,12.402 12.31,12.395 L12.302,12.433 C12.32,12.432 12.351,12.429 12.363,12.421 C12.394,12.412 12.425,12.346 12.441,12.32 L12.356,12.353 C12.37,12.313 12.412,12.234 12.447,12.205 L12.447,12.205 z M10.771,12.394 C10.758,12.452 10.794,12.43 10.815,12.453 C10.829,12.464 10.831,12.483 10.833,12.502 L10.783,12.513 L10.762,12.546 L10.734,12.58 L10.819,12.604 C10.776,12.621 10.751,12.617 10.723,12.657 L10.83,12.648 C10.899,12.648 10.951,12.662 11.016,12.625 L11.002,12.613 L11.021,12.555 L10.974,12.527 L10.958,12.491 L10.878,12.397 L10.852,12.387 C10.874,12.359 10.92,12.311 10.855,12.298 L10.823,12.294 L10.851,12.26 C10.813,12.257 10.781,12.254 10.752,12.282 C10.719,12.323 10.718,12.373 10.771,12.394 L10.771,12.394 z M10.734,11.581 L10.732,11.625 L10.718,11.608 L10.72,11.684 C10.731,11.727 10.779,11.71 10.79,11.696 C10.802,11.689 10.806,11.663 10.804,11.651 C10.803,11.638 10.796,11.626 10.789,11.62 C10.775,11.615 10.769,11.616 10.757,11.617 L10.753,11.579 L10.734,11.581 L10.734,11.581 z M5.586,11.98 C5.583,12.075 5.608,12.073 5.63,12.153 C5.641,12.197 5.623,12.211 5.658,12.296 C5.674,12.333 5.684,12.37 5.724,12.385 C5.713,12.279 5.699,12.217 5.664,12.119 C5.638,12.058 5.619,12.053 5.598,11.979 L5.586,11.98 L5.586,11.98 z M14.216,10.94 C14.186,10.955 14.176,10.975 14.179,11.006 C14.176,11.038 14.204,11.061 14.234,11.052 C14.277,11.035 14.284,10.927 14.216,10.94 L14.216,10.94 z M8.311,10.926 C8.295,10.959 8.293,10.991 8.327,11.013 C8.323,10.982 8.332,10.949 8.311,10.926 L8.311,10.926 z M10.156,10.956 L10.177,10.973 C10.223,10.931 10.232,10.905 10.266,10.864 C10.294,10.83 10.312,10.828 10.33,10.814 C10.341,10.8 10.34,10.788 10.344,10.769 C10.354,10.742 10.372,10.734 10.367,10.691 C10.369,10.652 10.344,10.598 10.301,10.608 L10.292,10.577 C10.273,10.579 10.242,10.588 10.225,10.602 C10.208,10.616 10.217,10.641 10.194,10.662 C10.166,10.696 10.117,10.713 10.105,10.72 C10.087,10.728 10.096,10.747 10.066,10.768 C10.025,10.797 9.998,10.781 9.974,10.789 C9.943,10.798 9.898,10.847 9.875,10.868 C9.842,10.909 9.832,10.935 9.818,10.98 C9.813,10.993 9.803,11.013 9.81,11.025 C9.818,11.037 9.836,11.036 9.848,11.028 C9.873,11.02 9.926,10.99 9.946,10.994 C9.964,10.992 9.972,11.004 9.985,11.01 C10.004,11.014 10.017,11.013 10.03,11.018 C10.043,11.023 10.058,11.041 10.072,11.052 C10.105,11.068 10.138,11.027 10.148,11.001 C10.153,10.988 10.158,10.975 10.156,10.956 L10.156,10.956 z M10.192,10.472 L10.193,10.479 L10.186,10.473 L10.192,10.472 L10.192,10.472 z M10.247,10.518 C10.264,10.554 10.325,10.593 10.36,10.622 C10.371,10.614 10.377,10.608 10.382,10.594 C10.397,10.561 10.391,10.499 10.357,10.483 C10.337,10.472 10.313,10.48 10.295,10.488 C10.294,10.482 10.286,10.464 10.279,10.458 C10.23,10.412 10.168,10.544 10.247,10.518 L10.247,10.518 z M9.986,10.434 C10.028,10.474 10.029,10.481 10.085,10.476 C10.077,10.514 10.027,10.576 9.986,10.548 C9.959,10.531 9.956,10.506 9.943,10.501 C9.923,10.49 9.921,10.535 9.91,10.548 C9.884,10.595 9.839,10.593 9.835,10.669 L9.859,10.654 C9.883,10.702 9.927,10.648 9.957,10.633 C9.952,10.639 9.94,10.653 9.936,10.666 C9.931,10.686 9.952,10.703 9.97,10.695 C9.988,10.687 10.01,10.653 10.027,10.639 C10.045,10.625 10.051,10.624 10.069,10.616 C10.086,10.602 10.109,10.581 10.127,10.567 C10.179,10.524 10.182,10.549 10.2,10.484 C10.198,10.472 10.204,10.465 10.203,10.452 C10.178,10.398 10.088,10.444 10.081,10.438 L10.043,10.429 C10.029,10.424 10.005,10.432 9.986,10.434 L9.986,10.434 z M10.275,10.421 L10.244,10.423 L10.252,10.442 C10.289,10.432 10.314,10.43 10.315,10.385 C10.284,10.388 10.278,10.389 10.275,10.421 L10.275,10.421 z M8.307,10.54 L8.278,10.682 L8.291,10.744 L8.317,10.868 C8.333,10.842 8.362,10.757 8.365,10.725 L8.372,10.674 C8.374,10.636 8.379,10.623 8.363,10.586 L8.322,10.621 L8.32,10.539 L8.307,10.54 L8.307,10.54 z M10.34,10.377 C10.336,10.339 10.343,10.345 10.374,10.348 L10.374,10.285 C10.356,10.293 10.331,10.295 10.313,10.31 C10.285,10.344 10.289,10.375 10.34,10.377 L10.34,10.377 z M10.154,10.292 L10.175,10.316 C10.218,10.305 10.232,10.317 10.271,10.326 L10.256,10.302 L10.272,10.275 C10.309,10.272 10.312,10.24 10.296,10.21 C10.29,10.204 10.276,10.199 10.269,10.193 C10.202,10.155 10.196,10.213 10.18,10.239 L10.154,10.292 L10.154,10.292 z M10.316,10.271 C10.328,10.27 10.341,10.269 10.353,10.262 C10.376,10.241 10.363,10.179 10.342,10.168 C10.323,10.163 10.313,10.183 10.314,10.196 L10.31,10.215 L10.313,10.246 L10.316,10.271 L10.316,10.271 z M8.308,10.427 C8.33,10.399 8.338,10.354 8.341,10.322 C8.299,10.345 8.303,10.383 8.308,10.427 L8.308,10.427 z M8.529,10.021 C8.535,10.077 8.528,10.128 8.508,10.181 C8.483,10.24 8.422,10.321 8.41,10.379 L8.395,10.362 C8.368,10.402 8.365,10.491 8.382,10.534 C8.416,10.499 8.424,10.454 8.445,10.414 C8.486,10.328 8.541,10.254 8.562,10.157 C8.566,10.131 8.571,10.061 8.556,10.037 C8.548,10.025 8.542,10.026 8.529,10.021 L8.529,10.021 z M14.217,10.187 C14.25,10.139 14.259,10.044 14.271,9.986 C14.301,9.85 14.364,9.788 14.345,9.619 C14.341,9.581 14.327,9.506 14.282,9.498 C14.212,9.491 14.241,9.584 14.237,9.603 C14.239,9.622 14.234,9.635 14.229,9.648 C14.198,9.714 14.212,9.789 14.213,9.858 L14.2,10.087 L14.217,10.187 L14.217,10.187 z M13.206,9.107 C13.207,9.12 13.214,9.126 13.221,9.138 C13.228,9.143 13.235,9.149 13.242,9.155 C13.282,9.176 13.303,9.137 13.288,9.113 C13.281,9.101 13.255,9.097 13.242,9.098 C13.23,9.099 13.217,9.1 13.206,9.107 L13.206,9.107 z M14.14,8.998 C14.146,9.055 14.169,9.148 14.193,9.196 L14.248,9.298 L14.313,9.495 C14.347,9.454 14.329,9.405 14.318,9.362 C14.29,9.276 14.249,9.191 14.215,9.112 C14.192,9.07 14.175,9.027 14.14,8.998 L14.14,8.998 z M13.795,8.896 L13.79,8.966 L13.704,8.936 C13.703,8.981 13.723,9.048 13.758,9.083 L13.827,9.134 C13.882,9.179 13.938,9.231 13.988,9.284 C14.032,9.337 14.033,9.356 14.049,9.38 C14.062,9.391 14.076,9.402 14.094,9.395 C14.106,9.387 14.109,9.355 14.114,9.342 L14.135,9.302 C14.144,9.27 14.12,9.221 14.104,9.191 L14.063,9.1 C14.045,9.057 14.035,9.02 14.006,8.985 C13.957,8.939 13.919,8.942 13.868,8.928 L13.795,8.896 L13.795,8.896 z M12.057,8.983 C12.053,9.009 12.051,9.047 12.021,9.056 C12.014,9.056 11.989,9.052 11.982,9.047 L11.958,9.118 C11.947,9.138 11.928,9.191 11.93,9.209 C11.927,9.241 11.971,9.237 11.993,9.21 C12.016,9.189 12.019,9.157 12.035,9.13 C12.061,9.078 12.108,9.054 12.114,8.99 L12.057,8.983 L12.057,8.983 z M13.993,8.746 C14.012,8.801 14.025,8.806 14.055,8.854 C14.071,8.884 14.067,8.904 14.103,8.894 C14.081,8.864 14.02,8.762 13.993,8.746 L13.993,8.746 z M11.374,9.082 C11.304,9.076 11.35,9.154 11.341,9.186 C11.325,9.219 11.255,9.27 11.221,9.248 C11.203,9.256 11.184,9.257 11.165,9.253 C11.146,9.248 11.132,9.237 11.113,9.238 L11.013,9.311 C10.996,9.325 10.972,9.34 10.947,9.342 C10.929,9.344 10.904,9.346 10.893,9.359 C10.875,9.374 10.892,9.41 10.9,9.428 L10.93,9.47 C10.869,9.488 10.873,9.532 10.879,9.588 C10.883,9.62 10.895,9.732 10.904,9.757 C10.913,9.788 10.954,9.816 10.987,9.825 C11.007,9.836 11.039,9.84 11.057,9.838 L11.062,9.762 L11.081,9.76 L11.1,9.822 C11.106,9.821 11.119,9.82 11.125,9.819 L11.203,9.838 C11.21,9.843 11.21,9.843 11.216,9.849 C11.225,9.867 11.209,9.9 11.211,9.919 C11.222,9.962 11.267,9.971 11.305,9.968 C11.304,10.018 11.309,10.005 11.306,10.037 C11.309,10.068 11.291,10.07 11.329,10.136 C11.337,10.148 11.353,10.178 11.371,10.177 C11.39,10.175 11.429,10.127 11.471,10.104 C11.48,10.135 11.481,10.141 11.508,10.158 L11.499,10.19 L11.57,10.146 C11.549,10.243 11.509,10.221 11.465,10.282 C11.449,10.315 11.459,10.346 11.45,10.378 L11.457,10.384 L11.48,10.369 L11.498,10.361 C11.554,10.35 11.511,10.417 11.512,10.43 C11.514,10.448 11.527,10.453 11.54,10.459 L11.511,10.48 L11.529,10.523 L11.416,10.533 C11.36,10.544 11.314,10.586 11.268,10.622 L11.269,10.635 L11.289,10.639 L11.181,10.693 C11.213,10.703 11.256,10.687 11.287,10.684 C11.318,10.675 11.312,10.682 11.349,10.672 L11.369,10.683 L11.365,10.708 L11.503,10.753 C11.535,10.763 11.559,10.748 11.579,10.759 C11.606,10.775 11.597,10.808 11.642,10.816 C11.694,10.831 11.735,10.802 11.778,10.791 L11.727,10.846 L11.751,10.889 L11.812,10.871 C11.767,10.919 11.769,10.881 11.681,10.889 C11.701,10.899 11.761,10.926 11.774,10.931 C11.807,10.941 11.824,10.926 11.87,10.941 C11.909,10.95 11.956,10.978 11.968,10.92 C11.976,10.932 11.984,10.944 11.991,10.949 C12.011,10.96 12.023,10.959 12.043,10.964 C12.068,10.968 12.129,11.007 12.126,11.038 C12.121,11.045 12.115,11.052 12.11,11.059 C12.101,11.041 12.093,11.023 12.079,11.005 C12.043,10.964 11.988,10.981 11.943,10.973 L11.852,10.949 L11.782,10.943 C11.744,10.94 11.722,10.917 11.685,10.92 C11.672,10.921 11.654,10.929 11.656,10.942 C11.657,10.954 11.671,10.966 11.678,10.971 C11.718,10.993 11.703,10.975 11.764,11.014 C11.798,11.036 11.81,11.029 11.842,11.039 L11.876,11.055 C11.901,11.059 11.906,11.045 11.932,11.05 C11.944,11.048 11.97,11.052 11.983,11.058 L11.875,11.105 L11.792,11.094 C11.808,11.13 11.815,11.136 11.787,11.17 L11.772,11.146 C11.755,11.166 11.757,11.179 11.74,11.199 L11.712,11.234 C11.707,11.247 11.691,11.267 11.678,11.268 C11.659,11.27 11.638,11.247 11.624,11.235 C11.597,11.219 11.584,11.22 11.554,11.229 C11.577,11.265 11.589,11.257 11.622,11.273 C11.649,11.29 11.718,11.347 11.739,11.37 C11.733,11.371 11.727,11.371 11.722,11.384 C11.711,11.398 11.723,11.454 11.738,11.472 C11.751,11.483 11.765,11.488 11.783,11.487 L11.709,11.557 C11.741,11.566 11.753,11.559 11.781,11.582 L11.718,11.587 L11.636,11.525 L11.55,11.488 C11.582,11.492 11.633,11.494 11.663,11.478 C11.716,11.448 11.691,11.387 11.649,11.353 C11.622,11.336 11.603,11.338 11.572,11.335 C11.546,11.331 11.506,11.315 11.481,11.317 L11.413,11.33 L11.418,11.311 C11.398,11.306 11.391,11.3 11.374,11.315 C11.353,11.297 11.352,11.291 11.327,11.287 L11.33,11.318 L11.302,11.289 L11.299,11.321 C11.284,11.297 11.283,11.291 11.257,11.281 L11.278,11.361 L11.267,11.381 C11.233,11.409 11.233,11.473 11.237,11.51 C11.245,11.585 11.228,11.606 11.222,11.663 C11.22,11.708 11.235,11.725 11.223,11.79 C11.22,11.815 11.196,11.887 11.185,11.907 L11.157,11.941 L11.136,11.981 C11.126,12.001 11.109,12.015 11.098,12.035 C11.088,12.061 11.102,12.073 11.11,12.084 C11.12,12.122 11.094,12.111 11.137,12.164 L11.115,12.192 L11.14,12.189 C11.126,12.235 11.154,12.264 11.197,12.254 C11.228,12.245 11.261,12.204 11.27,12.171 L11.283,12.17 L11.367,12.308 C11.382,12.326 11.385,12.357 11.411,12.361 C11.436,12.365 11.446,12.339 11.456,12.319 C11.468,12.305 11.479,12.298 11.49,12.284 C11.506,12.251 11.476,12.203 11.478,12.171 C11.482,12.146 11.499,12.132 11.502,12.1 C11.498,12.056 11.465,12.046 11.443,12.023 C11.422,11.999 11.42,11.974 11.416,11.943 C11.409,11.874 11.444,11.852 11.451,11.795 C11.453,11.756 11.431,11.733 11.429,11.708 C11.427,11.689 11.431,11.67 11.45,11.668 C11.493,11.658 11.498,11.708 11.501,11.739 L11.496,11.803 C11.492,11.829 11.482,11.849 11.485,11.88 C11.494,11.904 11.509,11.922 11.517,11.94 C11.531,11.958 11.533,11.977 11.547,11.988 C11.56,11.994 11.567,11.999 11.58,11.998 C11.593,12.003 11.606,12.008 11.618,12.007 C11.649,11.998 11.681,11.938 11.71,11.917 C11.727,11.903 11.753,11.907 11.772,11.905 C11.761,11.925 11.733,11.959 11.722,11.973 C11.698,11.987 11.655,11.998 11.653,12.036 C11.64,12.088 11.708,12.081 11.707,12.126 C11.704,12.158 11.656,12.118 11.641,12.157 C11.62,12.197 11.648,12.22 11.657,12.25 C11.659,12.269 11.649,12.289 11.644,12.308 C11.618,12.355 11.596,12.325 11.56,12.348 C11.531,12.363 11.498,12.41 11.467,12.419 C11.443,12.428 11.422,12.41 11.403,12.412 C11.378,12.414 11.357,12.454 11.316,12.42 C11.274,12.38 11.322,12.356 11.311,12.319 L11.286,12.258 C11.25,12.28 11.216,12.309 11.227,12.358 C11.245,12.401 11.286,12.435 11.264,12.469 C11.247,12.483 11.209,12.486 11.18,12.508 C11.145,12.53 11.108,12.597 11.096,12.604 C11.079,12.618 11.06,12.62 11.043,12.634 L10.98,12.697 C10.974,12.704 10.974,12.704 10.969,12.711 L10.89,12.686 L10.895,12.73 C10.864,12.733 10.864,12.733 10.838,12.729 C10.819,12.724 10.781,12.721 10.771,12.747 C10.76,12.767 10.812,12.782 10.826,12.787 C10.905,12.824 10.921,12.911 10.887,12.946 C10.864,12.967 10.824,12.951 10.799,12.947 C10.741,12.94 10.65,12.916 10.593,12.915 C10.518,12.922 10.542,12.97 10.528,13.009 C10.524,13.035 10.5,13.05 10.496,13.069 C10.491,13.076 10.491,13.082 10.492,13.089 C10.491,13.082 10.513,13.162 10.512,13.156 C10.521,13.181 10.565,13.177 10.591,13.181 C10.623,13.191 10.631,13.209 10.658,13.225 C10.685,13.236 10.696,13.228 10.721,13.22 C10.777,13.215 10.83,13.242 10.914,13.196 C10.932,13.188 10.949,13.174 10.954,13.161 C10.971,13.141 10.962,13.122 10.985,13.101 C11.014,13.073 11.069,13.062 11.099,13.04 C11.122,13.019 11.105,12.983 11.148,12.966 C11.178,12.957 11.212,12.98 11.254,12.963 C11.291,12.953 11.331,12.912 11.368,12.902 C11.405,12.899 11.429,12.941 11.481,12.956 L11.687,13 C11.694,13 11.707,13.005 11.714,13.011 C11.769,13.056 11.689,13.076 11.659,13.085 C11.634,13.094 11.628,13.094 11.603,13.096 C11.61,13.102 11.611,13.108 11.617,13.114 C11.644,13.124 11.708,13.131 11.731,13.11 C11.742,13.097 11.741,13.084 11.738,13.065 C11.763,13.057 11.775,13.049 11.785,13.023 C11.782,13.004 11.774,12.986 11.791,12.972 C11.803,12.958 11.828,12.956 11.846,12.954 C11.817,12.919 11.794,12.934 11.755,12.931 C11.736,12.926 11.728,12.914 11.709,12.91 C11.69,12.911 11.673,12.926 11.647,12.915 C11.627,12.911 11.606,12.894 11.587,12.889 C11.567,12.878 11.516,12.87 11.519,12.838 C11.523,12.825 11.529,12.818 11.541,12.817 C11.547,12.81 11.553,12.81 11.56,12.809 L11.569,12.834 C11.635,12.809 11.614,12.842 11.671,12.85 C11.723,12.864 11.784,12.846 11.837,12.867 C11.87,12.876 11.859,12.896 11.887,12.925 C11.922,12.954 11.971,12.943 12.015,12.939 C12.01,12.946 12.003,12.947 12.004,12.953 C11.993,12.973 12.007,12.984 12.02,12.989 C12.067,13.017 12.137,12.96 12.078,12.934 L12.173,12.887 C12.127,12.866 12.104,12.887 12.043,12.848 C12.074,12.845 12.081,12.845 12.104,12.824 L12.107,12.798 L12.209,12.745 C12.177,12.798 12.213,12.782 12.225,12.838 C12.256,12.835 12.295,12.844 12.326,12.842 C12.351,12.833 12.417,12.808 12.435,12.794 C12.452,12.78 12.456,12.76 12.474,12.746 L12.546,12.714 C12.575,12.693 12.598,12.665 12.62,12.638 C12.631,12.624 12.642,12.611 12.662,12.615 C12.688,12.626 12.695,12.688 12.697,12.713 C12.706,12.732 12.715,12.756 12.717,12.775 C12.713,12.857 12.626,12.872 12.574,12.914 C12.539,12.943 12.513,12.989 12.476,13.005 C12.43,13.041 12.296,13.091 12.235,13.109 L12.105,13.133 C12.076,13.149 12.041,13.177 12.031,13.203 C12.021,13.23 12.037,13.26 12.007,13.275 C11.977,13.29 11.853,13.308 11.821,13.304 C11.77,13.296 11.787,13.282 11.712,13.289 C11.643,13.295 11.569,13.308 11.498,13.295 C11.509,13.282 11.532,13.254 11.536,13.235 C11.541,13.222 11.534,13.216 11.533,13.204 C11.532,13.198 11.531,13.185 11.524,13.179 C11.509,13.162 11.459,13.166 11.44,13.168 C11.397,13.178 11.405,13.19 11.336,13.196 L11.106,13.223 C10.994,13.233 10.904,13.279 10.86,13.283 C10.829,13.286 10.759,13.28 10.726,13.27 C10.7,13.26 10.672,13.237 10.642,13.252 C10.612,13.261 10.602,13.287 10.566,13.303 C10.53,13.319 10.461,13.325 10.42,13.354 C10.379,13.384 10.4,13.407 10.352,13.43 C10.328,13.439 10.246,13.44 10.215,13.442 C10.146,13.442 10.111,13.471 10.05,13.495 L9.984,13.52 C9.959,13.529 9.91,13.539 9.899,13.559 C9.889,13.579 9.904,13.603 9.906,13.622 C9.908,13.641 9.904,13.66 9.9,13.68 C9.867,13.727 9.783,13.766 9.797,13.834 C9.807,13.878 9.833,13.882 9.882,13.922 C9.945,13.985 9.993,14.076 10.061,14.127 C10.15,14.189 10.278,14.266 10.388,14.287 L10.578,14.296 C10.68,14.305 10.758,14.33 10.865,14.327 L11.1,14.287 C11.15,14.282 11.224,14.269 11.277,14.283 C11.329,14.298 11.339,14.335 11.432,14.326 L11.563,14.308 C11.594,14.299 11.618,14.291 11.651,14.307 C11.732,14.35 11.595,14.432 11.657,14.483 C11.692,14.512 11.807,14.52 11.852,14.535 C11.884,14.539 11.985,14.593 12.006,14.616 C12.02,14.628 12.021,14.64 12.036,14.658 C12.05,14.676 12.083,14.685 12.085,14.704 C12.087,14.723 12.047,14.758 12.035,14.772 C12.001,14.807 11.935,14.895 11.972,14.948 C11.987,14.966 12.026,14.981 12.047,14.992 L12.229,15.045 C12.308,15.076 12.314,15.139 12.362,15.173 C12.396,15.195 12.452,15.19 12.497,15.192 L12.685,15.238 C12.75,15.258 12.723,15.298 12.774,15.306 C12.882,15.316 13.048,15.218 13.137,15.16 L13.316,15.068 C13.388,15.03 13.452,14.986 13.517,14.942 C13.639,14.849 13.74,14.726 13.801,14.588 C13.822,14.548 13.881,14.454 13.885,14.429 C13.893,14.39 13.853,14.368 13.868,14.335 C13.888,14.289 13.97,14.225 13.989,14.173 C14.006,14.146 14.001,14.102 13.974,14.086 C13.947,14.075 13.93,14.089 13.878,14.075 C13.917,13.97 13.988,13.869 14.048,13.775 C14.075,13.735 14.124,13.661 14.125,13.61 C14.125,13.553 14.074,13.551 14.053,13.528 C14.032,13.511 14.037,13.498 14.024,13.493 C13.997,13.483 13.956,13.505 13.93,13.501 C13.911,13.503 13.897,13.491 13.884,13.486 C13.864,13.476 13.84,13.484 13.821,13.486 C13.793,13.4 13.852,13.243 13.88,13.158 C13.936,12.976 14.012,12.792 13.984,12.598 L13.956,12.449 C13.947,12.431 13.932,12.407 13.908,12.415 C13.871,12.425 13.839,12.535 13.823,12.568 L13.739,12.721 C13.717,12.755 13.703,12.801 13.675,12.828 C13.652,12.849 13.616,12.865 13.586,12.881 C13.576,12.85 13.558,12.858 13.534,12.866 L13.42,12.927 C13.397,12.942 13.35,12.978 13.319,12.981 C13.294,12.983 13.279,12.965 13.243,12.975 C13.218,12.977 13.175,12.993 13.156,12.989 C13.13,12.985 13.102,12.962 13.077,12.958 C13.057,12.953 13.021,12.963 13.002,12.971 C12.94,12.977 12.842,12.947 12.778,12.934 C12.789,12.927 12.802,12.926 12.801,12.913 C12.81,12.881 12.76,12.828 12.821,12.81 C12.827,12.81 12.84,12.808 12.846,12.808 L12.953,12.805 L13.015,12.793 C13.047,12.796 13.055,12.814 13.099,12.81 L13.252,12.771 C13.315,12.766 13.34,12.827 13.405,12.783 C13.458,12.747 13.507,12.622 13.526,12.563 L13.581,12.426 L13.602,12.329 C13.626,12.257 13.647,12.223 13.639,12.142 L13.626,12.023 C13.621,11.973 13.61,11.936 13.559,11.985 C13.519,12.026 13.505,12.072 13.441,12.065 C13.424,12.142 13.435,12.242 13.358,12.287 C13.329,12.309 13.296,12.299 13.266,12.308 C13.248,12.316 13.224,12.331 13.211,12.326 C13.192,12.328 13.178,12.316 13.176,12.297 C13.18,12.272 13.222,12.255 13.24,12.247 C13.301,12.223 13.331,12.214 13.376,12.159 C13.403,12.119 13.406,12.087 13.427,12.054 C13.45,12.026 13.469,12.031 13.491,12.004 C13.508,11.983 13.539,11.917 13.555,11.89 L13.631,11.662 C13.668,11.595 13.73,11.584 13.746,11.5 L13.756,11.531 C13.822,11.499 13.821,11.436 13.809,11.374 C13.846,11.371 13.922,11.377 13.953,11.368 L14.095,11.279 C14.13,11.257 14.189,11.214 14.197,11.175 C14.207,11.149 14.166,11.064 14.152,11.046 C14.144,11.034 14.137,11.028 14.124,11.023 C14.091,11.014 14.049,11.024 14.025,10.982 C13.996,10.946 13.964,10.823 13.94,10.774 C13.888,10.646 13.885,10.672 13.86,10.623 C13.844,10.593 13.847,10.561 13.844,10.53 C13.835,10.505 13.82,10.488 13.819,10.475 C13.816,10.45 13.834,10.436 13.851,10.415 C13.877,10.369 13.873,10.331 13.902,10.303 C13.925,10.282 13.945,10.293 13.955,10.273 C13.994,10.219 13.901,10.177 13.932,10.117 C13.948,10.09 13.993,10.042 14.025,10.039 C14.049,10.031 14.069,10.042 14.093,10.033 C14.117,10.018 14.119,9.974 14.128,9.948 C14.153,9.882 14.191,9.885 14.2,9.796 C14.203,9.764 14.205,9.719 14.19,9.696 C14.16,9.66 14.119,9.689 14.11,9.715 C14.088,9.749 14.093,9.793 14.097,9.83 C14.094,9.869 14.087,9.92 14.066,9.953 C14.039,10 13.985,9.967 13.97,9.943 C13.963,9.931 13.968,9.918 13.966,9.905 C13.967,9.855 13.952,9.837 13.965,9.779 C13.968,9.753 13.992,9.682 13.985,9.67 C13.983,9.651 13.925,9.586 13.911,9.569 C13.883,9.54 13.832,9.475 13.784,9.504 C13.742,9.527 13.751,9.608 13.743,9.653 C13.739,9.673 13.73,9.711 13.712,9.713 C13.7,9.72 13.679,9.703 13.666,9.692 C13.63,9.657 13.609,9.634 13.603,9.577 C13.622,9.582 13.674,9.596 13.678,9.571 C13.675,9.546 13.645,9.504 13.62,9.506 C13.595,9.502 13.591,9.528 13.557,9.506 C13.53,9.483 13.468,9.381 13.439,9.346 C13.403,9.298 13.348,9.259 13.294,9.232 C13.262,9.222 13.157,9.181 13.127,9.203 C13.115,9.21 13.117,9.229 13.113,9.242 C13.106,9.236 13.099,9.231 13.086,9.232 C13.041,9.223 13.028,9.275 13.025,9.307 C13.026,9.319 13.029,9.344 13.011,9.352 C12.993,9.36 12.979,9.349 12.965,9.338 C12.931,9.315 12.93,9.309 12.885,9.294 C12.894,9.319 12.903,9.343 12.918,9.367 C12.955,9.414 12.98,9.412 12.974,9.476 C12.921,9.455 12.861,9.429 12.826,9.388 L12.874,9.371 L12.873,9.359 C12.853,9.348 12.784,9.297 12.781,9.272 C12.78,9.253 12.804,9.251 12.802,9.232 C12.807,9.213 12.787,9.202 12.796,9.176 C12.813,9.155 12.849,9.139 12.847,9.114 C12.845,9.102 12.831,9.09 12.818,9.085 C12.791,9.069 12.743,9.035 12.715,9.063 C12.692,9.084 12.709,9.127 12.697,9.185 C12.677,9.18 12.644,9.164 12.624,9.159 C12.599,9.155 12.569,9.171 12.536,9.155 C12.49,9.14 12.473,9.103 12.434,9.088 C12.361,9.057 12.3,9.075 12.232,9.087 C12.201,9.09 12.151,9.094 12.121,9.11 C12.097,9.125 12.087,9.144 12.076,9.164 C12.048,9.198 11.994,9.216 11.999,9.266 C12.01,9.309 12.048,9.312 12.062,9.324 L12.102,9.402 C12.059,9.413 12.039,9.402 12.001,9.405 L11.853,9.437 C11.778,9.438 11.754,9.396 11.708,9.375 C11.682,9.364 11.663,9.366 11.643,9.355 C11.622,9.338 11.62,9.319 11.613,9.313 C11.598,9.296 11.535,9.289 11.516,9.291 C11.517,9.303 11.518,9.309 11.507,9.323 C11.496,9.343 11.443,9.373 11.418,9.375 C11.406,9.383 11.387,9.378 11.373,9.373 L11.377,9.347 C11.38,9.315 11.361,9.317 11.337,9.326 C11.3,9.335 11.278,9.362 11.248,9.384 C11.259,9.364 11.269,9.338 11.285,9.317 C11.308,9.297 11.339,9.287 11.369,9.272 L11.463,9.213 C11.487,9.198 11.523,9.182 11.54,9.168 C11.593,9.125 11.604,8.992 11.59,8.923 C11.493,8.964 11.519,8.968 11.454,9.005 C11.43,9.02 11.417,9.021 11.399,9.029 C11.382,9.044 11.378,9.063 11.374,9.082 L11.374,9.082 z M12.037,8.852 L12.098,8.897 L12.145,8.981 C12.181,8.965 12.186,8.952 12.21,8.944 C12.222,8.937 12.3,8.955 12.282,8.906 C12.275,8.9 12.268,8.894 12.261,8.889 L12.257,8.908 C12.236,8.891 12.208,8.868 12.182,8.858 C12.156,8.848 12.068,8.849 12.037,8.852 L12.037,8.852 z M12.248,8.884 C12.335,8.876 12.32,8.852 12.37,8.847 C12.394,8.839 12.433,8.848 12.459,8.852 L12.455,8.878 C12.508,8.898 12.505,8.867 12.544,8.876 C12.583,8.891 12.607,8.94 12.672,8.959 C12.699,8.97 12.712,8.975 12.735,8.96 C12.751,8.984 12.757,8.983 12.782,8.981 C12.785,8.949 12.803,8.941 12.795,8.923 C12.786,8.905 12.721,8.879 12.715,8.943 C12.693,8.913 12.704,8.906 12.696,8.888 C12.674,8.858 12.63,8.856 12.599,8.865 C12.586,8.803 12.594,8.821 12.508,8.778 C12.481,8.761 12.421,8.735 12.389,8.732 C12.351,8.729 12.341,8.755 12.312,8.77 C12.295,8.791 12.275,8.786 12.258,8.8 C12.241,8.821 12.245,8.858 12.248,8.884 L12.248,8.884 z M13.568,8.607 L13.647,8.695 C13.677,8.736 13.706,8.778 13.742,8.813 C13.769,8.835 13.809,8.851 13.846,8.841 C13.87,8.833 13.944,8.756 13.883,8.724 C13.863,8.713 13.833,8.728 13.815,8.73 C13.816,8.686 13.814,8.661 13.803,8.617 C13.801,8.605 13.799,8.58 13.774,8.588 C13.744,8.604 13.78,8.695 13.732,8.668 L13.712,8.657 L13.692,8.64 C13.669,8.667 13.696,8.678 13.717,8.701 C13.745,8.724 13.766,8.747 13.77,8.785 C13.702,8.74 13.698,8.703 13.655,8.65 C13.626,8.621 13.606,8.603 13.568,8.607 L13.568,8.607 z M13.839,8.545 C13.856,8.587 13.923,8.683 13.969,8.697 C13.938,8.643 13.898,8.565 13.839,8.545 L13.839,8.545 z M9.214,9.004 C9.233,9.003 9.258,9 9.271,8.999 L9.434,9.048 C9.479,9.056 9.523,9.059 9.553,9.1 C9.472,9.108 9.489,9.093 9.425,9.08 C9.367,9.073 9.349,9.087 9.305,9.085 C9.279,9.081 9.266,9.075 9.247,9.071 L9.08,9.099 C9.035,9.096 9.026,9.065 8.999,9.055 C8.972,9.039 8.948,9.047 8.924,9.062 C8.882,9.078 8.841,9.107 8.8,9.136 C8.723,9.187 8.635,9.246 8.58,9.321 C8.541,9.375 8.551,9.405 8.513,9.459 C8.474,9.507 8.384,9.553 8.323,9.635 C8.279,9.695 8.283,9.733 8.267,9.753 C8.256,9.767 8.178,9.812 8.16,9.82 C8.142,9.828 8.124,9.829 8.112,9.837 C8.094,9.851 8.084,9.871 8.073,9.891 L8.012,9.96 C7.995,9.987 7.93,10.087 7.927,10.113 C7.925,10.157 7.997,10.176 7.959,10.236 C7.954,10.243 7.948,10.25 7.942,10.257 C7.901,10.286 7.89,10.243 7.859,10.239 C7.82,10.23 7.762,10.279 7.727,10.251 C7.706,10.228 7.715,10.195 7.712,10.17 C7.703,10.139 7.689,10.128 7.68,10.103 C7.664,10.073 7.677,10.015 7.632,9.956 C7.61,9.92 7.583,9.91 7.563,9.956 L7.548,9.995 C7.524,9.94 7.538,9.895 7.493,9.886 C7.435,9.879 7.417,9.95 7.384,9.991 C7.3,10.093 7.286,10.082 7.222,10.132 L7.138,10.222 L7.085,10.258 C7.056,10.286 7.037,10.345 7.022,10.384 L6.961,10.636 C6.948,10.688 6.925,10.772 6.871,10.79 C6.852,10.798 6.796,10.796 6.776,10.792 C6.756,10.781 6.742,10.763 6.722,10.759 C6.703,10.76 6.653,10.765 6.607,10.744 C6.579,10.721 6.543,10.674 6.516,10.663 C6.49,10.653 6.465,10.655 6.44,10.658 C6.409,10.66 6.365,10.664 6.339,10.66 C6.274,10.641 6.232,10.543 6.207,10.489 C6.199,10.464 6.182,10.428 6.162,10.417 C6.134,10.394 6.101,10.435 6.068,10.425 C6.043,10.421 5.986,10.363 5.953,10.347 C5.946,10.342 5.925,10.324 5.913,10.332 C5.901,10.333 5.897,10.359 5.892,10.372 C5.891,10.422 5.905,10.434 5.934,10.469 C5.941,10.475 5.962,10.498 5.945,10.512 C5.916,10.534 5.874,10.437 5.841,10.484 C5.836,10.497 5.837,10.503 5.831,10.51 L5.819,10.511 L5.789,10.406 L5.784,10.362 L5.742,10.265 L5.69,10.314 L5.678,10.258 L5.661,10.215 C5.651,10.185 5.626,10.187 5.603,10.202 C5.556,10.237 5.524,10.291 5.495,10.313 C5.459,10.335 5.432,10.318 5.408,10.327 C5.378,10.342 5.357,10.382 5.348,10.414 L5.3,10.672 C5.258,10.871 5.232,10.918 5.255,11.131 L5.28,11.249 L5.304,11.411 L5.325,11.492 L5.338,11.49 C5.329,11.409 5.331,11.257 5.354,11.179 C5.377,11.095 5.413,11.079 5.415,10.977 L5.43,11.058 C5.464,11.024 5.461,10.999 5.509,10.975 C5.525,11.006 5.532,11.011 5.542,11.048 C5.552,11.079 5.555,11.104 5.571,11.134 C5.586,11.164 5.599,11.17 5.615,11.194 C5.629,11.211 5.639,11.242 5.648,11.267 C5.665,11.309 5.679,11.378 5.731,11.392 C5.751,11.346 5.745,11.289 5.746,11.239 C5.751,11.226 5.753,11.188 5.765,11.18 C5.795,11.171 5.808,11.227 5.81,11.246 C5.827,11.295 5.84,11.357 5.87,11.398 C5.901,11.452 5.926,11.444 5.966,11.529 L5.975,11.496 C5.992,11.539 5.971,11.573 6.018,11.6 C6.015,11.575 6.01,11.468 6.021,11.448 C6.026,11.435 6.044,11.433 6.057,11.432 L6.086,11.644 C6.089,11.67 6.098,11.7 6.113,11.718 C6.148,11.753 6.189,11.724 6.205,11.754 L6.23,11.866 C6.251,11.946 6.28,12.044 6.313,12.117 C6.338,12.172 6.371,12.245 6.413,12.285 C6.428,12.303 6.449,12.327 6.474,12.318 C6.498,12.309 6.488,12.279 6.493,12.259 C6.496,12.234 6.508,12.226 6.512,12.207 C6.515,12.175 6.505,12.138 6.521,12.111 C6.512,12.15 6.526,12.155 6.53,12.193 C6.535,12.243 6.547,12.299 6.565,12.348 C6.592,12.421 6.612,12.489 6.657,12.554 C6.687,12.596 6.755,12.647 6.796,12.681 C6.853,12.739 6.909,12.791 6.978,12.842 L7.06,12.898 L7.127,12.942 C7.188,12.975 7.194,12.917 7.231,12.914 C7.251,12.919 7.319,12.969 7.34,12.987 C7.445,13.085 7.411,13.056 7.483,13.145 L7.647,13.319 C7.689,13.36 7.742,13.438 7.8,13.445 L7.857,13.452 C7.922,13.466 7.994,13.491 8.061,13.472 C8.086,13.47 8.103,13.456 8.114,13.442 C8.131,13.422 8.141,13.395 8.166,13.393 C8.192,13.397 8.251,13.423 8.277,13.434 C8.344,13.466 8.438,13.52 8.509,13.533 C8.58,13.546 8.631,13.49 8.619,13.441 C8.601,13.392 8.526,13.342 8.486,13.263 C8.448,13.197 8.421,13.124 8.377,13.064 L8.275,12.941 L8.214,12.845 L8.185,12.803 C8.177,12.791 8.166,12.748 8.164,12.729 L8.095,12.552 C8.063,12.492 8,12.497 7.96,12.412 C7.989,12.448 8.044,12.493 8.083,12.509 C8.066,12.46 8.026,12.381 7.996,12.339 L7.932,12.276 C7.967,12.304 7.995,12.327 8.04,12.335 L8.053,12.284 C8.073,12.231 8.091,12.223 8.09,12.16 C8.085,12.053 7.986,11.898 7.972,11.766 C7.966,11.71 7.979,11.652 7.985,11.594 L7.987,11.493 C7.985,11.474 7.996,11.46 8,11.435 L7.999,11.365 C8.007,11.326 8.012,11.313 8.008,11.276 L7.978,11.171 L7.976,11.095 L7.965,10.995 C7.957,10.92 7.997,10.885 8.004,10.833 C8.008,10.808 7.976,10.741 7.962,10.73 C7.942,10.719 7.899,10.729 7.914,10.696 C7.929,10.663 7.986,10.721 8.001,10.739 C8.019,10.674 8.005,10.662 7.993,10.607 L7.969,10.444 C7.958,10.401 7.93,10.378 7.928,10.359 C7.933,10.34 7.951,10.338 7.974,10.311 C7.996,10.284 8.005,10.251 8.008,10.22 L8.009,10.112 C8.016,10.061 8.059,9.993 8.114,9.976 C8.17,9.965 8.226,10.023 8.258,10.02 C8.289,10.017 8.304,9.984 8.315,9.964 L8.387,9.755 L8.399,9.754 C8.43,9.808 8.463,9.818 8.505,9.859 L8.541,9.9 C8.548,9.905 8.56,9.898 8.572,9.891 C8.594,9.863 8.621,9.76 8.605,9.73 C8.596,9.705 8.568,9.682 8.559,9.651 C8.557,9.633 8.567,9.613 8.578,9.593 C8.592,9.554 8.6,9.509 8.629,9.481 C8.685,9.419 8.797,9.409 8.866,9.459 C8.901,9.488 8.896,9.507 8.911,9.525 C8.932,9.548 8.964,9.546 8.974,9.583 C8.975,9.595 8.972,9.627 8.968,9.646 C8.972,9.684 8.98,9.696 8.965,9.735 C8.944,9.775 8.909,9.803 8.895,9.849 C8.876,9.901 8.908,9.905 8.9,9.95 C8.886,9.995 8.852,10.03 8.838,10.075 C8.822,10.102 8.824,10.127 8.795,10.149 C8.772,10.164 8.733,10.161 8.708,10.163 C8.671,10.173 8.642,10.194 8.613,10.209 C8.614,10.222 8.615,10.235 8.623,10.247 C8.633,10.284 8.664,10.281 8.695,10.272 C8.744,10.261 8.809,10.223 8.858,10.263 C8.9,10.304 8.913,10.423 8.949,10.464 C8.983,10.492 9.008,10.49 9.047,10.499 C9.074,10.51 9.094,10.521 9.114,10.538 C9.163,10.578 9.148,10.611 9.17,10.64 C9.19,10.657 9.208,10.649 9.23,10.673 L9.322,10.823 L9.385,10.766 C9.406,10.79 9.431,10.787 9.434,10.755 C9.432,10.737 9.422,10.7 9.414,10.681 C9.456,10.722 9.459,10.753 9.459,10.81 C9.46,10.823 9.455,10.836 9.463,10.848 C9.466,10.873 9.496,10.921 9.517,10.938 C9.544,10.954 9.562,10.946 9.586,10.932 C9.607,10.898 9.62,10.84 9.653,10.799 C9.681,10.765 9.737,10.754 9.787,10.692 C9.774,10.687 9.734,10.672 9.738,10.652 C9.748,10.626 9.786,10.623 9.809,10.608 C9.844,10.579 9.871,10.533 9.879,10.488 L9.802,10.482 L9.757,10.473 L9.695,10.479 L9.633,10.434 L9.544,10.429 C9.559,10.396 9.57,10.376 9.607,10.373 C9.626,10.371 9.653,10.382 9.664,10.374 C9.689,10.366 9.686,10.341 9.703,10.326 C9.737,10.285 9.786,10.275 9.793,10.223 C9.845,10.232 9.856,10.218 9.881,10.222 C9.934,10.242 9.95,10.336 9.974,10.384 C9.909,10.365 9.922,10.421 9.92,10.465 C9.944,10.45 9.972,10.416 9.996,10.408 L10.078,10.407 C10.097,10.405 10.102,10.398 10.12,10.39 C10.163,10.38 10.192,10.409 10.214,10.445 C10.238,10.43 10.237,10.418 10.222,10.394 L10.253,10.391 L10.235,10.342 C10.204,10.345 10.197,10.339 10.188,10.372 C10.161,10.355 10.161,10.355 10.129,10.352 L10.152,10.331 L10.15,10.318 C10.097,10.291 10.158,10.273 10.167,10.241 C10.171,10.221 10.164,10.209 10.156,10.197 L10.235,10.165 C10.268,10.124 10.297,10.153 10.311,10.108 C10.375,10.121 10.354,10.04 10.403,10.023 C10.414,10.016 10.434,10.021 10.446,10.019 C10.464,10.012 10.482,10.004 10.5,9.996 C10.525,9.993 10.538,9.992 10.562,9.984 C10.586,9.969 10.607,9.935 10.624,9.915 C10.635,9.901 10.658,9.88 10.663,9.867 C10.667,9.848 10.659,9.83 10.656,9.798 C10.682,9.802 10.7,9.801 10.717,9.78 C10.734,9.766 10.732,9.741 10.705,9.731 C10.699,9.731 10.68,9.733 10.674,9.733 L10.76,9.656 L10.777,9.579 L10.753,9.587 L10.762,9.549 L10.693,9.555 C10.704,9.541 10.737,9.5 10.748,9.486 C10.778,9.465 10.81,9.468 10.824,9.429 C10.763,9.441 10.687,9.498 10.648,9.546 L10.587,9.627 L10.591,9.602 C10.529,9.62 10.533,9.658 10.51,9.672 L10.498,9.68 C10.517,9.678 10.391,9.683 10.411,9.688 C10.379,9.684 10.344,9.656 10.316,9.633 C10.296,9.616 10.281,9.598 10.258,9.613 L10.14,9.522 C10.152,9.508 10.157,9.502 10.143,9.49 C10.129,9.479 10.097,9.469 10.07,9.453 C10.021,9.413 10.024,9.374 10.018,9.318 C10.012,9.268 10.006,9.269 9.989,9.226 C9.981,9.208 9.979,9.195 9.965,9.177 C9.95,9.16 9.916,9.137 9.895,9.12 C9.868,9.098 9.833,9.069 9.801,9.066 C9.756,9.057 9.722,9.085 9.683,9.076 C9.65,9.066 9.608,9.026 9.568,9.011 C9.543,9.007 9.511,9.009 9.486,9.012 C9.485,8.999 9.482,8.974 9.469,8.969 C9.449,8.958 9.413,8.974 9.388,8.976 C9.363,8.978 9.355,8.96 9.335,8.956 C9.316,8.951 9.228,8.953 9.217,8.966 C9.205,8.973 9.213,8.992 9.214,9.004 L9.214,9.004 z M13.679,8.35 C13.73,8.415 13.822,8.502 13.899,8.514 C13.876,8.478 13.856,8.473 13.829,8.451 C13.788,8.423 13.719,8.366 13.679,8.35 L13.679,8.35 z M13.179,8.098 L13.163,8.068 C13.19,8.078 13.216,8.088 13.231,8.112 C13.239,8.13 13.241,8.143 13.243,8.162 C13.247,8.199 13.312,8.282 13.351,8.285 C13.364,8.29 13.363,8.284 13.376,8.283 L13.343,8.159 C13.329,8.141 13.311,8.149 13.289,8.126 L13.159,7.973 C13.152,7.961 13.123,7.926 13.127,7.907 C13.138,7.893 13.169,7.89 13.182,7.889 L13.063,7.779 C13.049,7.768 13.028,7.745 13.003,7.753 C12.979,7.762 12.97,7.794 12.959,7.814 C12.949,7.834 12.932,7.854 12.934,7.873 C12.943,7.898 12.972,7.927 12.986,7.944 L13.097,8.036 C13.125,8.065 13.139,8.082 13.179,8.098 L13.179,8.098 z M14.799,8.085 C14.782,7.992 14.722,7.902 14.652,7.833 L14.541,7.741 C14.498,7.695 14.452,7.617 14.389,7.559 C14.32,7.502 14.268,7.488 14.206,7.443 L14.102,7.351 L13.915,7.197 C13.866,7.157 13.809,7.092 13.772,7.045 C13.735,6.992 13.745,6.972 13.724,6.948 C13.709,6.931 13.657,6.91 13.631,6.906 L13.641,6.88 L13.595,6.859 C13.62,6.806 13.584,6.822 13.548,6.774 C13.533,6.757 13.531,6.732 13.508,6.696 C13.472,6.655 13.424,6.621 13.377,6.594 L13.149,6.469 C13.076,6.431 12.975,6.377 12.893,6.372 C12.829,6.371 12.789,6.406 12.727,6.418 C12.672,6.429 12.552,6.428 12.513,6.481 C12.474,6.529 12.572,6.615 12.607,6.65 L12.706,6.749 C12.734,6.778 12.743,6.796 12.771,6.831 C12.799,6.854 12.853,6.887 12.875,6.917 C12.897,6.947 12.861,6.956 12.89,6.998 C12.913,7.034 12.969,7.079 12.985,7.116 C12.994,7.14 12.998,7.178 13.019,7.195 C13.039,7.206 13.063,7.191 13.081,7.189 C13.112,7.18 13.202,7.134 13.229,7.151 C13.256,7.167 13.348,7.26 13.369,7.284 C13.383,7.295 13.411,7.324 13.407,7.344 C13.41,7.375 13.312,7.34 13.335,7.382 C13.343,7.394 13.403,7.426 13.424,7.443 L13.501,7.512 L13.59,7.58 C13.611,7.597 13.633,7.633 13.654,7.644 C13.693,7.659 13.713,7.613 13.747,7.636 C13.814,7.668 13.862,7.758 13.931,7.815 C13.978,7.843 13.99,7.835 14.029,7.851 C14.062,7.867 14.084,7.89 14.118,7.912 C14.171,7.939 14.175,7.92 14.238,7.971 C14.321,8.04 14.391,8.109 14.463,8.185 C14.491,8.214 14.561,8.277 14.593,8.287 C14.6,8.286 14.606,8.286 14.612,8.285 L14.684,8.247 C14.684,8.247 14.69,8.247 14.689,8.24 C14.694,8.221 14.691,8.196 14.695,8.177 C14.699,8.157 14.711,8.15 14.715,8.124 C14.719,8.105 14.715,8.067 14.733,8.059 C14.751,8.052 14.786,8.08 14.799,8.085 L14.799,8.085 z M13.274,6.457 C13.271,6.432 13.264,6.427 13.255,6.402 C13.218,6.349 13.177,6.314 13.118,6.294 C13.098,6.29 13.04,6.276 13.03,6.296 C13.013,6.323 13.081,6.367 13.101,6.378 C13.122,6.395 13.148,6.406 13.169,6.423 C13.21,6.444 13.229,6.449 13.274,6.457 L13.274,6.457 z M10.827,5.931 C10.909,5.936 10.941,5.933 11.02,5.964 C11.092,5.989 11.134,6.03 11.217,6.035 L11.124,5.936 L11.177,5.899 C11.149,5.877 11.137,5.878 11.11,5.861 C11.096,5.85 11.095,5.837 11.081,5.826 C11.068,5.827 11.037,5.83 11.024,5.831 C10.987,5.841 10.957,5.85 10.915,5.866 C10.878,5.876 10.828,5.886 10.827,5.931 L10.827,5.931 z M11.206,5.758 C11.197,5.79 11.166,5.799 11.137,5.821 C11.144,5.827 11.144,5.833 11.151,5.838 C11.171,5.849 11.274,5.865 11.3,5.869 C11.363,5.87 11.365,5.832 11.439,5.819 L11.532,5.804 C11.62,5.796 11.739,5.792 11.817,5.753 C11.787,5.712 11.769,5.713 11.723,5.699 C11.651,5.68 11.575,5.674 11.502,5.699 C11.435,5.718 11.437,5.743 11.35,5.751 L11.206,5.758 L11.206,5.758 z M9.879,16.478 C8.42,16.166 10.176,16.539 9.879,16.478 L9.879,16.478 z" fill="#FFFFFF"/>
    </g>
  </g>
</svg>
