<svg width="100%" height="100%" viewBox="0 0 1000 707" version="1.1" xmlns="http://www.w3.org/2000/svg" xmlns:xlink="http://www.w3.org/1999/xlink" xml:space="preserve" style="fill-rule:evenodd;clip-rule:evenodd;stroke-miterlimit:1.41421;"><g transform="matrix(0.666667,0,0,0.666667,0,0)"><g id="Background"><rect x="0" y="0" width="1500" height="1060" style="fill:#fff;"/></g><g id="Layout"><g id="footer"><g transform="matrix(1,0,0,1,20,1052)"><g id="copyright"><g><text x="0px" y="0px" style="font-family:'Lato-Regular', 'Lato', sans-serif;font-size:12px;fill:#666;">©</text><text x="11.892px" y="0px" style="font-family:'ProximaNova-Regular', 'Proxima Nova';font-size:12px;fill:#666;">UNHCR</text></g></g></g><g transform="matrix(1,0,0,1,80,1052)"><g id="copyrightYear"><text x="0px" y="0px" style="font-family:'ProximaNova-Regular', 'Proxima Nova';font-size:12px;fill:#666;">2015</text></g></g></g><g transform="matrix(1,0,0,1,664.512,377.428)"><g><text x="523.642px" y="669.438px" style="font-family:'ProximaNova-Regular', 'Proxima Nova';font-size:12.5px;fill-opacity:0.741176;">For more information, please contact</text><text x="727.904px" y="669.438px" style="font-family:'ProximaNova-Regular', 'Proxima Nova';font-size:12.5px;fill:#0400ff;fill-opacity:0.741176;">stats@unhcr.org</text></g></g><g id="frame1"><g id="mapcontainer" transform="matrix(1,0,0,0.988373,0,9.18534)"><rect x="20" y="60" width="1460" height="730" style="fill-opacity:0.2;fill-rule:nonzero;"/></g><rect id="yearbuttoncontainer" x="20" y="1005" width="1460" height="25" style="fill:#f00;fill-opacity:0.06;fill-rule:nonzero;"/><g id="colchartbg" transform="matrix(1,8.60695e-18,1.08055e-17,1.21132,-2.12646e-14,-216.561)"><rect x="20" y="835" width="1460" height="162.718" style="fill:#fff;fill-rule:nonzero;"/></g><g id="timelinecontainer" transform="matrix(1,8.60695e-18,8.60695e-18,0.964859,-1.76619e-14,29.3424)"><rect x="20" y="835" width="1460" height="162.718" style="fill-opacity:0.2;fill-rule:nonzero;"/></g><g id="toggle"><g id="togglebg"><path id="oval" d="M263,777.5C256.7,777.5 251.5,772.3 251.5,766C251.5,759.7 256.7,754.5 263,754.5L284,754.5C290.3,754.5 295.5,759.7 295.5,766C295.5,772.3 290.3,777.5 284,777.5L263,777.5Z" style="fill:#fff;fill-rule:nonzero;"/><path d="M284,755C290.1,755 295,759.9 295,766C295,772.1 290.1,777 284,777L263,777C256.9,777 252,772.1 252,766C252,759.9 256.9,755 263,755L284,755M284,754L263,754C256.4,754 251,759.4 251,766C251,772.6 256.4,778 263,778L284,778C290.6,778 296,772.6 296,766C296,759.4 290.6,754 284,754Z" style="fill:#333;fill-rule:nonzero;"/></g><path id="circletoggle" d="M271,766C271,770.694 267.194,774.5 262.5,774.5C257.806,774.5 254,770.694 254,766C254,761.306 257.806,757.5 262.5,757.5C267.194,757.5 271,761.306 271,766Z" style="fill:#333;fill-rule:nonzero;"/><path id="indtoggle" d="M262.5,766.3C261.2,766.3 260.1,765.2 260.1,763.9C260.1,762.6 261.2,761.5 262.5,761.5C263.8,761.5 264.9,762.6 264.9,763.9C264.9,765.2 263.8,766.3 262.5,766.3ZM266.4,769.5C265.8,768.3 264.9,767.1 262.7,767.1L262.5,767.1L262.3,767.1C260.1,767.1 259.2,768.4 258.6,769.5C258.5,769.6 258.5,769.1 258.4,771.1L266.6,771.1C266.5,769.1 266.5,769.7 266.4,769.5Z" style="fill:#fff;fill-rule:nonzero;"/><path id="pertoggle" d="M283.8,763.7C283.8,764 283.7,764.2 283.6,764.5C283.5,764.7 283.4,764.9 283.2,765.1C283,765.3 282.8,765.4 282.6,765.5C282.4,765.6 282.1,765.6 281.9,765.6C281.6,765.6 281.4,765.6 281.2,765.5C281,765.4 280.8,765.3 280.6,765.1C280.4,764.9 280.3,764.8 280.2,764.5C280.1,764.3 280.1,764 280.1,763.7C280.1,763.4 280.1,763.2 280.2,762.9C280.3,762.7 280.4,762.5 280.6,762.3C280.8,762.1 281,762 281.2,761.9C281.4,761.8 281.7,761.8 281.9,761.8C282.2,761.8 282.4,761.8 282.6,761.9C282.8,762 283,762.1 283.2,762.3C283.4,762.5 283.5,762.7 283.6,762.9C283.7,763.1 283.8,763.4 283.8,763.7ZM287,761.8C287.1,761.7 287.1,761.7 287.2,761.6C287.3,761.6 287.4,761.5 287.5,761.5L288.6,761.5L281.9,770.3C281.8,770.4 281.8,770.4 281.7,770.5C281.6,770.6 281.5,770.6 281.4,770.6L280.3,770.6L287,761.8ZM288.9,768.4C288.9,768.7 288.8,768.9 288.7,769.2C288.6,769.4 288.5,769.6 288.3,769.8C288.1,770 287.9,770.1 287.7,770.2C287.5,770.3 287.2,770.3 287,770.3C286.7,770.3 286.5,770.3 286.3,770.2C286.1,770.1 285.9,770 285.7,769.8C285.5,769.6 285.4,769.5 285.3,769.2C285.2,769 285.2,768.7 285.2,768.4C285.2,768.1 285.2,767.9 285.3,767.6C285.4,767.4 285.5,767.2 285.7,767C285.9,766.8 286.1,766.7 286.3,766.6C286.5,766.5 286.8,766.5 287,766.5C287.3,766.5 287.5,766.5 287.7,766.6C287.9,766.7 288.1,766.8 288.3,767C288.5,767.2 288.6,767.4 288.7,767.6C288.8,767.8 288.9,768.1 288.9,768.4Z" style="fill:#333;fill-rule:nonzero;"/><g id="togglehelper"><g><path d="M270.5,742.5L274.941,747.5L279.382,742.5" style="fill:#7e7e7e;fill-rule:nonzero;"/><path d="M270.5,742.5L274.941,747.5L279.382,742.5" style="fill-opacity:0;fill-rule:nonzero;stroke:#717171;stroke-width:1px;"/></g><g id="showvalues" transform="matrix(1,0,0,1,276.906,729.012)"><g transform="matrix(1,0,0,1,-80.854,-10.072)"><text x="0px" y="0px" style="font-family:'ProximaNova-Regular', 'Proxima Nova';font-size:13px;fill:#7c7c7c;">switch between percentages</text></g><g transform="matrix(1,0,0,1,-55.653,5.928)"><text x="0px" y="0px" style="font-family:'ProximaNova-Regular', 'Proxima Nova';font-size:13px;fill:#7c7c7c;">and absolute values</text></g></g></g><path id="togglemask" d="M263,777.5C256.7,777.5 251.5,772.3 251.5,766C251.5,759.7 256.7,754.5 263,754.5L284,754.5C290.3,754.5 295.5,759.7 295.5,766C295.5,772.3 290.3,777.5 284,777.5L263,777.5Z" style="fill:#fff;fill-opacity:0.00625882;fill-rule:nonzero;"/></g><g id="poptypefilters"><rect x="20" y="790" width="1460" height="30" style="fill:#eee;fill-rule:nonzero;"/><g id="refgroup"><path d="M49.641,804.25C49.641,808.393 46.363,811.75 42.32,811.75C38.277,811.75 35,808.393 35,804.25C35,800.108 38.277,796.75 42.32,796.75C46.363,796.75 49.641,800.108 49.641,804.25Z" style="fill:#f8b7b7;fill-rule:nonzero;stroke:#f39899;stroke-width:1px;stroke-linejoin:round;"/><g transform="matrix(1,0,0,1,59.401,809)"><g><text x="0px" y="0px" style="font-family:'ProximaNova-Regular', 'Proxima Nova';font-size:14px;">Refugees</text></g></g><g transform="matrix(1,0,0,1,240.95,809)"><g id="refval"><text x="0px" y="0px" style="font-family:'ProximaNova-Bold', 'Proxima Nova';font-weight:700;font-size:14px;">0</text></g></g><rect id="ref" x="20" y="790" width="243.333" height="30" style="fill:#fff;fill-opacity:0.0122824;fill-rule:nonzero;"/></g><g id="asygroup"><path d="M294.641,804.25C294.641,808.393 291.363,811.75 287.32,811.75C283.277,811.75 280,808.393 280,804.25C280,800.108 283.277,796.75 287.32,796.75C291.363,796.75 294.641,800.108 294.641,804.25Z" style="fill:#8496ab;fill-rule:nonzero;stroke:#717d8c;stroke-width:1px;stroke-linejoin:round;"/><g transform="matrix(1,0,0,1,304.401,809)"><g><text x="0px" y="0px" style="font-family:'ProximaNova-Regular', 'Proxima Nova';font-size:14px;">Asylum-seekers</text></g></g><g transform="matrix(1,0,0,1,485.95,809)"><g id="asyval"><text x="0px" y="0px" style="font-family:'Lato-Bold', 'Lato', sans-serif;font-weight:700;font-size:14px;">0</text></g></g><rect id="asy" x="263.721" y="790" width="243.333" height="30" style="fill:#fff;fill-opacity:0.0104706;fill-rule:nonzero;"/></g><g id="idpgroup"><path d="M534.641,804.25C534.641,808.393 531.363,811.75 527.32,811.75C523.278,811.75 520,808.393 520,804.25C520,800.108 523.278,796.75 527.32,796.75C531.363,796.75 534.641,800.108 534.641,804.25Z" style="fill:#a5e0d7;fill-rule:nonzero;stroke:#98cac2;stroke-width:1px;stroke-linejoin:round;"/><g transform="matrix(1,0,0,1,544.401,809)"><g><text x="0px" y="0px" style="font-family:'ProximaNova-Regular', 'Proxima Nova';font-size:14px;">IDPs</text></g></g><g transform="matrix(1,0,0,1,730.95,809)"><g id="idpval"><text x="0px" y="0px" style="font-family:'ProximaNova-Bold', 'Proxima Nova';font-weight:700;font-size:14px;">0</text></g></g><rect id="idp" x="507.054" y="790" width="243.333" height="30" style="fill:#fff;fill-opacity:0.0104706;fill-rule:nonzero;"/></g><g id="retgroup"><path d="M779.641,804.25C779.641,808.393 776.363,811.75 772.32,811.75C768.277,811.75 765,808.393 765,804.25C765,800.108 768.277,796.75 772.32,796.75C776.363,796.75 779.641,800.108 779.641,804.25Z" style="fill:#c6c6c6;fill-rule:nonzero;stroke:#adadad;stroke-width:1px;stroke-linejoin:round;"/><g transform="matrix(1,0,0,1,789.401,809)"><g><text x="0px" y="0px" style="font-family:'ProximaNova-Regular', 'Proxima Nova';font-size:14px;">Returnees</text></g></g><g transform="matrix(1,0,0,1,970.95,809)"><g id="retval"><text x="0px" y="0px" style="font-family:'Lato-Bold', 'Lato', sans-serif;font-weight:700;font-size:14px;">0</text></g></g><rect id="ret" x="750.387" y="790" width="243.333" height="30" style="fill:#fff;fill-opacity:0.0123059;fill-rule:nonzero;"/></g><g id="stagroup"><g transform="matrix(1,0,0,1,-247,0)"><path d="M1269.64,804.25C1269.64,808.393 1266.36,811.75 1262.32,811.75C1258.28,811.75 1255,808.393 1255,804.25C1255,800.108 1258.28,796.75 1262.32,796.75C1266.36,796.75 1269.64,800.108 1269.64,804.25Z" style="fill:#a7bdb6;fill-rule:nonzero;stroke:#9cb1ab;stroke-width:0.83px;stroke-linejoin:round;"/></g><g transform="matrix(1,0,0,1,1029.4,809)"><g><text x="0px" y="0px" style="font-family:'ProximaNova-Regular', 'Proxima Nova';font-size:14px;">Stateless persons</text></g></g><g transform="matrix(1,0,0,1,1220.95,809)"><g id="staval"><text x="0px" y="0px" style="font-family:'Lato-Bold', 'Lato', sans-serif;font-weight:700;font-size:14px;">0</text></g></g><rect id="sta" x="993.72" y="790" width="245.095" height="30" style="fill:#fff;fill-opacity:0.00835294;fill-rule:nonzero;"/></g><g id="othgroup"><path d="M1269.64,804.25C1269.64,808.393 1266.36,811.75 1262.32,811.75C1258.28,811.75 1255,808.393 1255,804.25C1255,800.108 1258.28,796.75 1262.32,796.75C1266.36,796.75 1269.64,800.108 1269.64,804.25Z" style="fill:#c8aca9;fill-rule:nonzero;stroke:#ab827e;stroke-width:1px;stroke-linejoin:round;"/><g transform="matrix(1,0,0,1,1279.4,809)"><g><text x="0px" y="0px" style="font-family:'ProximaNova-Regular', 'Proxima Nova';font-size:14px;">Others</text></g></g><g transform="matrix(1,0,0,1,1455.95,809)"><g id="othval"><text x="0px" y="0px" style="font-family:'ProximaNova-Bold', 'Proxima Nova';font-weight:700;font-size:14px;">0</text></g></g><rect id="oth" x="1238.82" y="790" width="243.333" height="30" style="fill:#fff;fill-opacity:0.0104471;fill-rule:nonzero;"/></g><path d="M263.833,790.5L263.833,820.5" style="fill-opacity:0;fill-rule:nonzero;stroke:#666;stroke-width:1px;"/><path d="M507.166,790.5L507.166,820.5" style="fill-opacity:0;fill-rule:nonzero;stroke:#666;stroke-width:1px;"/><path d="M750.5,790.5L750.5,820.5" style="fill-opacity:0;fill-rule:nonzero;stroke:#666;stroke-width:1px;"/><path d="M993.833,790.5L993.833,820.5" style="fill-opacity:0;fill-rule:nonzero;stroke:#666;stroke-width:1px;"/><path d="M1239.17,790.5L1239.17,820.5" style="fill-opacity:0;fill-rule:nonzero;stroke:#666;stroke-width:1px;"/></g><g id="selectall"><g id="selectallbg"><path d="M318,754L369,754C375.627,754 381,759.373 381,766L381,767C381,773.627 375.627,779 369,779L318,779C311.373,779 306,773.627 306,767L306,766C306,759.373 311.373,754 318,754Z" style="fill:#fff;fill-rule:nonzero;"/><path d="M369,754C375.627,754 381,759.373 381,766L381,767C381,773.627 375.627,779 369,779L318,779C311.373,779 306,773.627 306,767L306,766C306,759.373 311.373,754 318,754L369,754ZM369,755L318,755C311.925,755 307,759.925 307,766L307,767C307,773.075 311.925,778 318,778L369,778C375.075,778 380,773.075 380,767L380,766C380,759.925 375.075,755 369,755Z" style="fill:#333;fill-rule:nonzero;"/></g><g transform="matrix(1,0,0,1,315.798,771.863)"><g id="selectAllText"><text x="0px" y="0px" style="font-family:'ProximaNova-Regular', 'Proxima Nova';font-size:14px;fill:#333;">Select all</text></g></g></g><g id="disclaimer" transform="matrix(1,0,0,1,1128.94,767.161)"><g transform="matrix(1,0,0,1,-526.686,4.839)"><text x="0px" y="0px" style="font-family:'ProximaNova-Regular', 'Proxima Nova';font-size:10px;fill:#666;">Historical country borders from Weidmann, Nils B., Doreen Kuse, and Kristian Skrede Gleditsch. 2010. The Geography of the International System: The CShapes Dataset. International Interactions 36 (1).</text></g><g transform="matrix(1,0,0,1,-314.831,-11.161)"><text x="0px" y="0px" style="font-family:'ProximaNova-Bold', 'Proxima Nova';font-weight:700;font-size:10px;fill:#666;">The boundaries and names shown and the designations used on this map do not imply official endorsement or acceptance by the United Nations.</text></g></g><g id="total" transform="matrix(1,0,0,1,-12,-1)"><g id="totaltext"><g transform="matrix(1,0,0,1,45,110)"><g id="totaltop"><text x="0px" y="0px" style="font-family:'ProximaNova-Bold', 'Proxima Nova';font-weight:700;font-size:30px;fill:#0077c0;">54.9 million</text></g></g><g transform="matrix(1,0,0,1,45,137)"><g id="totalsub"><text x="0px" y="0px" style="font-family:'ProximaNova-Semibold', 'Proxima Nova';font-weight:600;font-size:17.5px;fill:#333;">globally/in country name - end of YYYY</text></g></g><g transform="matrix(1,0,0,1,212,109)"><g id="totaltoppoc"><text x="0px" y="0px" style="font-family:'ProximaNova-Regular', 'Proxima Nova';font-size:18px;fill:#333;">persons of concern</text></g></g></g></g></g><g id="help" transform="matrix(1,0,0,1,-5,5)"><g opacity="0.53"><rect x="1451.79" y="15.244" width="29" height="29" style="fill:#fff;fill-rule:nonzero;"/><g transform="matrix(1,0,0,1,53,4)"><circle cx="1413.2" cy="25.73" r="11.215" style="fill:#fff;stroke:#000;stroke-width:2.5px;stroke-linecap:square;stroke-linejoin:round;"/></g><g transform="matrix(1,0,0,1,74,-7)"><text x="1386.06px" y="43.542px" style="font-family:'Arial-BoldMT', 'Arial', sans-serif;font-weight:700;font-size:19.167px;">?</text></g></g></g><g transform="matrix(1,0,0,1,1310.97,14.4731)"><text x="101.092px" y="24px" style="font-family:'ProximaNova-Regular', 'Proxima Nova';font-size:12px;fill:#717171;">HELP</text></g><g id="maplegend"><g opacity="0.82"><g transform="matrix(1,0,0,1,134.013,686.294)"><g><text x="0px" y="0px" style="font-family:'ProximaNova-Regular', 'Proxima Nova';font-size:12px;">1 million</text></g></g><g transform="matrix(1,0,0,1,134.013,651.294)"><g><text x="0px" y="0px" style="font-family:'ProximaNova-Regular', 'Proxima Nova';font-size:12px;">5 million</text></g></g><g transform="matrix(1,0,0,1,134.013,617.294)"><g><text x="0px" y="0px" style="font-family:'ProximaNova-Regular', 'Proxima Nova';font-size:12px;">10 million</text></g></g><path d="M77.802,713.141L131.802,713.141" style="fill-opacity:0;fill-rule:nonzero;stroke:#d3d3d3;stroke-width:1px;stroke-dasharray:2,2;"/><path d="M77.802,614.141L131.802,614.141" style="fill-opacity:0;fill-rule:nonzero;stroke:#d3d3d3;stroke-width:1px;stroke-dasharray:2,2;"/><path d="M77.802,643.141L131.802,643.141" style="fill-opacity:0;fill-rule:nonzero;stroke:#d3d3d3;stroke-width:1px;stroke-dasharray:2,2;"/><path d="M77.802,683.141L131.802,683.141" style="fill-opacity:0;fill-rule:nonzero;stroke:#d3d3d3;stroke-width:1px;stroke-dasharray:2,2;"/><path d="M78.095,714.04C50.481,714.04 28.095,691.654 28.095,664.04C28.095,636.426 50.481,614.04 78.095,614.04C105.709,614.04 128.095,636.426 128.095,664.04C128.095,691.654 105.709,714.04 78.095,714.04Z" style="fill-opacity:0;fill-rule:nonzero;stroke:#000;stroke-opacity:0.62;stroke-width:1px;"/><path d="M78.095,714.04C58.489,714.04 42.595,698.146 42.595,678.54C42.595,658.934 58.489,643.04 78.095,643.04C97.701,643.04 113.595,658.934 113.595,678.54C113.595,698.146 97.701,714.04 78.095,714.04Z" style="fill-opacity:0;fill-rule:nonzero;stroke:#000;stroke-opacity:0.62;stroke-width:1px;"/><path d="M78.095,714.04C69.535,714.04 62.595,707.1 62.595,698.54C62.595,689.979 69.535,683.04 78.095,683.04C86.656,683.04 93.595,689.979 93.595,698.54C93.595,707.1 86.656,714.04 78.095,714.04Z" style="fill-opacity:0;fill-rule:nonzero;stroke:#000;stroke-opacity:0.62;stroke-width:1px;"/><g transform="matrix(1,0,0,1,134.013,715.294)"><g><text x="0px" y="0px" style="font-family:'ProximaNova-Regular', 'Proxima Nova';font-size:12px;">0</text></g></g><g transform="matrix(1,0,0,1,28.287,602.486)"><g><text x="0px" y="0px" style="font-family:'ProximaNova-Bold', 'Proxima Nova';font-weight:700;font-size:14px;">Legend</text></g></g><g transform="matrix(1,0,0,1,30,772.5)"><g id="filtertitle1"><text x="0px" y="0px" style="font-family:'ProximaNova-Bold', 'Proxima Nova';font-weight:700;font-size:19px;">Filter by population type</text></g></g></g></g><g id="poptooltip" transform="matrix(1,0,0,1,0,-4)"><g id="ref_tooltip" transform="matrix(1,0,0,1,-347.031,36.6363)"><g transform="matrix(1,0,0,1,347.031,-34.6363)"><path d="M472.085,776.674L65.545,776.674L54.331,791.741L43.117,776.674L28.378,776.674L28.378,688.691L472.085,688.691L472.085,776.674Z" style="fill:#fff;stroke:#cecece;stroke-width:1.67px;stroke-miterlimit:4;"/></g><g transform="matrix(1,-3.51152e-18,-3.46406e-18,1.02804,6.92813e-18,-20.1727)"><rect x="381.938" y="662.641" width="6.021" height="71.982" style="fill:#f8b8b8;"/></g><g><text x="394.756px" y="668.882px" style="font-family:'ProximaNova-Bold', 'Proxima Nova';font-weight:700;font-size:11.667px;">Refugees</text><text x="447.244px" y="668.882px" style="font-family:'ProximaNova-Regular', 'Proxima Nova';font-size:11.667px;">include individuals recognised under the 1951 Convention relating to the</text><text x="394.756px" y="681.382px" style="font-family:'ProximaNova-Regular', 'Proxima Nova';font-size:11.667px;">Status of Refugees; its 1967 Protocol; the 1969 OAU Convention Governing the</text><text x="394.756px" y="693.882px" style="font-family:'ProximaNova-Regular', 'Proxima Nova';font-size:11.667px;">Speciﬁc Aspects of Refugee Problems in Africa; those recognised in accordance</text><text x="394.756px" y="706.382px" style="font-family:'ProximaNova-Regular', 'Proxima Nova';font-size:11.667px;">with the UNHCR Statute; individuals granted complementary forms of protection;</text><text x="394.756px" y="718.882px" style="font-family:'ProximaNova-Regular', 'Proxima Nova';font-size:11.667px;">or those enjoying temporary protection. The refugee population also includes</text><text x="394.756px" y="731.382px" style="font-family:'ProximaNova-Regular', 'Proxima Nova';font-size:11.667px;">people in a refugee-like situation.</text></g></g><g id="asy_tooltip" transform="matrix(1,0,0,1,-115.031,36.6363)"><g transform="matrix(1,0,0,1,115.031,-34.6363)"><path d="M640.446,776.674L297.545,776.674L286.331,791.741L275.117,776.674L260.378,776.674L260.378,726.367L640.446,726.367L640.446,776.674Z" style="fill:#fff;stroke:#cecece;stroke-width:1.67px;stroke-miterlimit:4;"/></g><g transform="matrix(1,-1.70831e-18,-3.46406e-18,0.500125,6.92813e-18,366.96)"><rect x="381.938" y="662.641" width="6.021" height="71.982" style="fill:#8597ac;"/></g><g transform="matrix(1,0,0,1,-1.06581e-13,38)"><g><text x="394.756px" y="668.882px" style="font-family:'ProximaNova-Bold', 'Proxima Nova';font-weight:700;font-size:11.667px;">Asylum-seekers</text><text x="481.299px" y="668.882px" style="font-family:'ProximaNova-Regular', 'Proxima Nova';font-size:11.667px;">are individuals who have sought international</text><text x="394.756px" y="681.382px" style="font-family:'ProximaNova-Regular', 'Proxima Nova';font-size:11.667px;">protection and whose claims for refugee status have not yet been</text><text x="394.756px" y="693.882px" style="font-family:'ProximaNova-Regular', 'Proxima Nova';font-size:11.667px;">determined, irrespective of when they may have been lodged.</text></g></g></g><g id="idp_tooltip" transform="matrix(1,0,0,1,124.969,36.6363)"><g transform="matrix(1,0,0,1,-124.969,-34.6363)"><path d="M1076.94,774.077L539.478,774.077L526.331,791.741L513.185,774.077L500.378,774.077L500.378,688.367L1076.94,688.367L1076.94,774.077Z" style="fill:#fff;stroke:#cecece;stroke-width:1.67px;stroke-miterlimit:4;"/></g><g transform="matrix(0.935359,-1.59788e-18,-7.14661e-18,1.03179,24.6887,-24.3449)"><rect x="381.938" y="662.641" width="6.021" height="71.982" style="fill:#a6e0d7;"/></g><g transform="matrix(1,0,0,1,-1.7053e-13,-1.01389)"><g><text x="394.756px" y="668.882px" style="font-family:'ProximaNova-Bold', 'Proxima Nova';font-weight:700;font-size:11.667px;">Internally displaced persons (IDPs)</text><text x="580.268px" y="668.882px" style="font-family:'ProximaNova-Regular', 'Proxima Nova';font-size:11.667px;">are people or groups of individuals who have been forced to leave their</text><text x="394.756px" y="681.382px" style="font-family:'ProximaNova-Regular', 'Proxima Nova';font-size:11.667px;">homes or places of habitual residence, in particular as a result of, or in order to avoid the eﬀects of armed</text><text x="394.756px" y="693.882px" style="font-family:'ProximaNova-Regular', 'Proxima Nova';font-size:11.667px;">conﬂict, situations of generalised violence, violations of human rights, or natural or man-made disasters, and</text><text x="394.756px" y="706.382px" style="font-family:'ProximaNova-Regular', 'Proxima Nova';font-size:11.667px;">who have not crossed an international border. For the purposes of UNHCR&apos;s statistics, this population only</text><text x="394.756px" y="718.882px" style="font-family:'ProximaNova-Regular', 'Proxima Nova';font-size:11.667px;">includes conﬂict-generated IDPs to whom the Oﬃce extends protection and/or assistance. The IDP</text><text x="394.756px" y="731.382px" style="font-family:'ProximaNova-Regular', 'Proxima Nova';font-size:11.667px;">population also includes people in an IDP-like situation.</text></g></g></g><g id="ret_tooltip" transform="matrix(1,0,0,1,369.969,36.6363)"><g transform="matrix(1,0,0,1.01991,-369.969,-50.4)"><path d="M1204.81,776.674L782.545,776.674L771.331,791.741L760.117,776.674L745.378,776.674L745.378,684.989L1204.81,684.989L1204.81,776.674Z" style="fill:#fff;stroke:#cecece;stroke-width:1.65px;stroke-miterlimit:4;"/></g><g transform="matrix(1,-3.51152e-18,-3.72876e-18,1.10659,-5.68407e-14,-78.8808)"><rect x="381.938" y="662.641" width="6.021" height="71.982" style="fill:#c7c7c7;"/></g><g transform="matrix(1,0,0,1,-1.42109e-13,-5.80584)"><g><text x="394.756px" y="668.882px" style="font-family:'ProximaNova-Bold', 'Proxima Nova';font-weight:700;font-size:11.667px;">Returned refugees</text><text x="495.813px" y="668.882px" style="font-family:'ProximaNova-Regular', 'Proxima Nova';font-size:11.667px;">are former refugees who have returned to their country of origin</text><text x="394.756px" y="681.382px" style="font-family:'ProximaNova-Regular', 'Proxima Nova';font-size:11.667px;">spontaneously or in an organised fashion but are yet to be fully integrated. Such return</text><text x="394.756px" y="693.882px" style="font-family:'ProximaNova-Regular', 'Proxima Nova';font-size:11.667px;">would normally only take place in conditions of safety and dignity.</text><text x="394.756px" y="714.715px" style="font-family:'ProximaNova-Bold', 'Proxima Nova';font-weight:700;font-size:11.667px;">Returned IDPs</text><text x="473.751px" y="714.715px" style="font-family:'ProximaNova-Regular', 'Proxima Nova';font-size:11.667px;">refer to those IDPs who were beneﬁciaries of UNHCR&apos;s protection and</text><text x="394.756px" y="727.215px" style="font-family:'ProximaNova-Regular', 'Proxima Nova';font-size:11.667px;">assistance activities and who returned to their areas of origin or habitual residence</text><text x="394.756px" y="739.715px" style="font-family:'ProximaNova-Regular', 'Proxima Nova';font-size:11.667px;">during the year.</text></g></g></g><g id="sta_tooltip" transform="matrix(1,0,0,1,605.969,35.6363)"><g transform="matrix(0.889494,0,0,0.817955,-492.963,109.641)"><path d="M1475.56,779.081L1022.24,779.081L1011.33,793.741L1000.42,779.081L977.378,779.081L977.378,670.816L1475.56,670.816L1475.56,779.081Z" style="fill:#fff;stroke:#cecece;stroke-width:1.95px;stroke-miterlimit:4;"/></g><g transform="matrix(1,-3.51152e-18,-3.38579e-18,1.0048,1,-1.30834)"><rect x="381.938" y="662.641" width="6.021" height="71.982" style="fill:#a7bdb6;"/></g><g transform="matrix(1,0,0,1,-8.52651e-14,3.01646)"><g><text x="394.756px" y="668.882px" style="font-family:'ProximaNova-Bold', 'Proxima Nova';font-weight:700;font-size:11.667px;">Stateless persons</text><text x="490.866px" y="668.882px" style="font-family:'ProximaNova-Regular', 'Proxima Nova';font-size:11.667px;">are deﬁned under international law as persons who are not</text><text x="394.756px" y="681.382px" style="font-family:'ProximaNova-Regular', 'Proxima Nova';font-size:11.667px;">considered as nationals by any State under the operation of its law. In other</text><text x="394.756px" y="693.882px" style="font-family:'ProximaNova-Regular', 'Proxima Nova';font-size:11.667px;">words, they do not possess the nationality of any State. UNHCR statistics refer to</text><text x="394.756px" y="706.382px" style="font-family:'ProximaNova-Regular', 'Proxima Nova';font-size:11.667px;">persons who fall under the agency’s statelessness mandate because they are</text><text x="394.756px" y="718.882px" style="font-family:'ProximaNova-Regular', 'Proxima Nova';font-size:11.667px;">stateless according to this international deﬁnition, but data from some countries</text><text x="394.756px" y="731.382px" style="font-family:'ProximaNova-Regular', 'Proxima Nova';font-size:11.667px;">may also include persons with undetermined nationality.</text></g></g></g><g id="oth_tooltip" transform="matrix(1,0,0,1,688.969,36.6363)"><g transform="matrix(1,0,0,1,-688.969,-34.6363)"><path d="M1473.32,776.674L1272.55,776.674L1261.33,791.741L1250.12,776.674L1235.38,776.674L1235.38,688.691L1473.32,688.691L1473.32,776.674Z" style="fill:#fff;stroke:#cecece;stroke-width:1.25px;stroke-miterlimit:4;"/></g><g transform="matrix(1,-3.51152e-18,-3.46406e-18,1.02804,171,-20.1727)"><rect x="381.938" y="662.641" width="6.021" height="71.982" style="fill:#c8adaa;"/></g><g transform="matrix(1,0,0,1,170,0)"><g><text x="394.756px" y="668.882px" style="font-family:'ProximaNova-Bold', 'Proxima Nova';font-weight:700;font-size:11.667px;">Others of concern</text><text x="492.639px" y="668.882px" style="font-family:'ProximaNova-Regular', 'Proxima Nova';font-size:11.667px;">refers to individuals</text><text x="394.756px" y="681.382px" style="font-family:'ProximaNova-Regular', 'Proxima Nova';font-size:11.667px;">who do not necessarily fall directly into</text><text x="394.756px" y="693.882px" style="font-family:'ProximaNova-Regular', 'Proxima Nova';font-size:11.667px;">any of the other groups, but to whom</text><text x="394.756px" y="706.382px" style="font-family:'ProximaNova-Regular', 'Proxima Nova';font-size:11.667px;">UNHCR extends its protection and/or</text><text x="394.756px" y="718.882px" style="font-family:'ProximaNova-Regular', 'Proxima Nova';font-size:11.667px;">assistance services, based on</text><text x="394.756px" y="731.382px" style="font-family:'ProximaNova-Regular', 'Proxima Nova';font-size:11.667px;">humanitarian or other special grounds.</text></g></g></g></g><g id="frame0"><rect x="16.885" y="7.501" width="1468.04" height="1029.1" style="fill:#fff;fill-opacity:0.69;fill-rule:nonzero;"/><g transform="matrix(0.79323,0,0,0.79323,170.966,172.931)"><g transform="matrix(1.26067,0,0,1.26067,-281.739,-403.009)"><text x="607.549px" y="564.908px" style="font-family:'ProximaNova-Bold', 'Proxima Nova';font-weight:700;font-size:20.833px;fill:#0e78be;">UNHCR Statistics - The World in Numbers</text></g><g transform="matrix(1.26067,0,0,1.26067,-281.739,-158.99)"><text x="694.974px" y="562.129px" style="font-family:'ProximaNova-Regular', 'Proxima Nova';font-size:16.667px;fill:#0e78be;">CLICK ANYWHERE TO START</text></g><g transform="matrix(1.26067,0,0,1.26067,-304.806,-481.332)"><g><text x="518.889px" y="666.934px" style="font-family:'ProximaNova-Regular', 'Proxima Nova';font-size:16.667px;fill:#353535;">The number of people displaced due to conflict, war, persecution and human rights</text><text x="525.672px" y="686.934px" style="font-family:'ProximaNova-Regular', 'Proxima Nova';font-size:16.667px;fill:#353535;">violations has increased significantly in recent years. UNHCR’s statistics are a sad</text><text x="515.28px" y="706.934px" style="font-family:'ProximaNova-Regular', 'Proxima Nova';font-size:16.667px;fill:#353535;">testimony of this global trend, with the world map on this page clearly visualising the</text><text x="525.714px" y="726.934px" style="font-family:'ProximaNova-Regular', 'Proxima Nova';font-size:16.667px;fill:#353535;">increase in displacement over time. It is also evidence of the complexity of forced</text><text x="527.38px" y="746.934px" style="font-family:'ProximaNova-Regular', 'Proxima Nova';font-size:16.667px;fill:#353535;">displacement today, with the number and different type of populations UNHCR is</text><text x="659.489px" y="766.934px" style="font-family:'ProximaNova-Regular', 'Proxima Nova';font-size:16.667px;fill:#353535;">engaged with, increasing globally each year.</text></g></g><g transform="matrix(1.26067,0,0,1.26067,-83.0693,-346.225)"><g><text x="701.946px" y="296.006px" style="font-family:'ProximaNova-Regular', 'Proxima Nova';font-size:12.5px;fill:#58595b;">Hover over countries to show</text><text x="701.946px" y="308.506px" style="font-family:'ProximaNova-Regular', 'Proxima Nova';font-size:12.5px;fill:#58595b;">details. Click on a country to</text><text x="701.946px" y="321.006px" style="font-family:'ProximaNova-Regular', 'Proxima Nova';font-size:12.5px;fill:#58595b;">lock the selection.</text></g></g><g transform="matrix(1.26067,0,0,1.26067,-852.228,-350.881)"><g><text x="701.946px" y="296.006px" style="font-family:'ProximaNova-Regular', 'Proxima Nova';font-size:12.5px;fill:#58595b;">Shows the total persons of concern</text><text x="701.946px" y="308.506px" style="font-family:'ProximaNova-Regular', 'Proxima Nova';font-size:12.5px;fill:#58595b;">globally (or in the country selected)</text><text x="701.946px" y="321.006px" style="font-family:'ProximaNova-Regular', 'Proxima Nova';font-size:12.5px;fill:#58595b;">for a particular year</text></g></g><g transform="matrix(1.26067,0,0,1.26067,-679.673,280.373)"><g><text x="701.946px" y="296.006px" style="font-family:'ProximaNova-Regular', 'Proxima Nova';font-size:12.5px;fill:#58595b;">Switch between percentages</text><text x="701.946px" y="308.506px" style="font-family:'ProximaNova-Regular', 'Proxima Nova';font-size:12.5px;fill:#58595b;">and absolute values</text></g></g><g transform="matrix(1.26067,0,0,1.26067,-852.365,501.994)"><text x="701.946px" y="296.006px" style="font-family:'ProximaNova-Regular', 'Proxima Nova';font-size:12.5px;fill:#58595b;">Click on a population type to ﬁlter</text></g><g transform="matrix(1.26067,0,0,1.26067,313.747,537.308)"><text x="701.946px" y="296.006px" style="font-family:'ProximaNova-Regular', 'Proxima Nova';font-size:12.5px;fill:#58595b;">Move the slider to explore previous years</text></g><g transform="matrix(1.12254,0,0,1.12254,-82.4429,-99.4225)"><path d="M93.21,119.327C66.329,119.327 43.936,100.512 39.008,74.816" style="fill:none;stroke:#f1585d;stroke-width:2.25px;stroke-miterlimit:4;"/></g><g transform="matrix(1.12254,0,0,1.12254,-82.4429,-99.4225)"><path d="M46.393,79.073L39.452,77.005L33.146,80.565L38,64.118L46.393,79.073Z" style="fill:#f1585d;fill-rule:nonzero;"/></g><g transform="matrix(1.12254,0,0,1.12254,-246.33,-48.9958)"><path d="M238.21,819.328C211.329,819.328 188.936,800.512 184.008,774.817" style="fill:none;stroke:#f1585d;stroke-width:2.25px;stroke-miterlimit:4;"/></g><g transform="matrix(1.12254,0,0,1.12254,-246.33,-48.9958)"><path d="M191.393,779.073L184.452,777.005L178.146,780.564L183,764.117L191.393,779.073Z" style="fill:#f1585d;fill-rule:nonzero;"/></g><g transform="matrix(1.12254,0,0,1.12254,106.657,-61.6025)"><path d="M77.21,642.117C50.329,642.117 27.936,660.932 23.008,686.628" style="fill:none;stroke:#f1585d;stroke-width:2.25px;stroke-miterlimit:4;"/></g><g transform="matrix(1.12254,0,0,1.12254,106.657,-61.6025)"><path d="M17.145,680.88L23.452,684.439L30.392,682.373L22,697.328L17.145,680.88Z" style="fill:#f1585d;fill-rule:nonzero;"/></g><g transform="matrix(1.12254,0,0,1.12254,-69.8362,-187.669)"><path d="M1397,975.117C1423.88,975.117 1446.27,993.932 1451.2,1019.63" style="fill:none;stroke:#f1585d;stroke-width:2.25px;stroke-miterlimit:4;"/></g><g transform="matrix(1.12254,0,0,1.12254,-69.8362,-187.669)"><path d="M1443.82,1015.37L1450.76,1017.44L1457.07,1013.88L1452.21,1030.33L1443.82,1015.37Z" style="fill:#f1585d;fill-rule:nonzero;"/></g><g transform="matrix(1.12254,0,0,1.12254,-103.874,-146.067)"><path d="M795.21,163.117C768.329,163.117 745.936,181.932 741.008,207.628" style="fill:none;stroke:#f1585d;stroke-width:2.25px;stroke-miterlimit:4;"/></g><g transform="matrix(1.12254,0,0,1.12254,-103.874,-146.067)"><path d="M735.145,201.88L741.452,205.44L748.392,203.373L740,218.328L735.145,201.88Z" style="fill:#f1585d;fill-rule:nonzero;"/></g></g></g><g id="popfilterhover"><g id="refhover" transform="matrix(0.993843,-3.5197e-18,-3.54903e-18,1,0.859769,-4.81731)"><path d="M20.265,824.817L263.764,824.817" style="fill:#fff;stroke:#e0e0e0;stroke-width:1.67px;stroke-linecap:square;stroke-linejoin:round;"/></g><g id="asyhover" transform="matrix(0.993843,-3.5197e-18,-3.54903e-18,1,243.86,-4.81731)"><path d="M20.265,824.817L263.764,824.817" style="fill:#fff;stroke:#e0e0e0;stroke-width:1.67px;stroke-linecap:square;stroke-linejoin:round;"/></g><g id="idphover" transform="matrix(0.993843,-3.5197e-18,-3.54903e-18,1,486.86,-4.81731)"><path d="M20.265,824.817L263.764,824.817" style="fill:#fff;stroke:#e0e0e0;stroke-width:1.67px;stroke-linecap:square;stroke-linejoin:round;"/></g><g id="rethover" transform="matrix(0.993843,-3.5197e-18,-3.54903e-18,1,729.86,-4.81731)"><path d="M20.265,824.817L263.764,824.817" style="fill:#fff;stroke:#e0e0e0;stroke-width:1.67px;stroke-linecap:square;stroke-linejoin:round;"/></g><g id="stahover" transform="matrix(0.993843,-3.5197e-18,-3.54903e-18,1,974.86,-4.81731)"><path d="M20.265,824.817L263.764,824.817" style="fill:#fff;stroke:#e0e0e0;stroke-width:1.67px;stroke-linecap:square;stroke-linejoin:round;"/></g><g id="othhover" transform="matrix(0.993843,-3.5197e-18,-3.54903e-18,1,1218.86,-4.81731)"><path d="M20.265,824.817L263.764,824.817" style="fill:#fff;stroke:#e0e0e0;stroke-width:1.67px;stroke-linecap:square;stroke-linejoin:round;"/></g></g><g id="header"><g transform="matrix(1,0,0,1,1,3)"><g transform="matrix(1,0,0,1,19.0518,12.1465)"><g id="header1"><text x="0px" y="15.563px" style="font-family:'ProximaNova-Bold', 'Proxima Nova';font-weight:700;font-size:23.333px;">UNHCR</text><text x="88.177px" y="15.563px" style="font-family:'ProximaNova-Bold', 'Proxima Nova';font-weight:700;font-size:23.333px;">STATISTICS</text></g></g><g transform="matrix(1,0,0,1,19.0518,38.1465)"><text id="header2" x="0px" y="10.005px" style="font-family:'ProximaNova-Bold', 'Proxima Nova';font-weight:700;font-size:15px;">The World in Numbers</text></g></g></g></g></g></svg>