<?xml version="1.0" encoding="UTF-8" standalone="no"?>
<svg width="13px" height="13px" viewBox="0 0 13 13" version="1.1" xmlns="http://www.w3.org/2000/svg" xmlns:xlink="http://www.w3.org/1999/xlink" xmlns:sketch="http://www.bohemiancoding.com/sketch/ns">
    <!-- Generator: Sketch 3.2.2 (9983) - http://www.bohemiancoding.com/sketch -->
    <title>Admin1Capital</title>
    <desc>Created with Sketch.</desc>
    <defs></defs>
    <g id="Page-1" stroke="none" stroke-width="1" fill="none" fill-rule="evenodd" sketch:type="MSPage">
        <g id="Admin1Capital" sketch:type="MSLayerGroup" transform="translate(1.000000, 0.000000)">
            <path d="M11.7253333,6.60630717 C11.7253333,9.77882594 9.14933333,12.3586553 5.97533333,12.3586553 C2.79941667,12.3586553 0.225333333,9.77882594 0.225333333,6.60630717 C0.225333333,3.42611604 2.79941667,0.850122867 5.97533333,0.850122867 C9.14933333,0.850122867 11.7253333,3.42611604 11.7253333,6.60630717" id="Fill-15" fill="#FFFFFF" sketch:type="MSShapeGroup"></path>
            <path d="M8.85033333,6.60630717 C8.85033333,8.19064846 7.56233333,9.48152218 5.97533333,9.48152218 C4.38833333,9.48152218 3.10033333,8.19064846 3.10033333,6.60630717 C3.10033333,5.0162116 4.38833333,3.72725597 5.97533333,3.72725597 C7.56233333,3.72725597 8.85033333,5.0162116 8.85033333,6.60630717" id="Fill-16" fill="#FFFFFF" sketch:type="MSShapeGroup"></path>
            <path d="M11.7253333,6.60630717 C11.7253333,9.77882594 9.14933333,12.3586553 5.97533333,12.3586553 C2.79941667,12.3586553 0.225333333,9.77882594 0.225333333,6.60630717 C0.225333333,3.42611604 2.79941667,0.850122867 5.97533333,0.850122867 C9.14933333,0.850122867 11.7253333,3.42611604 11.7253333,6.60630717" id="Fill-17" fill="#FFFFFF" sketch:type="MSShapeGroup"></path>
            <path d="M11.7253333,6.60630717 C11.7253333,9.77882594 9.14933333,12.3586553 5.97533333,12.3586553 C2.79941667,12.3586553 0.225333333,9.77882594 0.225333333,6.60630717 C0.225333333,3.42611604 2.79941667,0.850122867 5.97533333,0.850122867 C9.14933333,0.850122867 11.7253333,3.42611604 11.7253333,6.60630717 L11.7253333,6.60630717 Z" id="Stroke-18" stroke="#1A1918" stroke-width="0.5" sketch:type="MSShapeGroup"></path>
            <path d="M8.85033333,6.60630717 C8.85033333,8.19064846 7.56233333,9.48152218 5.97533333,9.48152218 C4.38833333,9.48152218 3.10033333,8.19064846 3.10033333,6.60630717 C3.10033333,5.0162116 4.38833333,3.72725597 5.97533333,3.72725597 C7.56233333,3.72725597 8.85033333,5.0162116 8.85033333,6.60630717" id="Fill-19" fill="#1A1918" sketch:type="MSShapeGroup"></path>
            <path d="M11.7253333,6.60630717 C11.7253333,9.77882594 9.14933333,12.3586553 5.97533333,12.3586553 C2.79941667,12.3586553 0.225333333,9.77882594 0.225333333,6.60630717 C0.225333333,3.42611604 2.79941667,0.850122867 5.97533333,0.850122867 C9.14933333,0.850122867 11.7253333,3.42611604 11.7253333,6.60630717 L11.7253333,6.60630717 Z M8.85033333,6.60630717 C8.85033333,8.19064846 7.56233333,9.48152218 5.97533333,9.48152218 C4.38833333,9.48152218 3.10033333,8.19064846 3.10033333,6.60630717 C3.10033333,5.0162116 4.38833333,3.72725597 5.97533333,3.72725597 C7.56233333,3.72725597 8.85033333,5.0162116 8.85033333,6.60630717 L8.85033333,6.60630717 Z" id="Stroke-20" stroke="#1A1918" stroke-width="0.5" sketch:type="MSShapeGroup"></path>
        </g>
    </g>
</svg>