<?xml version="1.0" encoding="UTF-8" standalone="no"?>
<svg width="17px" height="17px" viewBox="0 0 17 17" version="1.1" xmlns="http://www.w3.org/2000/svg" xmlns:xlink="http://www.w3.org/1999/xlink" xmlns:sketch="http://www.bohemiancoding.com/sketch/ns">
    <!-- Generator: Sketch 3.2.2 (9983) - http://www.bohemiancoding.com/sketch -->
    <title>Camps</title>
    <desc>Created with Sketch.</desc>
    <defs></defs>
    <g id="Page-1" stroke="none" stroke-width="1" fill="none" fill-rule="evenodd" sketch:type="MSPage">
        <g id="Camps" sketch:type="MSLayerGroup">
            <path d="M9.4742,15.3054041 L9.4742,16.3715751 L16.4924,16.3715751 L14.336,8.28090155 L8.3924,0.190227979 L2.4542,8.28090155 L0.2924,16.3715751 L7.3124,16.3715751 L7.3124,15.3054041 L6.236,14.242829 L6.236,8.92096373 L7.676,8.20718653 C7.253,7.95907254 6.9542,7.52397409 6.9542,7.00257513 C6.9542,6.21688083 7.5968,5.58401036 8.3924,5.58401036 C9.1898,5.58401036 9.8324,6.21688083 9.8324,7.00257513 C9.8324,7.52397409 9.5336,7.95907254 9.1106,8.20718653 L10.5542,8.92096373 L10.5542,14.242829 L9.4742,15.3054041" id="Fill-10" fill="#1A1918" sketch:type="MSShapeGroup"></path>
            <path d="M9.4742,15.3054041 L9.4742,16.3715751 L7.3124,16.3715751 L7.3124,15.3054041 L6.236,14.242829 L6.236,8.92096373 L7.676,8.20718653 C7.253,7.95907254 6.9542,7.52397409 6.9542,7.00257513 C6.9542,6.21688083 7.5968,5.58401036 8.3924,5.58401036 C9.1898,5.58401036 9.8324,6.21688083 9.8324,7.00257513 C9.8324,7.52397409 9.5336,7.95907254 9.1106,8.20718653 L10.5542,8.92096373 L10.5542,14.242829 L9.4742,15.3054041" id="Fill-11" fill="#FFFFFF" sketch:type="MSShapeGroup"></path>
        </g>
    </g>
</svg>