<?xml version="1.0" encoding="UTF-8" standalone="no"?>
<svg width="17px" height="18px" viewBox="0 0 17 18" version="1.1" xmlns="http://www.w3.org/2000/svg" xmlns:xlink="http://www.w3.org/1999/xlink" xmlns:sketch="http://www.bohemiancoding.com/sketch/ns">
    <!-- Generator: Sketch 3.2.2 (9983) - http://www.bohemiancoding.com/sketch -->
    <title>Centre</title>
    <desc>Created with Sketch.</desc>
    <defs></defs>
    <g id="Page-1" stroke="none" stroke-width="1" fill="none" fill-rule="evenodd" sketch:type="MSPage">
        <g id="Centre" sketch:type="MSLayerGroup" fill="#1A1918">
            <path d="M10.6892,9.54963731 L10.6892,14.9416218 L9.6092,16.0221762 L9.6092,17.0973368 L7.4492,17.0973368 L7.4492,16.0221762 L6.3692,14.9416218 L6.3692,9.54963731 L7.811,8.82507254 C7.388,8.57875648 7.0892,8.13646632 7.0892,7.60607772 C7.0892,6.81319171 7.7336,6.16773575 8.5292,6.16773575 C9.3248,6.16773575 9.9674,6.81319171 9.9674,7.60607772 C9.9674,8.13646632 9.6704,8.57695855 9.2456,8.82507254 L10.6892,9.54963731 L10.6892,9.54963731 Z M16.4942,7.39032642 L8.387,0.924979275 L0.2942,7.39032642 L0.2942,9.54963731 L2.1842,8.03937824 L2.1842,17.1009326 L3.8042,17.1009326 L3.8042,6.74666839 L8.3942,3.07889637 L12.9842,6.74666839 L12.9842,17.1009326 L14.6042,17.1009326 L14.6042,8.03937824 L16.4942,9.54963731 L16.4942,7.39032642 L16.4942,7.39032642 Z" id="Fill-4" sketch:type="MSShapeGroup"></path>
        </g>
    </g>
</svg>