<?xml version="1.0" encoding="UTF-8" standalone="no"?>
<svg width="22px" height="22px" viewBox="0 0 22 22" version="1.1" xmlns="http://www.w3.org/2000/svg" xmlns:xlink="http://www.w3.org/1999/xlink" xmlns:sketch="http://www.bohemiancoding.com/sketch/ns">
    <!-- Generator: Sketch 3.2.2 (9983) - http://www.bohemiancoding.com/sketch -->
    <title>Office3</title>
    <desc>Created with Sketch.</desc>
    <defs></defs>
    <g id="Page-1" stroke="none" stroke-width="1" fill="none" fill-rule="evenodd" sketch:type="MSPage">
        <g id="Office3" sketch:type="MSLayerGroup">
            <path d="M21.517,11.2473993 C21.517,17.0745529 16.7981667,21.7968874 10.9753333,21.7968874 C5.1525,21.7968874 0.433666667,17.0745529 0.433666667,11.2473993 C0.433666667,5.42024573 5.1525,0.697911263 10.9753333,0.697911263 C16.7981667,0.697911263 21.517,5.42024573 21.517,11.2473993" id="Fill-5" fill="#006DAB" sketch:type="MSShapeGroup"></path>
            <path d="M10.0706667,16.838628 L10.0706667,15.152628 L10.0304167,15.152628 L10.0304167,15.1161843 L9.98825,15.1161843 L9.98825,15.0797406 L9.67966667,15.0797406 L9.67966667,15.0471331 L9.53208333,15.0471331 L9.53208333,15.0087713 L9.44966667,15.0087713 L9.44966667,14.9723276 L9.37108333,14.9723276 L9.37108333,14.935884 L9.33275,14.935884 L9.33275,14.9013584 L9.29058333,14.9013584 L9.29058333,14.8418976 L9.24841667,14.8418976 L9.24841667,10.1502526 L9.29058333,10.1502526 L9.29058333,10.0063959 L9.33275,10.0063959 L9.33275,9.89706485 L9.37108333,9.89706485 L9.37108333,9.86253925 L9.41133333,9.86253925 L9.41133333,9.80116041 L9.44966667,9.80116041 L9.44966667,9.69374744 L9.53208333,9.69374744 L9.53208333,9.62469625 L9.55891667,9.62469625 L9.55891667,9.58633447 L9.63941667,9.58633447 L9.63941667,9.56331741 L9.67966667,9.56331741 L9.67966667,9.52687372 L9.72183333,9.52687372 L9.72183333,9.45782253 L9.88283333,9.45782253 L9.88283333,9.41946075 L9.948,9.41946075 L9.948,9.38493515 L9.98825,9.38493515 L9.98825,9.34849147 L10.0706667,9.34849147 L10.0706667,9.31204778 L10.1511667,9.31204778 L10.1511667,9.2756041 L10.1895,9.2756041 L10.1895,9.25258703 L10.21825,9.25258703 L10.21825,9.21614334 L10.3006667,9.21614334 L10.3006667,9.17969966 L10.3370833,9.17969966 L10.3370833,9.14517406 L10.37925,9.14517406 L10.37925,9.10681229 L10.4195,9.10681229 L10.4195,9.03776109 L10.4616667,9.03776109 L10.4616667,8.66756997 L10.4195,8.66756997 L10.4195,8.55823891 L10.37925,8.55823891 L10.37925,8.52371331 L10.3370833,8.52371331 L10.3370833,8.48918771 L10.3006667,8.48918771 L10.3006667,8.41438225 L10.2585,8.41438225 L10.2585,8.35683959 L10.21825,8.35683959 L10.21825,8.28395222 L10.1895,8.28395222 L10.1895,8.20914676 L10.1511667,8.20914676 L10.1511667,8.17653925 L10.1109167,8.17653925 L10.1109167,8.14009556 L10.0706667,8.14009556 L10.0706667,8.04419113 L10.0304167,8.04419113 L10.0304167,7.97130375 L9.98825,7.97130375 L9.98825,7.8274471 L9.948,7.8274471 L9.948,7.5550785 L9.98825,7.5550785 L9.98825,7.45725597 L10.0304167,7.45725597 L10.0304167,7.349843 L10.0706667,7.349843 L10.0706667,7.27503754 L10.1109167,7.27503754 L10.1109167,7.20598635 L10.1895,7.20598635 L10.1895,7.1465256 L10.21825,7.1465256 L10.21825,7.07363823 L10.2585,7.07363823 L10.2585,7.03719454 L10.3006667,7.03719454 L10.3006667,7.00458703 L10.4195,7.00458703 L10.4195,6.96814334 L10.4616667,6.96814334 L10.4616667,6.92978157 L10.54025,6.92978157 L10.54025,6.90484642 L10.6073333,6.90484642 L10.6073333,6.87032082 L10.7280833,6.87032082 L10.7280833,6.83579522 L10.9159167,6.83579522 L10.9159167,6.79743345 L10.9983333,6.79743345 L10.9983333,6.83579522 L11.1995833,6.83579522 L11.1995833,6.87032082 L11.305,6.87032082 L11.305,6.90484642 L11.3874167,6.90484642 L11.3874167,6.92978157 L11.4276667,6.92978157 L11.4276667,6.96814334 L11.5081667,6.96814334 L11.5081667,7.00458703 L11.6135833,7.00458703 L11.6135833,7.03719454 L11.65575,7.03719454 L11.65575,7.07363823 L11.696,7.07363823 L11.696,7.1465256 L11.7381667,7.1465256 L11.7381667,7.18296928 L11.7765,7.18296928 L11.7765,7.20598635 L11.81675,7.20598635 L11.81675,7.24051195 L11.857,7.24051195 L11.857,7.31339932 L11.8838333,7.31339932 L11.8838333,7.4188942 L11.9240833,7.4188942 L11.9240833,7.48986348 L11.96625,7.48986348 L11.96625,7.89841638 L11.9240833,7.89841638 L11.9240833,8.00774744 L11.8838333,8.00774744 L11.8838333,8.08063481 L11.857,8.08063481 L11.857,8.14009556 L11.81675,8.14009556 L11.81675,8.17653925 L11.7765,8.17653925 L11.7765,8.24750853 L11.7381667,8.24750853 L11.7381667,8.31847782 L11.696,8.31847782 L11.696,8.3894471 L11.65575,8.3894471 L11.65575,8.45082594 L11.6135833,8.45082594 L11.6135833,8.48918771 L11.57525,8.48918771 L11.57525,8.52371331 L11.5484167,8.52371331 L11.5484167,8.59468259 L11.5081667,8.59468259 L11.5081667,8.66756997 L11.466,8.66756997 L11.466,8.76155631 L11.4276667,8.76155631 L11.4276667,8.97638225 L11.466,8.97638225 L11.466,9.03776109 L11.5081667,9.03776109 L11.5081667,9.10681229 L11.5484167,9.10681229 L11.5484167,9.14517406 L11.57525,9.14517406 L11.57525,9.17969966 L11.6135833,9.17969966 L11.6135833,9.21614334 L11.696,9.21614334 L11.696,9.25258703 L11.7381667,9.25258703 L11.7381667,9.2756041 L11.81675,9.2756041 L11.81675,9.31204778 L11.8838333,9.31204778 L11.8838333,9.34849147 L11.96625,9.34849147 L11.96625,9.38493515 L12.0026667,9.38493515 L12.0026667,9.41946075 L12.0448333,9.41946075 L12.0448333,9.45782253 L12.1675,9.45782253 L12.1675,9.49043003 L12.2058333,9.49043003 L12.2058333,9.52687372 L12.2326667,9.52687372 L12.2326667,9.56331741 L12.3131667,9.56331741 L12.3131667,9.58633447 L12.3553333,9.58633447 L12.3553333,9.62469625 L12.3936667,9.62469625 L12.3936667,9.69374744 L12.4358333,9.69374744 L12.4358333,9.73019113 L12.4760833,9.73019113 L12.4760833,9.7685529 L12.5163333,9.7685529 L12.5163333,9.83952218 L12.5431667,9.83952218 L12.5431667,9.89706485 L12.5815,9.89706485 L12.5815,9.96803413 L12.6236667,9.96803413 L12.6236667,10.1138089 L12.6639167,10.1138089 L12.6639167,14.8764232 L12.6236667,14.8764232 L12.6236667,14.935884 L12.5815,14.935884 L12.5815,14.9723276 L12.4760833,14.9723276 L12.4760833,15.0087713 L12.3936667,15.0087713 L12.3936667,15.0471331 L12.2748333,15.0471331 L12.2748333,15.0797406 L11.96625,15.0797406 L11.96625,15.1161843 L11.9240833,15.1161843 L11.9240833,15.152628 L11.8838333,15.152628 L11.8838333,15.2140068 L11.857,15.2140068 L11.857,16.8041024 L11.81675,16.8041024 L11.81675,16.838628 L10.0706667,16.838628 L10.0706667,16.838628 Z M6.55741667,16.8750717 L6.55741667,16.8367099 L6.78358333,16.8367099 L6.78358333,16.8021843 L6.82383333,16.8021843 L6.82383333,16.7676587 L6.90625,16.7676587 L6.90625,16.731215 L7.01358333,16.731215 L7.01358333,16.6602457 L7.05383333,16.6602457 L7.05383333,16.493372 L7.09408333,16.493372 L7.09408333,15.3175836 L7.05383333,15.3175836 L7.05383333,14.2549625 L7.09408333,14.2549625 L7.09408333,13.8329829 L7.13241667,13.8329829 L7.13241667,13.6661092 L7.17458333,13.6661092 L7.17458333,13.487727 L7.21291667,13.487727 L7.21291667,13.4148396 L7.25508333,13.4148396 L7.25508333,13.2844096 L7.28191667,13.2844096 L7.28191667,13.1769966 L7.32025,13.1769966 L7.32025,13.1405529 L7.36241667,13.1405529 L7.36241667,13.0810922 L7.40266667,13.0810922 L7.40266667,13.0101229 L7.44291667,13.0101229 L7.44291667,12.9736792 L7.48316667,12.9736792 L7.48316667,12.9027099 L7.5215,12.9027099 L7.5215,12.7684437 L7.56175,12.7684437 L7.56175,12.6974744 L7.5905,12.6974744 L7.5905,12.5919795 L7.63075,12.5919795 L7.63075,12.5190922 L7.671,12.5190922 L7.671,12.4596314 L7.70933333,12.4596314 L7.70933333,12.3522184 L7.7515,12.3522184 L7.7515,12.2793311 L7.79175,12.2793311 L7.79175,12.0760137 L7.83391667,12.0760137 L7.83391667,11.9666826 L7.87225,11.9666826 L7.87225,11.8746143 L7.9125,11.8746143 L7.9125,11.7633652 L7.93933333,11.7633652 L7.93933333,11.6559522 L7.97958333,11.6559522 L7.97958333,11.5255222 L8.01983333,11.5255222 L8.01983333,11.4181092 L8.06008333,11.4181092 L8.06008333,11.1438225 L8.09841667,11.1438225 L8.09841667,11.0095563 L8.14058333,11.0095563 L8.14058333,10.9040614 L8.18083333,10.9040614 L8.18083333,10.7602048 L8.223,10.7602048 L8.223,10.6278567 L8.24791667,10.6278567 L8.24791667,10.3880956 L8.28625,10.3880956 L8.28625,10.2806826 L8.32841667,10.2806826 L8.32841667,10.1502526 L8.36866667,10.1502526 L8.36866667,10.0773652 L8.40891667,10.0773652 L8.40891667,9.96803413 L8.45108333,9.96803413 L8.45108333,9.89706485 L8.4875,9.89706485 L8.4875,9.69374744 L8.52775,9.69374744 L8.52775,9.62277816 L8.56991667,9.62277816 L8.56991667,9.52687372 L8.59675,9.52687372 L8.59675,9.45590444 L8.63891667,9.45590444 L8.63891667,9.38301706 L8.67725,9.38301706 L8.67725,9.2756041 L8.71941667,9.2756041 L8.71941667,9.21614334 L8.75775,9.21614334 L8.75775,9.03776109 L8.798,9.03776109 L8.798,8.97638225 L8.83825,8.97638225 L8.83825,8.86896928 L8.8785,8.86896928 L8.8785,8.75963823 L8.90533333,8.75963823 L8.90533333,8.66565188 L8.9475,8.66565188 L8.9475,8.55823891 L8.98583333,8.55823891 L8.98583333,8.31847782 L9.02608333,8.31847782 L9.02608333,8.17653925 L9.06633333,8.17653925 L9.06633333,7.66057338 L9.02608333,7.66057338 L9.02608333,7.51671672 L8.98583333,7.51671672 L8.98583333,7.4188942 L8.9475,7.4188942 L8.9475,7.38628669 L8.90533333,7.38628669 L8.90533333,7.349843 L8.8785,7.349843 L8.8785,7.31339932 L8.67725,7.31339932 L8.67725,7.349843 L8.59675,7.349843 L8.59675,7.38628669 L8.52775,7.38628669 L8.52775,7.4188942 L8.4875,7.4188942 L8.4875,7.45725597 L8.45108333,7.45725597 L8.45108333,7.48986348 L8.40891667,7.48986348 L8.40891667,7.51671672 L8.36866667,7.51671672 L8.36866667,7.55316041 L8.28625,7.55316041 L8.28625,7.62412969 L8.24791667,7.62412969 L8.24791667,7.69701706 L8.223,7.69701706 L8.223,7.73154266 L8.18083333,7.73154266 L8.18083333,7.80251195 L8.14058333,7.80251195 L8.14058333,7.86389078 L8.09841667,7.86389078 L8.09841667,7.89841638 L8.06008333,7.89841638 L8.06008333,8.07871672 L8.01983333,8.07871672 L8.01983333,8.14009556 L7.97958333,8.14009556 L7.97958333,8.17653925 L7.93933333,8.17653925 L7.93933333,8.24750853 L7.9125,8.24750853 L7.9125,8.35683959 L7.87225,8.35683959 L7.87225,8.41438225 L7.83391667,8.41438225 L7.83391667,8.52371331 L7.79175,8.52371331 L7.79175,8.68866894 L7.7515,8.68866894 L7.7515,8.75963823 L7.70933333,8.75963823 L7.70933333,8.86896928 L7.671,8.86896928 L7.671,8.97638225 L7.63075,8.97638225 L7.63075,9.03776109 L7.5905,9.03776109 L7.5905,9.14517406 L7.56175,9.14517406 L7.56175,9.21614334 L7.5215,9.21614334 L7.5215,9.41946075 L7.48316667,9.41946075 L7.48316667,9.45590444 L7.44291667,9.45590444 L7.44291667,9.52687372 L7.40266667,9.52687372 L7.40266667,9.62277816 L7.36241667,9.62277816 L7.36241667,9.66113993 L7.32025,9.66113993 L7.32025,9.73019113 L7.28191667,9.73019113 L7.28191667,9.83952218 L7.25508333,9.83952218 L7.25508333,9.89706485 L7.17458333,9.89706485 L7.17458333,9.93350853 L7.13241667,9.93350853 L7.13241667,9.96803413 L7.09408333,9.96803413 L7.09408333,10.0063959 L7.01358333,10.0063959 L7.01358333,10.0409215 L6.93308333,10.0409215 L6.93308333,10.0773652 L6.82383333,10.0773652 L6.82383333,10.0409215 L6.74525,10.0409215 L6.74525,10.0063959 L6.705,10.0063959 L6.705,9.89706485 L6.66475,9.89706485 L6.66475,9.83952218 L6.6245,9.83952218 L6.6245,9.69374744 L6.59575,9.69374744 L6.59575,9.17969966 L6.6245,9.17969966 L6.6245,9.00131741 L6.66475,9.00131741 L6.66475,8.86896928 L6.705,8.86896928 L6.705,8.75963823 L6.74525,8.75963823 L6.74525,8.68866894 L6.78358333,8.68866894 L6.78358333,8.62920819 L6.82383333,8.62920819 L6.82383333,8.48726962 L6.866,8.48726962 L6.866,8.41438225 L6.90625,8.41438225 L6.90625,8.35683959 L6.93308333,8.35683959 L6.93308333,8.31847782 L6.97141667,8.31847782 L6.97141667,8.28395222 L7.01358333,8.28395222 L7.01358333,8.14009556 L7.09408333,8.14009556 L7.09408333,8.07871672 L7.13241667,8.07871672 L7.13241667,8.04419113 L7.17458333,8.04419113 L7.17458333,7.96938567 L7.21291667,7.96938567 L7.21291667,7.93486007 L7.25508333,7.93486007 L7.25508333,7.89841638 L7.28191667,7.89841638 L7.28191667,7.8274471 L7.32025,7.8274471 L7.32025,7.80251195 L7.36241667,7.80251195 L7.36241667,7.76990444 L7.40266667,7.76990444 L7.40266667,7.69701706 L7.48316667,7.69701706 L7.48316667,7.66057338 L7.5215,7.66057338 L7.5215,7.62412969 L7.56175,7.62412969 L7.56175,7.58768601 L7.5905,7.58768601 L7.5905,7.55316041 L7.63075,7.55316041 L7.63075,7.51671672 L7.671,7.51671672 L7.671,7.48986348 L7.70933333,7.48986348 L7.70933333,7.45725597 L7.79175,7.45725597 L7.79175,7.4188942 L7.83391667,7.4188942 L7.83391667,7.38628669 L7.9125,7.38628669 L7.9125,7.349843 L7.93933333,7.349843 L7.93933333,7.31339932 L7.97958333,7.31339932 L7.97958333,7.27503754 L8.06008333,7.27503754 L8.06008333,7.20598635 L8.14058333,7.20598635 L8.14058333,7.18296928 L8.223,7.18296928 L8.223,7.1465256 L8.24791667,7.1465256 L8.24791667,7.07363823 L8.32841667,7.07363823 L8.32841667,7.03719454 L8.36866667,7.03719454 L8.36866667,7.00458703 L8.4875,7.00458703 L8.4875,6.92978157 L8.56991667,6.92978157 L8.56991667,6.90484642 L8.59675,6.90484642 L8.59675,6.87032082 L8.63891667,6.87032082 L8.63891667,6.83579522 L8.71941667,6.83579522 L8.71941667,6.79743345 L8.75775,6.79743345 L8.75775,6.76482594 L8.798,6.76482594 L8.798,6.72646416 L8.8785,6.72646416 L8.8785,6.68810239 L8.90533333,6.68810239 L8.90533333,6.65741297 L8.9475,6.65741297 L8.9475,6.61905119 L8.98583333,6.61905119 L8.98583333,6.59603413 L9.02608333,6.59603413 L9.02608333,6.55959044 L9.14683333,6.55959044 L9.14683333,6.52314676 L9.189,6.52314676 L9.189,6.48670307 L9.22541667,6.48670307 L9.22541667,6.45217747 L9.25608333,6.45217747 L9.25608333,6.3792901 L9.33658333,6.3792901 L9.33658333,6.34476451 L9.37491667,6.34476451 L9.37491667,6.31791126 L9.45733333,6.31791126 L9.45733333,6.24886007 L9.53783333,6.24886007 L9.53783333,6.21049829 L9.56275,6.21049829 L9.56275,6.17789078 L9.603,6.17789078 L9.603,6.13952901 L9.6835,6.13952901 L9.6835,6.10500341 L9.72566667,6.10500341 L9.72566667,6.03403413 L9.76208333,6.03403413 L9.76208333,6.00909898 L9.80425,6.00909898 L9.80425,5.9707372 L9.8445,5.9707372 L9.8445,5.9362116 L9.88666667,5.9362116 L9.88666667,5.89976792 L9.95183333,5.89976792 L9.95183333,5.82879863 L9.994,5.82879863 L9.994,5.79235495 L10.03425,5.79235495 L10.03425,5.75591126 L10.0745,5.75591126 L10.0745,5.7328942 L10.11475,5.7328942 L10.11475,5.6983686 L10.1933333,5.6983686 L10.1933333,5.66192491 L10.2220833,5.66192491 L10.2220833,5.55451195 L10.2623333,5.55451195 L10.2623333,5.51806826 L10.3025833,5.51806826 L10.3025833,5.48354266 L10.3409167,5.48354266 L10.3409167,5.44709898 L10.3830833,5.44709898 L10.3830833,5.42024573 L10.4233333,5.42024573 L10.4233333,5.35119454 L10.4635833,5.35119454 L10.4635833,5.24378157 L10.5019167,5.24378157 L10.5019167,5.2054198 L10.5421667,5.2054198 L10.5421667,5.14787713 L10.569,5.14787713 L10.569,5.07690785 L10.6111667,5.07690785 L10.6111667,5.00210239 L10.6514167,5.00210239 L10.6514167,4.93113311 L10.68975,4.93113311 L10.68975,4.83522867 L10.73,4.83522867 L10.73,4.38064164 L10.68975,4.38064164 L10.68975,4.30967235 L10.6514167,4.30967235 L10.6514167,4.27514676 L10.6111667,4.27514676 L10.6111667,4.24829352 L10.569,4.24829352 L10.569,4.21184983 L10.4635833,4.21184983 L10.4635833,4.24829352 L10.3409167,4.24829352 L10.3409167,4.27514676 L10.2623333,4.27514676 L10.2623333,4.30967235 L10.1933333,4.30967235 L10.1933333,4.38064164 L10.0745,4.38064164 L10.0745,4.41516724 L9.994,4.41516724 L9.994,4.45161092 L9.95183333,4.45161092 L9.95183333,4.52641638 L9.88666667,4.52641638 L9.88666667,4.54943345 L9.80425,4.54943345 L9.80425,4.58395904 L9.76208333,4.58395904 L9.76208333,4.61848464 L9.72566667,4.61848464 L9.72566667,4.65684642 L9.6835,4.65684642 L9.6835,4.69137201 L9.64516667,4.69137201 L9.64516667,4.7278157 L9.603,4.7278157 L9.603,4.76617747 L9.53783333,4.76617747 L9.53783333,4.79686689 L9.45733333,4.79686689 L9.45733333,4.85824573 L9.41516667,4.85824573 L9.41516667,4.89468942 L9.37491667,4.89468942 L9.37491667,4.93113311 L9.33658333,4.93113311 L9.33658333,4.96949488 L9.29441667,4.96949488 L9.29441667,5.00210239 L9.25608333,5.00210239 L9.25608333,5.03854608 L9.22541667,5.03854608 L9.22541667,5.07690785 L9.189,5.07690785 L9.189,5.10951536 L9.14683333,5.10951536 L9.14683333,5.14787713 L9.1085,5.14787713 L9.1085,5.1708942 L9.06633333,5.1708942 L9.06633333,5.2054198 L8.98583333,5.2054198 L8.98583333,5.27830717 L8.90533333,5.27830717 L8.90533333,5.35119454 L8.8785,5.35119454 L8.8785,5.38763823 L8.83825,5.38763823 L8.83825,5.42024573 L8.798,5.42024573 L8.798,5.44709898 L8.75775,5.44709898 L8.75775,5.48354266 L8.71941667,5.48354266 L8.71941667,5.51806826 L8.67725,5.51806826 L8.67725,5.55451195 L8.63891667,5.55451195 L8.63891667,5.58903754 L8.59675,5.58903754 L8.59675,5.62548123 L8.56991667,5.62548123 L8.56991667,5.66192491 L8.52775,5.66192491 L8.52775,5.6983686 L8.4875,5.6983686 L8.4875,5.7328942 L8.40891667,5.7328942 L8.40891667,5.75591126 L8.36866667,5.75591126 L8.36866667,5.79235495 L8.32841667,5.79235495 L8.32841667,5.82879863 L8.28625,5.82879863 L8.28625,5.86716041 L8.24791667,5.86716041 L8.24791667,5.89976792 L8.223,5.89976792 L8.223,5.9362116 L8.18083333,5.9362116 L8.18083333,5.9707372 L8.14058333,5.9707372 L8.14058333,6.00909898 L8.06008333,6.00909898 L8.06008333,6.06855973 L8.01983333,6.06855973 L8.01983333,6.10500341 L7.97958333,6.10500341 L7.97958333,6.13952901 L7.9125,6.13952901 L7.9125,6.17789078 L7.83391667,6.17789078 L7.83391667,6.21049829 L7.79175,6.21049829 L7.79175,6.28530375 L7.7515,6.28530375 L7.7515,6.31791126 L7.671,6.31791126 L7.671,6.34476451 L7.5905,6.34476451 L7.5905,6.3792901 L7.56175,6.3792901 L7.56175,6.41573379 L7.5215,6.41573379 L7.5215,6.48670307 L7.48316667,6.48670307 L7.48316667,6.52314676 L7.44291667,6.52314676 L7.44291667,6.55959044 L7.32025,6.55959044 L7.32025,6.59603413 L7.28191667,6.59603413 L7.28191667,6.65741297 L7.25508333,6.65741297 L7.25508333,6.68810239 L7.21291667,6.68810239 L7.21291667,6.72646416 L7.17458333,6.72646416 L7.17458333,6.76482594 L7.05383333,6.76482594 L7.05383333,6.79743345 L7.01358333,6.79743345 L7.01358333,6.87032082 L6.97141667,6.87032082 L6.97141667,6.90484642 L6.93308333,6.90484642 L6.93308333,6.92978157 L6.90625,6.92978157 L6.90625,6.96814334 L6.866,6.96814334 L6.866,7.00458703 L6.78358333,7.00458703 L6.78358333,7.03719454 L6.74525,7.03719454 L6.74525,7.07363823 L6.705,7.07363823 L6.705,7.10816382 L6.66475,7.10816382 L6.66475,7.1465256 L6.6245,7.1465256 L6.6245,7.18296928 L6.59575,7.18296928 L6.59575,7.20598635 L6.55741667,7.20598635 L6.55741667,7.24051195 L6.51716667,7.24051195 L6.51716667,7.27503754 L6.43475,7.27503754 L6.43475,7.31339932 L6.39641667,7.31339932 L6.39641667,7.349843 L6.35616667,7.349843 L6.35616667,7.38628669 L6.31591667,7.38628669 L6.31591667,7.45725597 L6.245,7.45725597 L6.245,7.48986348 L6.20858333,7.48986348 L6.20858333,7.51671672 L6.16641667,7.51671672 L6.16641667,7.55316041 L6.12808333,7.55316041 L6.12808333,7.58768601 L6.08591667,7.58768601 L6.08591667,7.62412969 L6.04566667,7.62412969 L6.04566667,7.69701706 L5.96708333,7.69701706 L5.96708333,7.73154266 L5.94025,7.73154266 L5.94025,7.76990444 L5.89808333,7.76990444 L5.89808333,7.80251195 L5.85783333,7.80251195 L5.85783333,7.8274471 L5.8195,7.8274471 L5.8195,7.89841638 L5.739,7.89841638 L5.739,7.93486007 L5.69683333,7.93486007 L5.69683333,7.96938567 L5.65658333,7.96938567 L5.65658333,8.00582935 L5.61633333,8.00582935 L5.61633333,8.07871672 L5.54733333,8.07871672 L5.54733333,8.14009556 L5.46683333,8.14009556 L5.46683333,8.17653925 L5.43041667,8.17653925 L5.43041667,8.20914676 L5.38825,8.20914676 L5.38825,8.24750853 L5.34991667,8.24750853 L5.34991667,8.35683959 L5.28091667,8.35683959 L5.28091667,8.3894471 L5.24258333,8.3894471 L5.24258333,8.41438225 L5.20233333,8.41438225 L5.20233333,8.44890785 L5.16016667,8.44890785 L5.16016667,8.52371331 L5.07775,8.52371331 L5.07775,8.59276451 L5.04133333,8.59276451 L5.04133333,8.66565188 L4.99916667,8.66565188 L4.99916667,8.68866894 L4.96083333,8.68866894 L4.96083333,8.75963823 L4.89183333,8.75963823 L4.89183333,8.79608191 L4.8535,8.79608191 L4.8535,8.93993857 L4.81133333,8.93993857 L4.81133333,9.00131741 L4.72891667,9.00131741 L4.72891667,9.14517406 L4.69058333,9.14517406 L4.69058333,9.34849147 L4.65033333,9.34849147 L4.65033333,11.4526348 L4.69058333,11.4526348 L4.69058333,12.1469829 L4.72891667,12.1469829 L4.72891667,12.7339181 L4.77108333,12.7339181 L4.77108333,13.2153584 L4.81133333,13.2153584 L4.81133333,13.6661092 L4.8535,13.6661092 L4.8535,14.3508669 L4.89183333,14.3508669 L4.89183333,14.590628 L4.93208333,14.590628 L4.93208333,14.8764232 L4.96083333,14.8764232 L4.96083333,15.1507099 L4.99916667,15.1507099 L4.99916667,15.4288328 L5.04133333,15.4288328 L5.04133333,15.7625802 L5.07775,15.7625802 L5.07775,16.731215 L5.34991667,16.731215 L5.34991667,16.7676587 L5.54733333,16.7676587 L5.54733333,16.8021843 L5.77733333,16.8021843 L5.77733333,16.8367099 L6.04566667,16.8367099 L6.04566667,16.8750717 L6.55741667,16.8750717 L6.55741667,16.8750717 Z M15.8666667,16.8750717 L15.8666667,16.8367099 L16.1465,16.8367099 L16.1465,16.8021843 L16.3343333,16.8021843 L16.3343333,16.7676587 L16.5643333,16.7676587 L16.5643333,16.731215 L16.8058333,16.731215 L16.8058333,16.4550102 L16.8326667,16.4550102 L16.8326667,15.9064369 L16.8729167,15.9064369 L16.8729167,15.520901 L16.9131667,15.520901 L16.9131667,15.2140068 L16.9534167,15.2140068 L16.9534167,14.9723276 L16.9936667,14.9723276 L16.9936667,14.6961229 L17.0339167,14.6961229 L17.0339167,14.3853925 L17.0741667,14.3853925 L17.0741667,13.7984573 L17.1125,13.7984573 L17.1125,13.3937406 L17.14125,13.3937406 L17.14125,12.8643481 L17.1834167,12.8643481 L17.1834167,12.3522184 L17.22175,12.3522184 L17.22175,11.694314 L17.262,11.694314 L17.262,10.7947304 L17.3003333,10.7947304 L17.3003333,9.66113993 L17.262,9.66113993 L17.262,9.25258703 L17.22175,9.25258703 L17.22175,9.10681229 L17.1834167,9.10681229 L17.1834167,9.00131741 L17.14125,9.00131741 L17.14125,8.97638225 L17.1125,8.97638225 L17.1125,8.90541297 L17.0741667,8.90541297 L17.0741667,8.79608191 L17.0339167,8.79608191 L17.0339167,8.75963823 L16.9936667,8.75963823 L16.9936667,8.72703072 L16.9534167,8.72703072 L16.9534167,8.68866894 L16.9131667,8.68866894 L16.9131667,8.62920819 L16.8729167,8.62920819 L16.8729167,8.59276451 L16.8326667,8.59276451 L16.8326667,8.55823891 L16.8058333,8.55823891 L16.8058333,8.48726962 L16.7655833,8.48726962 L16.7655833,8.44890785 L16.7234167,8.44890785 L16.7234167,8.41438225 L16.687,8.41438225 L16.687,8.35683959 L16.6065,8.35683959 L16.6065,8.31847782 L16.5643333,8.31847782 L16.5643333,8.24750853 L16.5240833,8.24750853 L16.5240833,8.20914676 L16.4838333,8.20914676 L16.4838333,8.17653925 L16.4589167,8.17653925 L16.4589167,8.14009556 L16.3765,8.14009556 L16.3765,8.10365188 L16.3343333,8.10365188 L16.3343333,8.07871672 L16.2979167,8.07871672 L16.2979167,8.00582935 L16.25575,8.00582935 L16.25575,7.93486007 L16.2155,7.93486007 L16.2155,7.89841638 L16.1465,7.89841638 L16.1465,7.86389078 L16.10625,7.86389078 L16.10625,7.80251195 L16.0679167,7.80251195 L16.0679167,7.76990444 L16.0276667,7.76990444 L16.0276667,7.73154266 L15.9855,7.73154266 L15.9855,7.69701706 L15.9069167,7.69701706 L15.9069167,7.66057338 L15.8666667,7.66057338 L15.8666667,7.58768601 L15.8264167,7.58768601 L15.8264167,7.55316041 L15.7574167,7.55316041 L15.7574167,7.51671672 L15.7190833,7.51671672 L15.7190833,7.48986348 L15.6788333,7.48986348 L15.6788333,7.45725597 L15.5964167,7.45725597 L15.5964167,7.38628669 L15.5561667,7.38628669 L15.5561667,7.349843 L15.5178333,7.349843 L15.5178333,7.31339932 L15.491,7.31339932 L15.491,7.27503754 L15.4488333,7.27503754 L15.4488333,7.24051195 L15.4085833,7.24051195 L15.4085833,7.20598635 L15.33,7.20598635 L15.33,7.18296928 L15.28975,7.18296928 L15.28975,7.1465256 L15.2475833,7.1465256 L15.2475833,7.10816382 L15.2073333,7.10816382 L15.2073333,7.07363823 L15.169,7.07363823 L15.169,7.03719454 L15.1421667,7.03719454 L15.1421667,7.00458703 L15.1019167,7.00458703 L15.1019167,6.96814334 L15.05975,6.96814334 L15.05975,6.92978157 L15.0214167,6.92978157 L15.0214167,6.90484642 L14.9409167,6.90484642 L14.9409167,6.87032082 L14.9006667,6.87032082 L14.9006667,6.79743345 L14.8316667,6.79743345 L14.8316667,6.76482594 L14.7933333,6.76482594 L14.7933333,6.72646416 L14.7530833,6.72646416 L14.7530833,6.68810239 L14.6706667,6.68810239 L14.6706667,6.65741297 L14.6304167,6.65741297 L14.6304167,6.59603413 L14.5920833,6.59603413 L14.5920833,6.55959044 L14.5115833,6.55959044 L14.5115833,6.52314676 L14.4828333,6.52314676 L14.4828333,6.48670307 L14.4023333,6.48670307 L14.4023333,6.41573379 L14.364,6.41573379 L14.364,6.3792901 L14.3218333,6.3792901 L14.3218333,6.34476451 L14.2815833,6.34476451 L14.2815833,6.31791126 L14.17425,6.31791126 L14.17425,6.28530375 L14.134,6.28530375 L14.134,6.21049829 L14.09375,6.21049829 L14.09375,6.17789078 L14.0554167,6.17789078 L14.0554167,6.13952901 L13.93275,6.13952901 L13.93275,6.10500341 L13.8925,6.10500341 L13.8925,6.06855973 L13.8541667,6.06855973 L13.8541667,6.00909898 L13.8273333,6.00909898 L13.8273333,5.9707372 L13.7851667,5.9707372 L13.7851667,5.9362116 L13.7046667,5.9362116 L13.7046667,5.89976792 L13.6241667,5.89976792 L13.6241667,5.82879863 L13.5858333,5.82879863 L13.5858333,5.79235495 L13.54175,5.79235495 L13.54175,5.75591126 L13.5149167,5.75591126 L13.5149167,5.7328942 L13.4785,5.7328942 L13.4785,5.6983686 L13.4363333,5.6983686 L13.4363333,5.66192491 L13.3539167,5.66192491 L13.3539167,5.58903754 L13.3155833,5.58903754 L13.3155833,5.55451195 L13.2753333,5.55451195 L13.2753333,5.51806826 L13.237,5.51806826 L13.237,5.48354266 L13.1948333,5.48354266 L13.1948333,5.44709898 L13.168,5.44709898 L13.168,5.42024573 L13.12775,5.42024573 L13.12775,5.38763823 L13.0894167,5.38763823 L13.0894167,5.35119454 L13.04725,5.35119454 L13.04725,5.31666894 L13.007,5.31666894 L13.007,5.27830717 L12.9648333,5.27830717 L12.9648333,5.24378157 L12.9284167,5.24378157 L12.9284167,5.2054198 L12.88625,5.2054198 L12.88625,5.1708942 L12.8594167,5.1708942 L12.8594167,5.14787713 L12.8191667,5.14787713 L12.8191667,5.10951536 L12.7789167,5.10951536 L12.7789167,5.07690785 L12.7386667,5.07690785 L12.7386667,5.03854608 L12.7003333,5.03854608 L12.7003333,5.00210239 L12.6179167,5.00210239 L12.6179167,4.96949488 L12.57575,4.96949488 L12.57575,4.93113311 L12.5393333,4.93113311 L12.5393333,4.89468942 L12.5125,4.89468942 L12.5125,4.85824573 L12.4703333,4.85824573 L12.4703333,4.83522867 L12.4281667,4.83522867 L12.4281667,4.79686689 L12.3898333,4.79686689 L12.3898333,4.76617747 L12.31125,4.76617747 L12.31125,4.7278157 L12.2690833,4.7278157 L12.2690833,4.69137201 L12.2288333,4.69137201 L12.2288333,4.65684642 L12.202,4.65684642 L12.202,4.61848464 L12.16175,4.61848464 L12.16175,4.54943345 L12.041,4.54943345 L12.041,4.52641638 L11.9988333,4.52641638 L11.9988333,4.4899727 L11.9624167,4.4899727 L11.9624167,4.45161092 L11.92025,4.45161092 L11.92025,4.41516724 L11.8780833,4.41516724 L11.8780833,4.38064164 L11.7324167,4.38064164 L11.7324167,4.30967235 L11.65,4.30967235 L11.65,4.27514676 L11.5714167,4.27514676 L11.5714167,4.24829352 L11.4621667,4.24829352 L11.4621667,4.21184983 L11.3433333,4.21184983 L11.3433333,4.24829352 L11.3011667,4.24829352 L11.3011667,4.27514676 L11.2628333,4.27514676 L11.2628333,4.30967235 L11.2225833,4.30967235 L11.2225833,4.38064164 L11.1938333,4.38064164 L11.1938333,4.79686689 L11.2225833,4.79686689 L11.2225833,4.89468942 L11.2628333,4.89468942 L11.2628333,5.00210239 L11.3011667,5.00210239 L11.3011667,5.07690785 L11.3433333,5.07690785 L11.3433333,5.14787713 L11.3835833,5.14787713 L11.3835833,5.2054198 L11.42575,5.2054198 L11.42575,5.27830717 L11.4621667,5.27830717 L11.4621667,5.35119454 L11.5043333,5.35119454 L11.5043333,5.38763823 L11.5445833,5.38763823 L11.5445833,5.44709898 L11.6116667,5.44709898 L11.6116667,5.48354266 L11.65,5.48354266 L11.65,5.55451195 L11.69025,5.55451195 L11.69025,5.62548123 L11.7324167,5.62548123 L11.7324167,5.66192491 L11.7726667,5.66192491 L11.7726667,5.6983686 L11.8129167,5.6983686 L11.8129167,5.7328942 L11.85125,5.7328942 L11.85125,5.75591126 L11.8780833,5.75591126 L11.8780833,5.79235495 L11.92025,5.79235495 L11.92025,5.82879863 L11.9624167,5.82879863 L11.9624167,5.89976792 L12.041,5.89976792 L12.041,5.9362116 L12.0793333,5.9362116 L12.0793333,5.9707372 L12.1234167,5.9707372 L12.1234167,6.00909898 L12.16175,6.00909898 L12.16175,6.06855973 L12.202,6.06855973 L12.202,6.10500341 L12.2288333,6.10500341 L12.2288333,6.13952901 L12.3495833,6.13952901 L12.3495833,6.17789078 L12.3898333,6.17789078 L12.3898333,6.24886007 L12.4281667,6.24886007 L12.4281667,6.28530375 L12.4703333,6.28530375 L12.4703333,6.31791126 L12.57575,6.31791126 L12.57575,6.34476451 L12.6179167,6.34476451 L12.6179167,6.3792901 L12.6581667,6.3792901 L12.6581667,6.45217747 L12.7003333,6.45217747 L12.7003333,6.48670307 L12.7789167,6.48670307 L12.7789167,6.52314676 L12.8191667,6.52314676 L12.8191667,6.55959044 L12.88625,6.55959044 L12.88625,6.59603413 L12.9284167,6.59603413 L12.9284167,6.61905119 L12.9648333,6.61905119 L12.9648333,6.65741297 L13.007,6.65741297 L13.007,6.68810239 L13.0894167,6.68810239 L13.0894167,6.72646416 L13.12775,6.72646416 L13.12775,6.76482594 L13.168,6.76482594 L13.168,6.79743345 L13.237,6.79743345 L13.237,6.83579522 L13.2753333,6.83579522 L13.2753333,6.87032082 L13.3155833,6.87032082 L13.3155833,6.90484642 L13.3539167,6.90484642 L13.3539167,6.92978157 L13.4363333,6.92978157 L13.4363333,7.00458703 L13.54175,7.00458703 L13.54175,7.03719454 L13.5858333,7.03719454 L13.5858333,7.07363823 L13.6241667,7.07363823 L13.6241667,7.10816382 L13.6663333,7.10816382 L13.6663333,7.1465256 L13.7449167,7.1465256 L13.7449167,7.18296928 L13.7851667,7.18296928 L13.7851667,7.20598635 L13.8541667,7.20598635 L13.8541667,7.24051195 L13.8925,7.24051195 L13.8925,7.27503754 L13.93275,7.27503754 L13.93275,7.31339932 L13.9749167,7.31339932 L13.9749167,7.349843 L14.0554167,7.349843 L14.0554167,7.38628669 L14.09375,7.38628669 L14.09375,7.4188942 L14.134,7.4188942 L14.134,7.45725597 L14.203,7.45725597 L14.203,7.48986348 L14.2413333,7.48986348 L14.2413333,7.51671672 L14.2815833,7.51671672 L14.2815833,7.55316041 L14.3218333,7.55316041 L14.3218333,7.58768601 L14.4023333,7.58768601 L14.4023333,7.66057338 L14.4445,7.66057338 L14.4445,7.69701706 L14.5115833,7.69701706 L14.5115833,7.73154266 L14.5518333,7.73154266 L14.5518333,7.76990444 L14.5920833,7.76990444 L14.5920833,7.8274471 L14.6304167,7.8274471 L14.6304167,7.89841638 L14.7109167,7.89841638 L14.7109167,7.96938567 L14.7530833,7.96938567 L14.7530833,8.00582935 L14.7933333,8.00582935 L14.7933333,8.07871672 L14.8316667,8.07871672 L14.8316667,8.14009556 L14.9006667,8.14009556 L14.9006667,8.24750853 L14.9409167,8.24750853 L14.9409167,8.31847782 L14.9811667,8.31847782 L14.9811667,8.35683959 L15.0214167,8.35683959 L15.0214167,8.3894471 L15.05975,8.3894471 L15.05975,8.48726962 L15.1019167,8.48726962 L15.1019167,8.59276451 L15.1421667,8.59276451 L15.1421667,8.66565188 L15.169,8.66565188 L15.169,8.75963823 L15.2073333,8.75963823 L15.2073333,8.83444369 L15.2475833,8.83444369 L15.2475833,8.97638225 L15.28975,8.97638225 L15.28975,9.10681229 L15.33,9.10681229 L15.33,9.73019113 L15.28975,9.73019113 L15.28975,9.86253925 L15.2475833,9.86253925 L15.2475833,9.93350853 L15.2073333,9.93350853 L15.2073333,10.0063959 L15.169,10.0063959 L15.169,10.0409215 L15.1019167,10.0409215 L15.1019167,10.0773652 L14.9811667,10.0773652 L14.9811667,10.0409215 L14.9006667,10.0409215 L14.9006667,10.0063959 L14.8316667,10.0063959 L14.8316667,9.96803413 L14.7933333,9.96803413 L14.7933333,9.93350853 L14.7530833,9.93350853 L14.7530833,9.89706485 L14.7109167,9.89706485 L14.7109167,9.86253925 L14.6706667,9.86253925 L14.6706667,9.83952218 L14.6304167,9.83952218 L14.6304167,9.73019113 L14.5920833,9.73019113 L14.5920833,9.66113993 L14.5518333,9.66113993 L14.5518333,9.58633447 L14.5115833,9.58633447 L14.5115833,9.52687372 L14.4828333,9.52687372 L14.4828333,9.45590444 L14.4445,9.45590444 L14.4445,9.38301706 L14.4023333,9.38301706 L14.4023333,9.21614334 L14.364,9.21614334 L14.364,9.10681229 L14.3218333,9.10681229 L14.3218333,9.00131741 L14.2815833,9.00131741 L14.2815833,8.93993857 L14.2413333,8.93993857 L14.2413333,8.83444369 L14.203,8.83444369 L14.203,8.75963823 L14.17425,8.75963823 L14.17425,8.66565188 L14.134,8.66565188 L14.134,8.48726962 L14.09375,8.48726962 L14.09375,8.3894471 L14.0554167,8.3894471 L14.0554167,8.31847782 L14.0151667,8.31847782 L14.0151667,8.24750853 L13.9749167,8.24750853 L13.9749167,8.14009556 L13.93275,8.14009556 L13.93275,8.10365188 L13.8925,8.10365188 L13.8925,8.04419113 L13.8541667,8.04419113 L13.8541667,7.89841638 L13.8273333,7.89841638 L13.8273333,7.8274471 L13.7851667,7.8274471 L13.7851667,7.76990444 L13.7449167,7.76990444 L13.7449167,7.73154266 L13.7046667,7.73154266 L13.7046667,7.69701706 L13.6663333,7.69701706 L13.6663333,7.66057338 L13.6241667,7.66057338 L13.6241667,7.55316041 L13.5858333,7.55316041 L13.5858333,7.51671672 L13.54175,7.51671672 L13.54175,7.48986348 L13.5149167,7.48986348 L13.5149167,7.45725597 L13.4363333,7.45725597 L13.4363333,7.4188942 L13.3539167,7.4188942 L13.3539167,7.38628669 L13.3155833,7.38628669 L13.3155833,7.349843 L13.237,7.349843 L13.237,7.31339932 L13.04725,7.31339932 L13.04725,7.349843 L13.007,7.349843 L13.007,7.38628669 L12.9648333,7.38628669 L12.9648333,7.45725597 L12.9284167,7.45725597 L12.9284167,7.48986348 L12.88625,7.48986348 L12.88625,7.69701706 L12.8594167,7.69701706 L12.8594167,8.07871672 L12.88625,8.07871672 L12.88625,8.3894471 L12.9284167,8.3894471 L12.9284167,8.52371331 L12.9648333,8.52371331 L12.9648333,8.62920819 L13.007,8.62920819 L13.007,8.75963823 L13.04725,8.75963823 L13.04725,8.83444369 L13.0894167,8.83444369 L13.0894167,8.93993857 L13.12775,8.93993857 L13.12775,9.00131741 L13.168,9.00131741 L13.168,9.21614334 L13.1948333,9.21614334 L13.1948333,9.2756041 L13.237,9.2756041 L13.237,9.34849147 L13.2753333,9.34849147 L13.2753333,9.45590444 L13.3155833,9.45590444 L13.3155833,9.52687372 L13.3539167,9.52687372 L13.3539167,9.66113993 L13.4363333,9.66113993 L13.4363333,9.86253925 L13.4785,9.86253925 L13.4785,9.93350853 L13.5149167,9.93350853 L13.5149167,10.0409215 L13.54175,10.0409215 L13.54175,10.1502526 L13.5858333,10.1502526 L13.5858333,10.2442389 L13.6241667,10.2442389 L13.6241667,10.484 L13.6663333,10.484 L13.6663333,10.5933311 L13.7046667,10.5933311 L13.7046667,10.7371877 L13.7449167,10.7371877 L13.7449167,10.8330922 L13.7851667,10.8330922 L13.7851667,10.9750307 L13.8273333,10.9750307 L13.8273333,11.1073788 L13.8541667,11.1073788 L13.8541667,11.3452218 L13.8925,11.3452218 L13.8925,11.4890785 L13.93275,11.4890785 L13.93275,11.5964915 L13.9749167,11.5964915 L13.9749167,11.694314 L14.0151667,11.694314 L14.0151667,11.8362526 L14.0554167,11.8362526 L14.0554167,11.932157 L14.09375,11.932157 L14.09375,12.0414881 L14.134,12.0414881 L14.134,12.2428874 L14.17425,12.2428874 L14.17425,12.3522184 L14.203,12.3522184 L14.203,12.4251058 L14.2413333,12.4251058 L14.2413333,12.5190922 L14.2815833,12.5190922 L14.2815833,12.5919795 L14.3218333,12.5919795 L14.3218333,12.6610307 L14.364,12.6610307 L14.364,12.7684437 L14.4023333,12.7684437 L14.4023333,12.8643481 L14.4445,12.8643481 L14.4445,12.9372355 L14.4828333,12.9372355 L14.4828333,12.9736792 L14.5115833,12.9736792 L14.5115833,13.0465666 L14.5518333,13.0465666 L14.5518333,13.1041092 L14.5920833,13.1041092 L14.5920833,13.1769966 L14.6304167,13.1769966 L14.6304167,13.2844096 L14.6706667,13.2844096 L14.6706667,13.3937406 L14.7109167,13.3937406 L14.7109167,13.4512833 L14.7530833,13.4512833 L14.7530833,13.5951399 L14.7933333,13.5951399 L14.7933333,13.7639317 L14.8316667,13.7639317 L14.8316667,16.6928532 L14.9006667,16.6928532 L14.9006667,16.731215 L15.0214167,16.731215 L15.0214167,16.7676587 L15.1019167,16.7676587 L15.1019167,16.8021843 L15.169,16.8021843 L15.169,16.8367099 L15.33,16.8367099 L15.33,16.8750717 L15.8666667,16.8750717 L15.8666667,16.8750717 Z" id="Fill-6" fill="#FFFFFF" sketch:type="MSShapeGroup"></path>
        </g>
    </g>
</svg>