<?xml version="1.0" encoding="UTF-8" standalone="no"?>
<svg width="22px" height="22px" viewBox="0 0 22 22" version="1.1" xmlns="http://www.w3.org/2000/svg" xmlns:xlink="http://www.w3.org/1999/xlink" xmlns:sketch="http://www.bohemiancoding.com/sketch/ns">
    <!-- Generator: Sketch 3.2.2 (9983) - http://www.bohemiancoding.com/sketch -->
    <title>Office2</title>
    <desc>Created with Sketch.</desc>
    <defs></defs>
    <g id="Page-1" stroke="none" stroke-width="1" fill="none" fill-rule="evenodd" sketch:type="MSPage">
        <g id="Office2" sketch:type="MSLayerGroup">
            <path d="M21.517,10.950471 C21.517,16.7776246 16.7981667,21.499959 10.9753333,21.499959 C5.1525,21.499959 0.433666667,16.7776246 0.433666667,10.950471 C0.433666667,5.12331741 5.1525,0.400982935 10.9753333,0.400982935 C16.7981667,0.400982935 21.517,5.12331741 21.517,10.950471" id="Fill-7" fill="#172F47" sketch:type="MSShapeGroup"></path>
            <path d="M10.0706667,16.5416997 L10.0706667,14.8556997 L10.0304167,14.8556997 L10.0304167,14.819256 L9.98825,14.819256 L9.98825,14.7828123 L9.67966667,14.7828123 L9.67966667,14.7502048 L9.53208333,14.7502048 L9.53208333,14.711843 L9.44966667,14.711843 L9.44966667,14.6753993 L9.37108333,14.6753993 L9.37108333,14.6389556 L9.33275,14.6389556 L9.33275,14.60443 L9.29058333,14.60443 L9.29058333,14.5449693 L9.24841667,14.5449693 L9.24841667,9.85332423 L9.29058333,9.85332423 L9.29058333,9.70946758 L9.33275,9.70946758 L9.33275,9.60013652 L9.37108333,9.60013652 L9.37108333,9.56561092 L9.41133333,9.56561092 L9.41133333,9.50423208 L9.44966667,9.50423208 L9.44966667,9.39681911 L9.53208333,9.39681911 L9.53208333,9.32776792 L9.55891667,9.32776792 L9.55891667,9.28940614 L9.63941667,9.28940614 L9.63941667,9.26638908 L9.67966667,9.26638908 L9.67966667,9.22994539 L9.72183333,9.22994539 L9.72183333,9.1608942 L9.88283333,9.1608942 L9.88283333,9.12253242 L9.948,9.12253242 L9.948,9.08800683 L9.98825,9.08800683 L9.98825,9.05156314 L10.0706667,9.05156314 L10.0706667,9.01511945 L10.1511667,9.01511945 L10.1511667,8.97867577 L10.1895,8.97867577 L10.1895,8.9556587 L10.21825,8.9556587 L10.21825,8.91921502 L10.3006667,8.91921502 L10.3006667,8.88277133 L10.3370833,8.88277133 L10.3370833,8.84824573 L10.37925,8.84824573 L10.37925,8.80988396 L10.4195,8.80988396 L10.4195,8.74083276 L10.4616667,8.74083276 L10.4616667,8.37064164 L10.4195,8.37064164 L10.4195,8.26131058 L10.37925,8.26131058 L10.37925,8.22678498 L10.3370833,8.22678498 L10.3370833,8.19225939 L10.3006667,8.19225939 L10.3006667,8.11745392 L10.2585,8.11745392 L10.2585,8.05991126 L10.21825,8.05991126 L10.21825,7.98702389 L10.1895,7.98702389 L10.1895,7.91221843 L10.1511667,7.91221843 L10.1511667,7.87961092 L10.1109167,7.87961092 L10.1109167,7.84316724 L10.0706667,7.84316724 L10.0706667,7.7472628 L10.0304167,7.7472628 L10.0304167,7.67437543 L9.98825,7.67437543 L9.98825,7.53051877 L9.948,7.53051877 L9.948,7.25815017 L9.98825,7.25815017 L9.98825,7.16032765 L10.0304167,7.16032765 L10.0304167,7.05291468 L10.0706667,7.05291468 L10.0706667,6.97810922 L10.1109167,6.97810922 L10.1109167,6.90905802 L10.1895,6.90905802 L10.1895,6.84959727 L10.21825,6.84959727 L10.21825,6.7767099 L10.2585,6.7767099 L10.2585,6.74026621 L10.3006667,6.74026621 L10.3006667,6.7076587 L10.4195,6.7076587 L10.4195,6.67121502 L10.4616667,6.67121502 L10.4616667,6.63285324 L10.54025,6.63285324 L10.54025,6.60791809 L10.6073333,6.60791809 L10.6073333,6.57339249 L10.7280833,6.57339249 L10.7280833,6.53886689 L10.9159167,6.53886689 L10.9159167,6.50050512 L10.9983333,6.50050512 L10.9983333,6.53886689 L11.1995833,6.53886689 L11.1995833,6.57339249 L11.305,6.57339249 L11.305,6.60791809 L11.3874167,6.60791809 L11.3874167,6.63285324 L11.4276667,6.63285324 L11.4276667,6.67121502 L11.5081667,6.67121502 L11.5081667,6.7076587 L11.6135833,6.7076587 L11.6135833,6.74026621 L11.65575,6.74026621 L11.65575,6.7767099 L11.696,6.7767099 L11.696,6.84959727 L11.7381667,6.84959727 L11.7381667,6.88604096 L11.7765,6.88604096 L11.7765,6.90905802 L11.81675,6.90905802 L11.81675,6.94358362 L11.857,6.94358362 L11.857,7.01647099 L11.8838333,7.01647099 L11.8838333,7.12196587 L11.9240833,7.12196587 L11.9240833,7.19293515 L11.96625,7.19293515 L11.96625,7.60148805 L11.9240833,7.60148805 L11.9240833,7.71081911 L11.8838333,7.71081911 L11.8838333,7.78370648 L11.857,7.78370648 L11.857,7.84316724 L11.81675,7.84316724 L11.81675,7.87961092 L11.7765,7.87961092 L11.7765,7.9505802 L11.7381667,7.9505802 L11.7381667,8.02154949 L11.696,8.02154949 L11.696,8.09251877 L11.65575,8.09251877 L11.65575,8.15389761 L11.6135833,8.15389761 L11.6135833,8.19225939 L11.57525,8.19225939 L11.57525,8.22678498 L11.5484167,8.22678498 L11.5484167,8.29775427 L11.5081667,8.29775427 L11.5081667,8.37064164 L11.466,8.37064164 L11.466,8.4627099 L11.4276667,8.4627099 L11.4276667,8.67945392 L11.466,8.67945392 L11.466,8.74083276 L11.5081667,8.74083276 L11.5081667,8.80988396 L11.5484167,8.80988396 L11.5484167,8.84824573 L11.57525,8.84824573 L11.57525,8.88277133 L11.6135833,8.88277133 L11.6135833,8.91921502 L11.696,8.91921502 L11.696,8.9556587 L11.7381667,8.9556587 L11.7381667,8.97867577 L11.81675,8.97867577 L11.81675,9.01511945 L11.8838333,9.01511945 L11.8838333,9.05156314 L11.96625,9.05156314 L11.96625,9.08800683 L12.0026667,9.08800683 L12.0026667,9.12253242 L12.0448333,9.12253242 L12.0448333,9.1608942 L12.1675,9.1608942 L12.1675,9.19350171 L12.2058333,9.19350171 L12.2058333,9.22994539 L12.2326667,9.22994539 L12.2326667,9.26638908 L12.3131667,9.26638908 L12.3131667,9.28940614 L12.3553333,9.28940614 L12.3553333,9.32776792 L12.3936667,9.32776792 L12.3936667,9.39681911 L12.4358333,9.39681911 L12.4358333,9.4332628 L12.4760833,9.4332628 L12.4760833,9.47162457 L12.5163333,9.47162457 L12.5163333,9.54259386 L12.5431667,9.54259386 L12.5431667,9.60013652 L12.5815,9.60013652 L12.5815,9.6711058 L12.6236667,9.6711058 L12.6236667,9.81688055 L12.6639167,9.81688055 L12.6639167,14.5794949 L12.6236667,14.5794949 L12.6236667,14.6389556 L12.5815,14.6389556 L12.5815,14.6753993 L12.4760833,14.6753993 L12.4760833,14.711843 L12.3936667,14.711843 L12.3936667,14.7502048 L12.2748333,14.7502048 L12.2748333,14.7828123 L11.96625,14.7828123 L11.96625,14.819256 L11.9240833,14.819256 L11.9240833,14.8556997 L11.8838333,14.8556997 L11.8838333,14.9170785 L11.857,14.9170785 L11.857,16.5071741 L11.81675,16.5071741 L11.81675,16.5416997 L10.0706667,16.5416997 L10.0706667,16.5416997 Z M6.55741667,16.5781433 L6.55741667,16.5416997 L6.78358333,16.5416997 L6.78358333,16.505256 L6.82383333,16.505256 L6.82383333,16.4707304 L6.90625,16.4707304 L6.90625,16.4342867 L7.01358333,16.4342867 L7.01358333,16.3633174 L7.05383333,16.3633174 L7.05383333,16.1964437 L7.09408333,16.1964437 L7.09408333,15.0206553 L7.05383333,15.0206553 L7.05383333,13.9580341 L7.09408333,13.9580341 L7.09408333,13.5360546 L7.13241667,13.5360546 L7.13241667,13.3691809 L7.17458333,13.3691809 L7.17458333,13.1907986 L7.21291667,13.1907986 L7.21291667,13.1179113 L7.25508333,13.1179113 L7.25508333,12.9874812 L7.28191667,12.9874812 L7.28191667,12.8800683 L7.32025,12.8800683 L7.32025,12.8436246 L7.36241667,12.8436246 L7.36241667,12.7841638 L7.40266667,12.7841638 L7.40266667,12.7131945 L7.44291667,12.7131945 L7.44291667,12.6767509 L7.48316667,12.6767509 L7.48316667,12.6057816 L7.5215,12.6057816 L7.5215,12.4715154 L7.56175,12.4715154 L7.56175,12.4005461 L7.5905,12.4005461 L7.5905,12.2950512 L7.63075,12.2950512 L7.63075,12.2202457 L7.671,12.2202457 L7.671,12.1627031 L7.70933333,12.1627031 L7.70933333,12.0552901 L7.7515,12.0552901 L7.7515,11.9804846 L7.79175,11.9804846 L7.79175,11.7790853 L7.83391667,11.7790853 L7.83391667,11.6697543 L7.87225,11.6697543 L7.87225,11.577686 L7.9125,11.577686 L7.9125,11.4664369 L7.93933333,11.4664369 L7.93933333,11.3590239 L7.97958333,11.3590239 L7.97958333,11.2285939 L8.01983333,11.2285939 L8.01983333,11.1211809 L8.06008333,11.1211809 L8.06008333,10.8468942 L8.09841667,10.8468942 L8.09841667,10.712628 L8.14058333,10.712628 L8.14058333,10.6071331 L8.18083333,10.6071331 L8.18083333,10.4632765 L8.223,10.4632765 L8.223,10.3309283 L8.24791667,10.3309283 L8.24791667,10.0911672 L8.28625,10.0911672 L8.28625,9.98375427 L8.32841667,9.98375427 L8.32841667,9.85332423 L8.36866667,9.85332423 L8.36866667,9.78043686 L8.40891667,9.78043686 L8.40891667,9.6711058 L8.45108333,9.6711058 L8.45108333,9.60013652 L8.4875,9.60013652 L8.4875,9.39681911 L8.52775,9.39681911 L8.52775,9.32584983 L8.56991667,9.32584983 L8.56991667,9.22994539 L8.59675,9.22994539 L8.59675,9.15897611 L8.63891667,9.15897611 L8.63891667,9.08608874 L8.67725,9.08608874 L8.67725,8.97867577 L8.71941667,8.97867577 L8.71941667,8.91921502 L8.75775,8.91921502 L8.75775,8.74083276 L8.798,8.74083276 L8.798,8.67945392 L8.83825,8.67945392 L8.83825,8.57204096 L8.8785,8.57204096 L8.8785,8.4627099 L8.90533333,8.4627099 L8.90533333,8.36872355 L8.9475,8.36872355 L8.9475,8.26131058 L8.98583333,8.26131058 L8.98583333,8.02154949 L9.02608333,8.02154949 L9.02608333,7.87961092 L9.06633333,7.87961092 L9.06633333,7.36364505 L9.02608333,7.36364505 L9.02608333,7.2197884 L8.98583333,7.2197884 L8.98583333,7.12196587 L8.9475,7.12196587 L8.9475,7.08935836 L8.90533333,7.08935836 L8.90533333,7.05291468 L8.8785,7.05291468 L8.8785,7.01647099 L8.67725,7.01647099 L8.67725,7.05291468 L8.59675,7.05291468 L8.59675,7.08935836 L8.52775,7.08935836 L8.52775,7.12196587 L8.4875,7.12196587 L8.4875,7.16032765 L8.45108333,7.16032765 L8.45108333,7.19293515 L8.40891667,7.19293515 L8.40891667,7.2197884 L8.36866667,7.2197884 L8.36866667,7.25623208 L8.28625,7.25623208 L8.28625,7.32720137 L8.24791667,7.32720137 L8.24791667,7.40008874 L8.223,7.40008874 L8.223,7.43461433 L8.18083333,7.43461433 L8.18083333,7.50558362 L8.14058333,7.50558362 L8.14058333,7.56696246 L8.09841667,7.56696246 L8.09841667,7.60148805 L8.06008333,7.60148805 L8.06008333,7.7817884 L8.01983333,7.7817884 L8.01983333,7.84316724 L7.97958333,7.84316724 L7.97958333,7.87961092 L7.93933333,7.87961092 L7.93933333,7.9505802 L7.9125,7.9505802 L7.9125,8.05991126 L7.87225,8.05991126 L7.87225,8.11745392 L7.83391667,8.11745392 L7.83391667,8.22678498 L7.79175,8.22678498 L7.79175,8.39174061 L7.7515,8.39174061 L7.7515,8.4627099 L7.70933333,8.4627099 L7.70933333,8.57204096 L7.671,8.57204096 L7.671,8.67945392 L7.63075,8.67945392 L7.63075,8.74083276 L7.5905,8.74083276 L7.5905,8.84824573 L7.56175,8.84824573 L7.56175,8.91921502 L7.5215,8.91921502 L7.5215,9.12253242 L7.48316667,9.12253242 L7.48316667,9.15897611 L7.44291667,9.15897611 L7.44291667,9.22994539 L7.40266667,9.22994539 L7.40266667,9.32584983 L7.36241667,9.32584983 L7.36241667,9.3642116 L7.32025,9.3642116 L7.32025,9.4332628 L7.28191667,9.4332628 L7.28191667,9.54259386 L7.25508333,9.54259386 L7.25508333,9.60013652 L7.17458333,9.60013652 L7.17458333,9.6365802 L7.13241667,9.6365802 L7.13241667,9.6711058 L7.09408333,9.6711058 L7.09408333,9.70946758 L7.01358333,9.70946758 L7.01358333,9.74399317 L6.93308333,9.74399317 L6.93308333,9.78043686 L6.82383333,9.78043686 L6.82383333,9.74399317 L6.74525,9.74399317 L6.74525,9.70946758 L6.705,9.70946758 L6.705,9.60013652 L6.66475,9.60013652 L6.66475,9.54259386 L6.6245,9.54259386 L6.6245,9.39681911 L6.59575,9.39681911 L6.59575,8.88277133 L6.6245,8.88277133 L6.6245,8.70247099 L6.66475,8.70247099 L6.66475,8.57204096 L6.705,8.57204096 L6.705,8.4627099 L6.74525,8.4627099 L6.74525,8.39174061 L6.78358333,8.39174061 L6.78358333,8.33227986 L6.82383333,8.33227986 L6.82383333,8.1903413 L6.866,8.1903413 L6.866,8.11745392 L6.90625,8.11745392 L6.90625,8.05991126 L6.93308333,8.05991126 L6.93308333,8.02154949 L6.97141667,8.02154949 L6.97141667,7.98702389 L7.01358333,7.98702389 L7.01358333,7.84316724 L7.09408333,7.84316724 L7.09408333,7.7817884 L7.13241667,7.7817884 L7.13241667,7.7472628 L7.17458333,7.7472628 L7.17458333,7.67245734 L7.21291667,7.67245734 L7.21291667,7.63793174 L7.25508333,7.63793174 L7.25508333,7.60148805 L7.28191667,7.60148805 L7.28191667,7.53051877 L7.32025,7.53051877 L7.32025,7.50558362 L7.36241667,7.50558362 L7.36241667,7.47297611 L7.40266667,7.47297611 L7.40266667,7.40008874 L7.48316667,7.40008874 L7.48316667,7.36364505 L7.5215,7.36364505 L7.5215,7.32720137 L7.56175,7.32720137 L7.56175,7.29075768 L7.5905,7.29075768 L7.5905,7.25623208 L7.63075,7.25623208 L7.63075,7.2197884 L7.671,7.2197884 L7.671,7.19293515 L7.70933333,7.19293515 L7.70933333,7.16032765 L7.79175,7.16032765 L7.79175,7.12196587 L7.83391667,7.12196587 L7.83391667,7.08935836 L7.9125,7.08935836 L7.9125,7.05291468 L7.93933333,7.05291468 L7.93933333,7.01647099 L7.97958333,7.01647099 L7.97958333,6.97810922 L8.06008333,6.97810922 L8.06008333,6.90905802 L8.14058333,6.90905802 L8.14058333,6.88604096 L8.223,6.88604096 L8.223,6.84959727 L8.24791667,6.84959727 L8.24791667,6.7767099 L8.32841667,6.7767099 L8.32841667,6.74026621 L8.36866667,6.74026621 L8.36866667,6.7076587 L8.4875,6.7076587 L8.4875,6.63285324 L8.56991667,6.63285324 L8.56991667,6.60791809 L8.59675,6.60791809 L8.59675,6.57339249 L8.63891667,6.57339249 L8.63891667,6.53886689 L8.71941667,6.53886689 L8.71941667,6.50050512 L8.75775,6.50050512 L8.75775,6.46597952 L8.798,6.46597952 L8.798,6.42953584 L8.8785,6.42953584 L8.8785,6.39309215 L8.90533333,6.39309215 L8.90533333,6.36048464 L8.9475,6.36048464 L8.9475,6.32212287 L8.98583333,6.32212287 L8.98583333,6.2991058 L9.02608333,6.2991058 L9.02608333,6.26266212 L9.14683333,6.26266212 L9.14683333,6.22621843 L9.189,6.22621843 L9.189,6.18977474 L9.22541667,6.18977474 L9.22541667,6.15524915 L9.25608333,6.15524915 L9.25608333,6.08236177 L9.33658333,6.08236177 L9.33658333,6.04783618 L9.37491667,6.04783618 L9.37491667,6.02098294 L9.45733333,6.02098294 L9.45733333,5.95193174 L9.53783333,5.95193174 L9.53783333,5.91356997 L9.56275,5.91356997 L9.56275,5.88096246 L9.603,5.88096246 L9.603,5.84260068 L9.6835,5.84260068 L9.6835,5.80807509 L9.72566667,5.80807509 L9.72566667,5.7371058 L9.76208333,5.7371058 L9.76208333,5.71217065 L9.80425,5.71217065 L9.80425,5.67380887 L9.8445,5.67380887 L9.8445,5.63928328 L9.88666667,5.63928328 L9.88666667,5.60283959 L9.95183333,5.60283959 L9.95183333,5.53187031 L9.994,5.53187031 L9.994,5.49542662 L10.03425,5.49542662 L10.03425,5.45898294 L10.0745,5.45898294 L10.0745,5.43596587 L10.11475,5.43596587 L10.11475,5.40144027 L10.1933333,5.40144027 L10.1933333,5.36499659 L10.2220833,5.36499659 L10.2220833,5.25758362 L10.2623333,5.25758362 L10.2623333,5.22113993 L10.3025833,5.22113993 L10.3025833,5.18661433 L10.3409167,5.18661433 L10.3409167,5.15017065 L10.3830833,5.15017065 L10.3830833,5.12331741 L10.4233333,5.12331741 L10.4233333,5.05426621 L10.4635833,5.05426621 L10.4635833,4.94685324 L10.5019167,4.94685324 L10.5019167,4.90849147 L10.5421667,4.90849147 L10.5421667,4.85094881 L10.569,4.85094881 L10.569,4.77997952 L10.6111667,4.77997952 L10.6111667,4.70517406 L10.6514167,4.70517406 L10.6514167,4.63420478 L10.68975,4.63420478 L10.68975,4.53830034 L10.73,4.53830034 L10.73,4.08371331 L10.68975,4.08371331 L10.68975,4.01274403 L10.6514167,4.01274403 L10.6514167,3.97821843 L10.6111667,3.97821843 L10.6111667,3.95136519 L10.569,3.95136519 L10.569,3.9149215 L10.4635833,3.9149215 L10.4635833,3.95136519 L10.3409167,3.95136519 L10.3409167,3.97821843 L10.2623333,3.97821843 L10.2623333,4.01274403 L10.1933333,4.01274403 L10.1933333,4.08371331 L10.0745,4.08371331 L10.0745,4.11823891 L9.994,4.11823891 L9.994,4.15468259 L9.95183333,4.15468259 L9.95183333,4.22948805 L9.88666667,4.22948805 L9.88666667,4.25250512 L9.80425,4.25250512 L9.80425,4.28703072 L9.76208333,4.28703072 L9.76208333,4.32155631 L9.72566667,4.32155631 L9.72566667,4.35991809 L9.6835,4.35991809 L9.6835,4.39444369 L9.64516667,4.39444369 L9.64516667,4.43088737 L9.603,4.43088737 L9.603,4.46924915 L9.53783333,4.46924915 L9.53783333,4.49993857 L9.45733333,4.49993857 L9.45733333,4.56131741 L9.41516667,4.56131741 L9.41516667,4.59776109 L9.37491667,4.59776109 L9.37491667,4.63420478 L9.33658333,4.63420478 L9.33658333,4.67256655 L9.29441667,4.67256655 L9.29441667,4.70517406 L9.25608333,4.70517406 L9.25608333,4.74161775 L9.22541667,4.74161775 L9.22541667,4.77997952 L9.189,4.77997952 L9.189,4.81258703 L9.14683333,4.81258703 L9.14683333,4.85094881 L9.1085,4.85094881 L9.1085,4.87396587 L9.06633333,4.87396587 L9.06633333,4.90849147 L8.98583333,4.90849147 L8.98583333,4.98137884 L8.90533333,4.98137884 L8.90533333,5.05426621 L8.8785,5.05426621 L8.8785,5.0907099 L8.83825,5.0907099 L8.83825,5.12331741 L8.798,5.12331741 L8.798,5.15017065 L8.75775,5.15017065 L8.75775,5.18661433 L8.71941667,5.18661433 L8.71941667,5.22113993 L8.67725,5.22113993 L8.67725,5.25758362 L8.63891667,5.25758362 L8.63891667,5.29210922 L8.59675,5.29210922 L8.59675,5.3285529 L8.56991667,5.3285529 L8.56991667,5.36499659 L8.52775,5.36499659 L8.52775,5.40144027 L8.4875,5.40144027 L8.4875,5.43596587 L8.40891667,5.43596587 L8.40891667,5.45898294 L8.36866667,5.45898294 L8.36866667,5.49542662 L8.32841667,5.49542662 L8.32841667,5.53187031 L8.28625,5.53187031 L8.28625,5.57023208 L8.24791667,5.57023208 L8.24791667,5.60283959 L8.223,5.60283959 L8.223,5.63928328 L8.18083333,5.63928328 L8.18083333,5.67380887 L8.14058333,5.67380887 L8.14058333,5.71217065 L8.06008333,5.71217065 L8.06008333,5.7716314 L8.01983333,5.7716314 L8.01983333,5.80807509 L7.97958333,5.80807509 L7.97958333,5.84260068 L7.9125,5.84260068 L7.9125,5.88096246 L7.83391667,5.88096246 L7.83391667,5.91356997 L7.79175,5.91356997 L7.79175,5.98837543 L7.7515,5.98837543 L7.7515,6.02098294 L7.671,6.02098294 L7.671,6.04783618 L7.5905,6.04783618 L7.5905,6.08236177 L7.56175,6.08236177 L7.56175,6.11880546 L7.5215,6.11880546 L7.5215,6.18977474 L7.48316667,6.18977474 L7.48316667,6.22621843 L7.44291667,6.22621843 L7.44291667,6.26266212 L7.32025,6.26266212 L7.32025,6.2991058 L7.28191667,6.2991058 L7.28191667,6.36048464 L7.25508333,6.36048464 L7.25508333,6.39309215 L7.21291667,6.39309215 L7.21291667,6.42953584 L7.17458333,6.42953584 L7.17458333,6.46597952 L7.05383333,6.46597952 L7.05383333,6.50050512 L7.01358333,6.50050512 L7.01358333,6.57339249 L6.97141667,6.57339249 L6.97141667,6.60791809 L6.93308333,6.60791809 L6.93308333,6.63285324 L6.90625,6.63285324 L6.90625,6.67121502 L6.866,6.67121502 L6.866,6.7076587 L6.78358333,6.7076587 L6.78358333,6.74026621 L6.74525,6.74026621 L6.74525,6.7767099 L6.705,6.7767099 L6.705,6.81123549 L6.66475,6.81123549 L6.66475,6.84959727 L6.6245,6.84959727 L6.6245,6.88604096 L6.59575,6.88604096 L6.59575,6.90905802 L6.55741667,6.90905802 L6.55741667,6.94358362 L6.51716667,6.94358362 L6.51716667,6.97810922 L6.43475,6.97810922 L6.43475,7.01647099 L6.39641667,7.01647099 L6.39641667,7.05291468 L6.35616667,7.05291468 L6.35616667,7.08935836 L6.31591667,7.08935836 L6.31591667,7.16032765 L6.245,7.16032765 L6.245,7.19293515 L6.20858333,7.19293515 L6.20858333,7.2197884 L6.16641667,7.2197884 L6.16641667,7.25623208 L6.12808333,7.25623208 L6.12808333,7.29075768 L6.08591667,7.29075768 L6.08591667,7.32720137 L6.04566667,7.32720137 L6.04566667,7.40008874 L5.96708333,7.40008874 L5.96708333,7.43461433 L5.94025,7.43461433 L5.94025,7.47297611 L5.89808333,7.47297611 L5.89808333,7.50558362 L5.85783333,7.50558362 L5.85783333,7.53051877 L5.8195,7.53051877 L5.8195,7.60148805 L5.739,7.60148805 L5.739,7.63793174 L5.69683333,7.63793174 L5.69683333,7.67245734 L5.65658333,7.67245734 L5.65658333,7.70890102 L5.61633333,7.70890102 L5.61633333,7.7817884 L5.54733333,7.7817884 L5.54733333,7.84316724 L5.46683333,7.84316724 L5.46683333,7.87961092 L5.43041667,7.87961092 L5.43041667,7.91221843 L5.38825,7.91221843 L5.38825,7.9505802 L5.34991667,7.9505802 L5.34991667,8.05991126 L5.28091667,8.05991126 L5.28091667,8.09251877 L5.24258333,8.09251877 L5.24258333,8.11745392 L5.20233333,8.11745392 L5.20233333,8.15197952 L5.16016667,8.15197952 L5.16016667,8.22678498 L5.07775,8.22678498 L5.07775,8.29583618 L5.04133333,8.29583618 L5.04133333,8.36872355 L4.99916667,8.36872355 L4.99916667,8.39174061 L4.96083333,8.39174061 L4.96083333,8.4627099 L4.89183333,8.4627099 L4.89183333,8.49915358 L4.8535,8.49915358 L4.8535,8.64301024 L4.81133333,8.64301024 L4.81133333,8.70247099 L4.72891667,8.70247099 L4.72891667,8.84824573 L4.69058333,8.84824573 L4.69058333,9.05156314 L4.65033333,9.05156314 L4.65033333,11.1557065 L4.69058333,11.1557065 L4.69058333,11.8500546 L4.72891667,11.8500546 L4.72891667,12.4369898 L4.77108333,12.4369898 L4.77108333,12.91843 L4.81133333,12.91843 L4.81133333,13.3691809 L4.8535,13.3691809 L4.8535,14.0539386 L4.89183333,14.0539386 L4.89183333,14.2936997 L4.93208333,14.2936997 L4.93208333,14.5794949 L4.96083333,14.5794949 L4.96083333,14.8537816 L4.99916667,14.8537816 L4.99916667,15.1319044 L5.04133333,15.1319044 L5.04133333,15.4656519 L5.07775,15.4656519 L5.07775,16.4342867 L5.34991667,16.4342867 L5.34991667,16.4707304 L5.54733333,16.4707304 L5.54733333,16.505256 L5.77733333,16.505256 L5.77733333,16.5416997 L6.04566667,16.5416997 L6.04566667,16.5781433 L6.55741667,16.5781433 L6.55741667,16.5781433 Z M15.8666667,16.5781433 L15.8666667,16.5416997 L16.1465,16.5416997 L16.1465,16.505256 L16.3343333,16.505256 L16.3343333,16.4707304 L16.5643333,16.4707304 L16.5643333,16.4342867 L16.8058333,16.4342867 L16.8058333,16.1580819 L16.8326667,16.1580819 L16.8326667,15.6095085 L16.8729167,15.6095085 L16.8729167,15.2239727 L16.9131667,15.2239727 L16.9131667,14.9170785 L16.9534167,14.9170785 L16.9534167,14.6753993 L16.9936667,14.6753993 L16.9936667,14.3991945 L17.0339167,14.3991945 L17.0339167,14.0884642 L17.0741667,14.0884642 L17.0741667,13.501529 L17.1125,13.501529 L17.1125,13.0968123 L17.14125,13.0968123 L17.14125,12.5674198 L17.1834167,12.5674198 L17.1834167,12.0552901 L17.22175,12.0552901 L17.22175,11.3973857 L17.262,11.3973857 L17.262,10.497802 L17.3003333,10.497802 L17.3003333,9.3642116 L17.262,9.3642116 L17.262,8.9556587 L17.22175,8.9556587 L17.22175,8.80988396 L17.1834167,8.80988396 L17.1834167,8.70247099 L17.14125,8.70247099 L17.14125,8.67945392 L17.1125,8.67945392 L17.1125,8.60848464 L17.0741667,8.60848464 L17.0741667,8.49915358 L17.0339167,8.49915358 L17.0339167,8.4627099 L16.9936667,8.4627099 L16.9936667,8.43010239 L16.9534167,8.43010239 L16.9534167,8.39174061 L16.9131667,8.39174061 L16.9131667,8.33227986 L16.8729167,8.33227986 L16.8729167,8.29583618 L16.8326667,8.29583618 L16.8326667,8.26131058 L16.8058333,8.26131058 L16.8058333,8.1903413 L16.7655833,8.1903413 L16.7655833,8.15197952 L16.7234167,8.15197952 L16.7234167,8.11745392 L16.687,8.11745392 L16.687,8.05991126 L16.6065,8.05991126 L16.6065,8.02154949 L16.5643333,8.02154949 L16.5643333,7.9505802 L16.5240833,7.9505802 L16.5240833,7.91221843 L16.4838333,7.91221843 L16.4838333,7.87961092 L16.4589167,7.87961092 L16.4589167,7.84316724 L16.3765,7.84316724 L16.3765,7.80672355 L16.3343333,7.80672355 L16.3343333,7.7817884 L16.2979167,7.7817884 L16.2979167,7.70890102 L16.25575,7.70890102 L16.25575,7.63793174 L16.2155,7.63793174 L16.2155,7.60148805 L16.1465,7.60148805 L16.1465,7.56696246 L16.10625,7.56696246 L16.10625,7.50558362 L16.0679167,7.50558362 L16.0679167,7.47297611 L16.0276667,7.47297611 L16.0276667,7.43461433 L15.9855,7.43461433 L15.9855,7.40008874 L15.9069167,7.40008874 L15.9069167,7.36364505 L15.8666667,7.36364505 L15.8666667,7.29075768 L15.8264167,7.29075768 L15.8264167,7.25623208 L15.7574167,7.25623208 L15.7574167,7.2197884 L15.7190833,7.2197884 L15.7190833,7.19293515 L15.6788333,7.19293515 L15.6788333,7.16032765 L15.5964167,7.16032765 L15.5964167,7.08935836 L15.5561667,7.08935836 L15.5561667,7.05291468 L15.5178333,7.05291468 L15.5178333,7.01647099 L15.491,7.01647099 L15.491,6.97810922 L15.4488333,6.97810922 L15.4488333,6.94358362 L15.4085833,6.94358362 L15.4085833,6.90905802 L15.33,6.90905802 L15.33,6.88604096 L15.28975,6.88604096 L15.28975,6.84959727 L15.2475833,6.84959727 L15.2475833,6.81123549 L15.2073333,6.81123549 L15.2073333,6.7767099 L15.169,6.7767099 L15.169,6.74026621 L15.1421667,6.74026621 L15.1421667,6.7076587 L15.1019167,6.7076587 L15.1019167,6.67121502 L15.05975,6.67121502 L15.05975,6.63285324 L15.0214167,6.63285324 L15.0214167,6.60791809 L14.9409167,6.60791809 L14.9409167,6.57339249 L14.9006667,6.57339249 L14.9006667,6.50050512 L14.8316667,6.50050512 L14.8316667,6.46597952 L14.7933333,6.46597952 L14.7933333,6.42953584 L14.7530833,6.42953584 L14.7530833,6.39309215 L14.6706667,6.39309215 L14.6706667,6.36048464 L14.6304167,6.36048464 L14.6304167,6.2991058 L14.5920833,6.2991058 L14.5920833,6.26266212 L14.5115833,6.26266212 L14.5115833,6.22621843 L14.4828333,6.22621843 L14.4828333,6.18977474 L14.4023333,6.18977474 L14.4023333,6.11880546 L14.364,6.11880546 L14.364,6.08236177 L14.3218333,6.08236177 L14.3218333,6.04783618 L14.2815833,6.04783618 L14.2815833,6.02098294 L14.17425,6.02098294 L14.17425,5.98837543 L14.134,5.98837543 L14.134,5.91356997 L14.09375,5.91356997 L14.09375,5.88096246 L14.0554167,5.88096246 L14.0554167,5.84260068 L13.93275,5.84260068 L13.93275,5.80807509 L13.8925,5.80807509 L13.8925,5.7716314 L13.8541667,5.7716314 L13.8541667,5.71217065 L13.8273333,5.71217065 L13.8273333,5.67380887 L13.7851667,5.67380887 L13.7851667,5.63928328 L13.7046667,5.63928328 L13.7046667,5.60283959 L13.6241667,5.60283959 L13.6241667,5.53187031 L13.5858333,5.53187031 L13.5858333,5.49542662 L13.54175,5.49542662 L13.54175,5.45898294 L13.5149167,5.45898294 L13.5149167,5.43596587 L13.4785,5.43596587 L13.4785,5.40144027 L13.4363333,5.40144027 L13.4363333,5.36499659 L13.3539167,5.36499659 L13.3539167,5.29210922 L13.3155833,5.29210922 L13.3155833,5.25758362 L13.2753333,5.25758362 L13.2753333,5.22113993 L13.237,5.22113993 L13.237,5.18661433 L13.1948333,5.18661433 L13.1948333,5.15017065 L13.168,5.15017065 L13.168,5.12331741 L13.12775,5.12331741 L13.12775,5.0907099 L13.0894167,5.0907099 L13.0894167,5.05426621 L13.04725,5.05426621 L13.04725,5.01974061 L13.007,5.01974061 L13.007,4.98137884 L12.9648333,4.98137884 L12.9648333,4.94685324 L12.9284167,4.94685324 L12.9284167,4.90849147 L12.88625,4.90849147 L12.88625,4.87396587 L12.8594167,4.87396587 L12.8594167,4.85094881 L12.8191667,4.85094881 L12.8191667,4.81258703 L12.7789167,4.81258703 L12.7789167,4.77997952 L12.7386667,4.77997952 L12.7386667,4.74161775 L12.7003333,4.74161775 L12.7003333,4.70517406 L12.6179167,4.70517406 L12.6179167,4.67256655 L12.57575,4.67256655 L12.57575,4.63420478 L12.5393333,4.63420478 L12.5393333,4.59776109 L12.5125,4.59776109 L12.5125,4.56131741 L12.4703333,4.56131741 L12.4703333,4.53830034 L12.4281667,4.53830034 L12.4281667,4.49993857 L12.3898333,4.49993857 L12.3898333,4.46924915 L12.31125,4.46924915 L12.31125,4.43088737 L12.2690833,4.43088737 L12.2690833,4.39444369 L12.2288333,4.39444369 L12.2288333,4.35991809 L12.202,4.35991809 L12.202,4.32155631 L12.16175,4.32155631 L12.16175,4.25250512 L12.041,4.25250512 L12.041,4.22948805 L11.9988333,4.22948805 L11.9988333,4.19304437 L11.9624167,4.19304437 L11.9624167,4.15468259 L11.92025,4.15468259 L11.92025,4.11823891 L11.8780833,4.11823891 L11.8780833,4.08371331 L11.7324167,4.08371331 L11.7324167,4.01274403 L11.65,4.01274403 L11.65,3.97821843 L11.5714167,3.97821843 L11.5714167,3.95136519 L11.4621667,3.95136519 L11.4621667,3.9149215 L11.3433333,3.9149215 L11.3433333,3.95136519 L11.3011667,3.95136519 L11.3011667,3.97821843 L11.2628333,3.97821843 L11.2628333,4.01274403 L11.2225833,4.01274403 L11.2225833,4.08371331 L11.1938333,4.08371331 L11.1938333,4.49993857 L11.2225833,4.49993857 L11.2225833,4.59776109 L11.2628333,4.59776109 L11.2628333,4.70517406 L11.3011667,4.70517406 L11.3011667,4.77997952 L11.3433333,4.77997952 L11.3433333,4.85094881 L11.3835833,4.85094881 L11.3835833,4.90849147 L11.42575,4.90849147 L11.42575,4.98137884 L11.4621667,4.98137884 L11.4621667,5.05426621 L11.5043333,5.05426621 L11.5043333,5.0907099 L11.5445833,5.0907099 L11.5445833,5.15017065 L11.6116667,5.15017065 L11.6116667,5.18661433 L11.65,5.18661433 L11.65,5.25758362 L11.69025,5.25758362 L11.69025,5.3285529 L11.7324167,5.3285529 L11.7324167,5.36499659 L11.7726667,5.36499659 L11.7726667,5.40144027 L11.8129167,5.40144027 L11.8129167,5.43596587 L11.85125,5.43596587 L11.85125,5.45898294 L11.8780833,5.45898294 L11.8780833,5.49542662 L11.92025,5.49542662 L11.92025,5.53187031 L11.9624167,5.53187031 L11.9624167,5.60283959 L12.041,5.60283959 L12.041,5.63928328 L12.0793333,5.63928328 L12.0793333,5.67380887 L12.1234167,5.67380887 L12.1234167,5.71217065 L12.16175,5.71217065 L12.16175,5.7716314 L12.202,5.7716314 L12.202,5.80807509 L12.2288333,5.80807509 L12.2288333,5.84260068 L12.3495833,5.84260068 L12.3495833,5.88096246 L12.3898333,5.88096246 L12.3898333,5.95193174 L12.4281667,5.95193174 L12.4281667,5.98837543 L12.4703333,5.98837543 L12.4703333,6.02098294 L12.57575,6.02098294 L12.57575,6.04783618 L12.6179167,6.04783618 L12.6179167,6.08236177 L12.6581667,6.08236177 L12.6581667,6.15524915 L12.7003333,6.15524915 L12.7003333,6.18977474 L12.7789167,6.18977474 L12.7789167,6.22621843 L12.8191667,6.22621843 L12.8191667,6.26266212 L12.88625,6.26266212 L12.88625,6.2991058 L12.9284167,6.2991058 L12.9284167,6.32212287 L12.9648333,6.32212287 L12.9648333,6.36048464 L13.007,6.36048464 L13.007,6.39309215 L13.0894167,6.39309215 L13.0894167,6.42953584 L13.12775,6.42953584 L13.12775,6.46597952 L13.168,6.46597952 L13.168,6.50050512 L13.237,6.50050512 L13.237,6.53886689 L13.2753333,6.53886689 L13.2753333,6.57339249 L13.3155833,6.57339249 L13.3155833,6.60791809 L13.3539167,6.60791809 L13.3539167,6.63285324 L13.4363333,6.63285324 L13.4363333,6.7076587 L13.54175,6.7076587 L13.54175,6.74026621 L13.5858333,6.74026621 L13.5858333,6.7767099 L13.6241667,6.7767099 L13.6241667,6.81123549 L13.6663333,6.81123549 L13.6663333,6.84959727 L13.7449167,6.84959727 L13.7449167,6.88604096 L13.7851667,6.88604096 L13.7851667,6.90905802 L13.8541667,6.90905802 L13.8541667,6.94358362 L13.8925,6.94358362 L13.8925,6.97810922 L13.93275,6.97810922 L13.93275,7.01647099 L13.9749167,7.01647099 L13.9749167,7.05291468 L14.0554167,7.05291468 L14.0554167,7.08935836 L14.09375,7.08935836 L14.09375,7.12196587 L14.134,7.12196587 L14.134,7.16032765 L14.203,7.16032765 L14.203,7.19293515 L14.2413333,7.19293515 L14.2413333,7.2197884 L14.2815833,7.2197884 L14.2815833,7.25623208 L14.3218333,7.25623208 L14.3218333,7.29075768 L14.4023333,7.29075768 L14.4023333,7.36364505 L14.4445,7.36364505 L14.4445,7.40008874 L14.5115833,7.40008874 L14.5115833,7.43461433 L14.5518333,7.43461433 L14.5518333,7.47297611 L14.5920833,7.47297611 L14.5920833,7.53051877 L14.6304167,7.53051877 L14.6304167,7.60148805 L14.7109167,7.60148805 L14.7109167,7.67245734 L14.7530833,7.67245734 L14.7530833,7.70890102 L14.7933333,7.70890102 L14.7933333,7.7817884 L14.8316667,7.7817884 L14.8316667,7.84316724 L14.9006667,7.84316724 L14.9006667,7.9505802 L14.9409167,7.9505802 L14.9409167,8.02154949 L14.9811667,8.02154949 L14.9811667,8.05991126 L15.0214167,8.05991126 L15.0214167,8.09251877 L15.05975,8.09251877 L15.05975,8.1903413 L15.1019167,8.1903413 L15.1019167,8.29583618 L15.1421667,8.29583618 L15.1421667,8.36872355 L15.169,8.36872355 L15.169,8.4627099 L15.2073333,8.4627099 L15.2073333,8.53751536 L15.2475833,8.53751536 L15.2475833,8.67945392 L15.28975,8.67945392 L15.28975,8.80988396 L15.33,8.80988396 L15.33,9.4332628 L15.28975,9.4332628 L15.28975,9.56561092 L15.2475833,9.56561092 L15.2475833,9.6365802 L15.2073333,9.6365802 L15.2073333,9.70946758 L15.169,9.70946758 L15.169,9.74399317 L15.1019167,9.74399317 L15.1019167,9.78043686 L14.9811667,9.78043686 L14.9811667,9.74399317 L14.9006667,9.74399317 L14.9006667,9.70946758 L14.8316667,9.70946758 L14.8316667,9.6711058 L14.7933333,9.6711058 L14.7933333,9.6365802 L14.7530833,9.6365802 L14.7530833,9.60013652 L14.7109167,9.60013652 L14.7109167,9.56561092 L14.6706667,9.56561092 L14.6706667,9.54259386 L14.6304167,9.54259386 L14.6304167,9.4332628 L14.5920833,9.4332628 L14.5920833,9.3642116 L14.5518333,9.3642116 L14.5518333,9.28940614 L14.5115833,9.28940614 L14.5115833,9.22994539 L14.4828333,9.22994539 L14.4828333,9.15897611 L14.4445,9.15897611 L14.4445,9.08608874 L14.4023333,9.08608874 L14.4023333,8.91921502 L14.364,8.91921502 L14.364,8.80988396 L14.3218333,8.80988396 L14.3218333,8.70247099 L14.2815833,8.70247099 L14.2815833,8.64301024 L14.2413333,8.64301024 L14.2413333,8.53751536 L14.203,8.53751536 L14.203,8.4627099 L14.17425,8.4627099 L14.17425,8.36872355 L14.134,8.36872355 L14.134,8.1903413 L14.09375,8.1903413 L14.09375,8.09251877 L14.0554167,8.09251877 L14.0554167,8.02154949 L14.0151667,8.02154949 L14.0151667,7.9505802 L13.9749167,7.9505802 L13.9749167,7.84316724 L13.93275,7.84316724 L13.93275,7.80672355 L13.8925,7.80672355 L13.8925,7.7472628 L13.8541667,7.7472628 L13.8541667,7.60148805 L13.8273333,7.60148805 L13.8273333,7.53051877 L13.7851667,7.53051877 L13.7851667,7.47297611 L13.7449167,7.47297611 L13.7449167,7.43461433 L13.7046667,7.43461433 L13.7046667,7.40008874 L13.6663333,7.40008874 L13.6663333,7.36364505 L13.6241667,7.36364505 L13.6241667,7.25623208 L13.5858333,7.25623208 L13.5858333,7.2197884 L13.54175,7.2197884 L13.54175,7.19293515 L13.5149167,7.19293515 L13.5149167,7.16032765 L13.4363333,7.16032765 L13.4363333,7.12196587 L13.3539167,7.12196587 L13.3539167,7.08935836 L13.3155833,7.08935836 L13.3155833,7.05291468 L13.237,7.05291468 L13.237,7.01647099 L13.04725,7.01647099 L13.04725,7.05291468 L13.007,7.05291468 L13.007,7.08935836 L12.9648333,7.08935836 L12.9648333,7.16032765 L12.9284167,7.16032765 L12.9284167,7.19293515 L12.88625,7.19293515 L12.88625,7.40008874 L12.8594167,7.40008874 L12.8594167,7.7817884 L12.88625,7.7817884 L12.88625,8.09251877 L12.9284167,8.09251877 L12.9284167,8.22678498 L12.9648333,8.22678498 L12.9648333,8.33227986 L13.007,8.33227986 L13.007,8.4627099 L13.04725,8.4627099 L13.04725,8.53751536 L13.0894167,8.53751536 L13.0894167,8.64301024 L13.12775,8.64301024 L13.12775,8.70247099 L13.168,8.70247099 L13.168,8.91921502 L13.1948333,8.91921502 L13.1948333,8.97867577 L13.237,8.97867577 L13.237,9.05156314 L13.2753333,9.05156314 L13.2753333,9.15897611 L13.3155833,9.15897611 L13.3155833,9.22994539 L13.3539167,9.22994539 L13.3539167,9.3642116 L13.4363333,9.3642116 L13.4363333,9.56561092 L13.4785,9.56561092 L13.4785,9.6365802 L13.5149167,9.6365802 L13.5149167,9.74399317 L13.54175,9.74399317 L13.54175,9.85332423 L13.5858333,9.85332423 L13.5858333,9.94731058 L13.6241667,9.94731058 L13.6241667,10.1870717 L13.6663333,10.1870717 L13.6663333,10.2964027 L13.7046667,10.2964027 L13.7046667,10.4402594 L13.7449167,10.4402594 L13.7449167,10.5361638 L13.7851667,10.5361638 L13.7851667,10.6781024 L13.8273333,10.6781024 L13.8273333,10.8104505 L13.8541667,10.8104505 L13.8541667,11.0482935 L13.8925,11.0482935 L13.8925,11.1921502 L13.93275,11.1921502 L13.93275,11.2995631 L13.9749167,11.2995631 L13.9749167,11.3973857 L14.0151667,11.3973857 L14.0151667,11.5393242 L14.0554167,11.5393242 L14.0554167,11.6352287 L14.09375,11.6352287 L14.09375,11.7464778 L14.134,11.7464778 L14.134,11.945959 L14.17425,11.945959 L14.17425,12.0552901 L14.203,12.0552901 L14.203,12.1281775 L14.2413333,12.1281775 L14.2413333,12.2202457 L14.2815833,12.2202457 L14.2815833,12.2950512 L14.3218333,12.2950512 L14.3218333,12.3641024 L14.364,12.3641024 L14.364,12.4715154 L14.4023333,12.4715154 L14.4023333,12.5674198 L14.4445,12.5674198 L14.4445,12.6403072 L14.4828333,12.6403072 L14.4828333,12.6767509 L14.5115833,12.6767509 L14.5115833,12.7496382 L14.5518333,12.7496382 L14.5518333,12.8071809 L14.5920833,12.8071809 L14.5920833,12.8800683 L14.6304167,12.8800683 L14.6304167,12.9874812 L14.6706667,12.9874812 L14.6706667,13.0968123 L14.7109167,13.0968123 L14.7109167,13.1543549 L14.7530833,13.1543549 L14.7530833,13.2982116 L14.7933333,13.2982116 L14.7933333,13.4670034 L14.8316667,13.4670034 L14.8316667,16.3959249 L14.9006667,16.3959249 L14.9006667,16.4342867 L15.0214167,16.4342867 L15.0214167,16.4707304 L15.1019167,16.4707304 L15.1019167,16.505256 L15.169,16.505256 L15.169,16.5416997 L15.33,16.5416997 L15.33,16.5781433 L15.8666667,16.5781433 L15.8666667,16.5781433 Z" id="Fill-8" fill="#FFFFFF" sketch:type="MSShapeGroup"></path>
        </g>
    </g>
</svg>