<?xml version="1.0" encoding="UTF-8"?>
<!DOCTYPE svg PUBLIC "-//W3C//DTD SVG 1.1//EN" "http://www.w3.org/Graphics/SVG/1.1/DTD/svg11.dtd">
<svg version="1.1" xmlns="http://www.w3.org/2000/svg" xmlns:xlink="http://www.w3.org/1999/xlink" x="0" y="0" width="8" height="11" viewBox="0, 0, 8, 11">
  <g id="Background">
    <rect x="0" y="0" width="8" height="11" fill="#000000" fill-opacity="0"/>
  </g>
  <g id="Page-1">
    <path d="M5.094,8.692 L4.816,7.573 L4.215,8.027 z M3.785,8.027 L3.185,7.573 L2.907,8.691 z M3.398,7.408 L4.001,7.863 L4.602,7.408 L4.001,6.951 z M4.488,6.255 L4.001,4.297 L3.513,6.257 L4.001,6.626 z M4.557,6.53 L4.215,6.788 L4.714,7.166 z M3.287,7.166 L3.785,6.788 L3.445,6.53 z M5.975,10.201 C6.011,10.344 5.934,10.492 5.805,10.531 C5.783,10.537 5.762,10.54 5.741,10.54 C5.633,10.54 5.535,10.462 5.505,10.344 L5.188,9.072 C5.175,9.069 5.161,9.068 5.149,9.06 L4.001,8.189 L2.852,9.059 C2.84,9.068 2.826,9.068 2.813,9.072 L2.496,10.344 C2.46,10.486 2.329,10.564 2.196,10.531 C2.067,10.492 1.991,10.344 2.025,10.201 L3.658,3.641 C3.451,3.51 3.304,3.273 3.304,2.99 C3.304,2.568 3.615,2.225 4.001,2.225 C4.385,2.225 4.697,2.568 4.697,2.99 C4.697,3.273 4.55,3.509 4.342,3.641 z M2.07,5.077 C1.4,4.633 1.002,3.854 1.002,2.979 C1.002,2.123 1.4,1.346 2.07,0.901 C2.172,0.832 2.204,0.686 2.142,0.574 C2.08,0.462 1.947,0.427 1.845,0.493 C1.045,1.027 0.568,1.955 0.568,2.997 C0.568,4.022 1.045,4.952 1.845,5.485 C1.88,5.508 1.918,5.52 1.957,5.52 C2.03,5.52 2.101,5.478 2.142,5.404 C2.204,5.29 2.172,5.147 2.07,5.077 M1.447,2.997 C1.447,3.696 1.769,4.337 2.306,4.709 C2.342,4.734 2.381,4.746 2.421,4.746 C2.493,4.746 2.563,4.705 2.605,4.634 C2.668,4.524 2.638,4.377 2.536,4.306 C2.126,4.022 1.88,3.532 1.88,2.979 C1.88,2.445 2.126,1.957 2.537,1.672 C2.638,1.601 2.668,1.453 2.605,1.343 C2.54,1.23 2.405,1.201 2.306,1.268 C1.769,1.642 1.447,2.281 1.447,2.997 M3.096,4.135 C3.123,4.147 3.152,4.155 3.18,4.155 C3.265,4.155 3.345,4.1 3.38,4.008 C3.426,3.889 3.374,3.749 3.265,3.696 C3.008,3.578 2.842,3.303 2.842,2.979 C2.842,2.674 3.008,2.399 3.265,2.281 C3.374,2.23 3.426,2.09 3.38,1.969 C3.333,1.847 3.205,1.792 3.096,1.842 C2.679,2.036 2.408,2.482 2.408,2.997 C2.408,3.495 2.679,3.941 3.096,4.135 M6.155,0.493 C6.053,0.427 5.92,0.462 5.857,0.574 C5.795,0.686 5.828,0.832 5.93,0.901 C6.6,1.346 6.998,2.123 6.998,2.997 C6.998,3.854 6.6,4.633 5.93,5.077 C5.828,5.147 5.795,5.29 5.857,5.404 C5.898,5.478 5.97,5.52 6.043,5.52 C6.082,5.52 6.12,5.508 6.155,5.485 C6.955,4.952 7.432,4.024 7.432,2.979 C7.432,1.955 6.955,1.027 6.155,0.493 M6.119,2.997 C6.119,3.532 5.874,4.022 5.463,4.306 C5.362,4.377 5.332,4.524 5.395,4.634 C5.437,4.705 5.507,4.746 5.579,4.746 C5.618,4.746 5.658,4.734 5.693,4.709 C6.231,4.337 6.553,3.696 6.553,2.979 C6.553,2.281 6.231,1.642 5.694,1.268 C5.593,1.201 5.459,1.23 5.395,1.343 C5.332,1.453 5.362,1.601 5.462,1.672 C5.874,1.957 6.119,2.445 6.119,2.997 M4.735,2.281 C4.625,2.23 4.573,2.09 4.62,1.969 C4.667,1.847 4.795,1.792 4.903,1.842 C5.321,2.036 5.591,2.482 5.591,2.979 C5.591,3.495 5.321,3.941 4.903,4.135 C4.877,4.147 4.848,4.155 4.82,4.155 C4.735,4.155 4.655,4.1 4.62,4.008 C4.573,3.889 4.625,3.749 4.735,3.696 C4.991,3.578 5.157,3.303 5.157,2.997 C5.157,2.674 4.991,2.399 4.735,2.281" fill="#000000"/>
  </g>
</svg>
